G04*
G04 #@! TF.GenerationSoftware,Altium Limited,Altium Designer,21.6.1 (37)*
G04*
G04 Layer_Color=8388736*
%FSLAX25Y25*%
%MOIN*%
G70*
G04*
G04 #@! TF.SameCoordinates,EE309F7F-E528-4661-BA6D-D9C948015DE1*
G04*
G04*
G04 #@! TF.FilePolarity,Negative*
G04*
G01*
G75*
%ADD27R,0.15958X0.22453*%
%ADD28R,0.09383X0.07099*%
%ADD29R,0.06706X0.03162*%
%ADD30R,0.04973X0.11036*%
%ADD31R,0.22973X0.23635*%
%ADD32R,0.05131X0.07493*%
%ADD33R,0.11706X0.10839*%
%ADD34R,0.08674X0.15761*%
%ADD35R,0.05131X0.04737*%
%ADD36R,0.04737X0.05131*%
%ADD37R,0.07493X0.05131*%
%ADD38C,0.08280*%
%ADD39R,0.10642X0.07493*%
%ADD40C,0.00800*%
%ADD41R,0.05524X0.10249*%
%ADD42C,0.10249*%
%ADD43R,0.10249X0.10249*%
%ADD44R,0.05524X0.05524*%
%ADD45C,0.05524*%
D27*
X62587Y51181D02*
D03*
X101760D02*
D03*
D28*
X154000Y72228D02*
D03*
Y57758D02*
D03*
D29*
X118354Y28386D02*
D03*
Y23386D02*
D03*
Y18386D02*
D03*
Y13386D02*
D03*
X139614Y28386D02*
D03*
Y23386D02*
D03*
Y18386D02*
D03*
Y13386D02*
D03*
D30*
X138433Y39173D02*
D03*
X120402D02*
D03*
D31*
X129417Y64764D02*
D03*
D32*
X185315Y55700D02*
D03*
X174685D02*
D03*
D33*
X68323Y14000D02*
D03*
X93677D02*
D03*
D34*
X177000Y40945D02*
D03*
Y9055D02*
D03*
D35*
X125638Y5757D02*
D03*
X132331D02*
D03*
X194454Y55700D02*
D03*
X201147D02*
D03*
D36*
X108465Y15040D02*
D03*
Y21733D02*
D03*
D37*
X150000Y27315D02*
D03*
Y16685D02*
D03*
D38*
X46654Y39370D02*
D03*
D39*
X41142Y59311D02*
D03*
X22244D02*
D03*
X41142Y19429D02*
D03*
X22244D02*
D03*
D40*
X11220Y39370D02*
D03*
D41*
X24606D02*
D03*
D42*
X218000Y13158D02*
D03*
D43*
Y32842D02*
D03*
D44*
X209700Y60900D02*
D03*
D45*
X219543Y70742D02*
D03*
X229385Y60900D02*
D03*
M02*
