G04*
G04 #@! TF.GenerationSoftware,Altium Limited,Altium Designer,21.6.1 (37)*
G04*
G04 Layer_Color=65535*
%FSLAX25Y25*%
%MOIN*%
G70*
G04*
G04 #@! TF.SameCoordinates,EE309F7F-E528-4661-BA6D-D9C948015DE1*
G04*
G04*
G04 #@! TF.FilePolarity,Positive*
G04*
G01*
G75*
%ADD10C,0.00984*%
%ADD11C,0.02362*%
%ADD12C,0.00787*%
%ADD13C,0.01575*%
%ADD14C,0.01000*%
%ADD15C,0.00394*%
G36*
X30831Y71194D02*
Y62319D01*
X9133D01*
Y71194D01*
Y78722D01*
X30831D01*
Y71194D01*
D02*
G37*
G36*
X53993Y68713D02*
X53164D01*
Y72013D01*
X52077Y71621D01*
Y72339D01*
X53949Y73019D01*
X53993D01*
Y68713D01*
D02*
G37*
G36*
X49205Y69379D02*
X51226D01*
Y68713D01*
X48369D01*
Y73019D01*
X49205D01*
Y69379D01*
D02*
G37*
G36*
X43363Y11004D02*
Y10990D01*
Y10953D01*
X43355Y10893D01*
X43348Y10819D01*
X43333Y10731D01*
X43311Y10642D01*
X43281Y10538D01*
X43244Y10442D01*
X43237Y10435D01*
X43222Y10398D01*
X43200Y10353D01*
X43163Y10294D01*
X43118Y10227D01*
X43067Y10153D01*
X43007Y10079D01*
X42933Y10005D01*
X42926Y9998D01*
X42896Y9976D01*
X42859Y9946D01*
X42800Y9902D01*
X42734Y9857D01*
X42652Y9813D01*
X42563Y9769D01*
X42467Y9724D01*
X42452Y9717D01*
X42423Y9709D01*
X42364Y9695D01*
X42297Y9680D01*
X42208Y9658D01*
X42112Y9643D01*
X42008Y9635D01*
X41897Y9628D01*
X41846D01*
X41779Y9635D01*
X41705D01*
X41609Y9650D01*
X41513Y9665D01*
X41409Y9680D01*
X41305Y9709D01*
X41291Y9717D01*
X41261Y9724D01*
X41209Y9746D01*
X41150Y9769D01*
X41076Y9806D01*
X41002Y9850D01*
X40921Y9894D01*
X40847Y9954D01*
X40839Y9961D01*
X40817Y9983D01*
X40780Y10020D01*
X40736Y10065D01*
X40691Y10124D01*
X40639Y10198D01*
X40588Y10272D01*
X40543Y10361D01*
X40536Y10375D01*
X40528Y10405D01*
X40514Y10457D01*
X40491Y10531D01*
X40469Y10620D01*
X40454Y10716D01*
X40447Y10827D01*
X40440Y10953D01*
X41276D01*
Y10945D01*
Y10938D01*
Y10893D01*
X41283Y10834D01*
X41298Y10760D01*
X41313Y10679D01*
X41335Y10597D01*
X41372Y10516D01*
X41424Y10449D01*
X41431Y10442D01*
X41453Y10427D01*
X41490Y10398D01*
X41542Y10375D01*
X41609Y10346D01*
X41690Y10316D01*
X41786Y10301D01*
X41897Y10294D01*
X41949D01*
X41986Y10301D01*
X42068Y10316D01*
X42156Y10346D01*
X42164D01*
X42179Y10353D01*
X42201Y10368D01*
X42223Y10390D01*
X42290Y10435D01*
X42356Y10494D01*
X42364Y10501D01*
X42371Y10509D01*
X42386Y10531D01*
X42401Y10560D01*
X42445Y10634D01*
X42482Y10723D01*
Y10731D01*
X42489Y10745D01*
X42497Y10775D01*
X42512Y10812D01*
X42526Y10901D01*
X42534Y11004D01*
Y13994D01*
X43363D01*
Y11004D01*
D02*
G37*
G36*
X46175Y9687D02*
X45346D01*
Y12988D01*
X44258Y12595D01*
Y13313D01*
X46130Y13994D01*
X46175D01*
Y9687D01*
D02*
G37*
G36*
X156953Y48758D02*
X156946Y48676D01*
X156939Y48573D01*
X156916Y48454D01*
X156894Y48321D01*
X156857Y48188D01*
X156805Y48055D01*
Y48047D01*
X156798Y48040D01*
X156776Y47995D01*
X156746Y47929D01*
X156702Y47847D01*
X156643Y47759D01*
X156569Y47655D01*
X156487Y47559D01*
X156391Y47463D01*
X156376Y47448D01*
X156347Y47418D01*
X156287Y47374D01*
X156213Y47322D01*
X156125Y47255D01*
X156021Y47196D01*
X155903Y47130D01*
X155769Y47078D01*
X155762D01*
X155755Y47070D01*
X155732Y47063D01*
X155703Y47056D01*
X155629Y47033D01*
X155533Y47011D01*
X155414Y46989D01*
X155281Y46967D01*
X155133Y46952D01*
X154970Y46945D01*
X154615D01*
X154608D01*
X154593D01*
X154571D01*
X154541D01*
X154460Y46952D01*
X154349Y46959D01*
X154230Y46974D01*
X154097Y47004D01*
X153956Y47033D01*
X153816Y47078D01*
X153808D01*
X153801Y47085D01*
X153757Y47100D01*
X153690Y47130D01*
X153601Y47174D01*
X153505Y47226D01*
X153401Y47292D01*
X153298Y47366D01*
X153194Y47455D01*
X153179Y47463D01*
X153150Y47500D01*
X153105Y47551D01*
X153046Y47618D01*
X152980Y47707D01*
X152913Y47803D01*
X152846Y47914D01*
X152787Y48040D01*
X152780Y48055D01*
X152765Y48099D01*
X152743Y48166D01*
X152721Y48262D01*
X152691Y48373D01*
X152669Y48499D01*
X152654Y48639D01*
X152647Y48787D01*
Y49949D01*
X156953D01*
Y48758D01*
D02*
G37*
G36*
Y44295D02*
Y44251D01*
X152647D01*
Y45080D01*
X155947D01*
X155555Y46168D01*
X156273D01*
X156953Y44295D01*
D02*
G37*
G36*
X119783Y10009D02*
X116927D01*
X116919D01*
X116912D01*
X116890D01*
X116860D01*
X116779Y10002D01*
X116690Y9987D01*
X116586Y9972D01*
X116483Y9950D01*
X116379Y9913D01*
X116290Y9861D01*
X116283Y9854D01*
X116261Y9832D01*
X116224Y9794D01*
X116187Y9750D01*
X116150Y9684D01*
X116113Y9610D01*
X116090Y9521D01*
X116083Y9417D01*
Y9365D01*
X116098Y9313D01*
X116113Y9247D01*
X116135Y9173D01*
X116172Y9099D01*
X116224Y9025D01*
X116290Y8958D01*
X116298Y8951D01*
X116327Y8936D01*
X116379Y8907D01*
X116453Y8877D01*
X116542Y8847D01*
X116653Y8818D01*
X116779Y8795D01*
X116927Y8788D01*
X119783D01*
Y7959D01*
X116927D01*
X116919D01*
X116912D01*
X116867D01*
X116801Y7967D01*
X116712Y7974D01*
X116608Y7982D01*
X116505Y8004D01*
X116394Y8026D01*
X116283Y8063D01*
X116268Y8070D01*
X116238Y8078D01*
X116187Y8100D01*
X116120Y8137D01*
X116046Y8174D01*
X115965Y8218D01*
X115883Y8277D01*
X115809Y8344D01*
X115802Y8352D01*
X115780Y8374D01*
X115743Y8418D01*
X115698Y8470D01*
X115654Y8536D01*
X115602Y8618D01*
X115558Y8707D01*
X115513Y8803D01*
X115506Y8818D01*
X115498Y8847D01*
X115484Y8907D01*
X115469Y8980D01*
X115447Y9069D01*
X115432Y9180D01*
X115424Y9291D01*
X115417Y9417D01*
Y9469D01*
X115424Y9535D01*
X115432Y9610D01*
X115439Y9706D01*
X115461Y9802D01*
X115484Y9905D01*
X115513Y10009D01*
X115521Y10024D01*
X115535Y10053D01*
X115558Y10098D01*
X115587Y10165D01*
X115632Y10231D01*
X115683Y10305D01*
X115743Y10386D01*
X115809Y10460D01*
X115817Y10468D01*
X115846Y10490D01*
X115883Y10527D01*
X115942Y10564D01*
X116009Y10609D01*
X116090Y10660D01*
X116179Y10705D01*
X116283Y10749D01*
X116298Y10757D01*
X116335Y10764D01*
X116394Y10779D01*
X116468Y10793D01*
X116564Y10816D01*
X116675Y10830D01*
X116793Y10838D01*
X116927Y10845D01*
X119783D01*
Y10009D01*
D02*
G37*
G36*
Y5199D02*
Y5155D01*
X115476D01*
Y5984D01*
X118777D01*
X118384Y7071D01*
X119102D01*
X119783Y5199D01*
D02*
G37*
G36*
X131808Y34194D02*
X130979D01*
Y37495D01*
X129892Y37103D01*
Y37820D01*
X131764Y38501D01*
X131808D01*
Y34194D01*
D02*
G37*
G36*
X127686Y38553D02*
X127783Y38546D01*
X127886Y38523D01*
X127997Y38501D01*
X128116Y38464D01*
X128227Y38412D01*
X128241Y38405D01*
X128278Y38390D01*
X128330Y38353D01*
X128404Y38309D01*
X128486Y38250D01*
X128567Y38183D01*
X128656Y38102D01*
X128737Y38013D01*
X128745Y37998D01*
X128774Y37968D01*
X128811Y37917D01*
X128856Y37843D01*
X128907Y37754D01*
X128959Y37650D01*
X129011Y37532D01*
X129055Y37406D01*
Y37399D01*
X129063Y37391D01*
X129070Y37347D01*
X129092Y37273D01*
X129115Y37184D01*
X129129Y37066D01*
X129152Y36940D01*
X129159Y36799D01*
X129166Y36644D01*
Y35896D01*
Y35889D01*
Y35882D01*
Y35859D01*
Y35830D01*
X129159Y35756D01*
X129144Y35660D01*
X129129Y35541D01*
X129107Y35415D01*
X129070Y35282D01*
X129026Y35149D01*
Y35142D01*
X129018Y35134D01*
X129004Y35090D01*
X128967Y35023D01*
X128930Y34942D01*
X128870Y34853D01*
X128804Y34749D01*
X128722Y34646D01*
X128634Y34550D01*
X129344Y33913D01*
X128811Y33440D01*
X127990Y34194D01*
X127982D01*
X127975Y34187D01*
X127953D01*
X127923Y34180D01*
X127857Y34165D01*
X127775Y34150D01*
X127760D01*
X127738Y34143D01*
X127709D01*
X127635Y34135D01*
X127494D01*
X127420Y34143D01*
X127331Y34150D01*
X127228Y34172D01*
X127117Y34194D01*
X126998Y34231D01*
X126887Y34276D01*
X126872Y34283D01*
X126843Y34305D01*
X126784Y34335D01*
X126717Y34379D01*
X126643Y34431D01*
X126562Y34498D01*
X126480Y34572D01*
X126399Y34661D01*
X126391Y34675D01*
X126369Y34705D01*
X126332Y34757D01*
X126288Y34823D01*
X126236Y34905D01*
X126184Y35001D01*
X126140Y35105D01*
X126095Y35223D01*
Y35230D01*
X126088Y35238D01*
X126081Y35282D01*
X126066Y35341D01*
X126044Y35430D01*
X126021Y35534D01*
X126007Y35645D01*
X125999Y35771D01*
X125992Y35896D01*
Y36644D01*
Y36651D01*
Y36666D01*
Y36688D01*
Y36718D01*
X125999Y36792D01*
X126007Y36895D01*
X126014Y37014D01*
X126036Y37140D01*
X126058Y37273D01*
X126095Y37406D01*
Y37413D01*
X126103Y37421D01*
X126118Y37465D01*
X126140Y37532D01*
X126169Y37613D01*
X126214Y37709D01*
X126266Y37813D01*
X126332Y37917D01*
X126399Y38013D01*
X126406Y38028D01*
X126436Y38057D01*
X126480Y38102D01*
X126532Y38161D01*
X126606Y38227D01*
X126687Y38294D01*
X126784Y38353D01*
X126887Y38412D01*
X126902Y38420D01*
X126939Y38435D01*
X126998Y38457D01*
X127080Y38486D01*
X127183Y38516D01*
X127294Y38538D01*
X127420Y38553D01*
X127553Y38560D01*
X127620D01*
X127686Y38553D01*
D02*
G37*
G36*
X229052Y22864D02*
Y22849D01*
Y22812D01*
X229045Y22753D01*
X229037Y22679D01*
X229023Y22590D01*
X229000Y22501D01*
X228971Y22398D01*
X228934Y22301D01*
X228926Y22294D01*
X228912Y22257D01*
X228889Y22213D01*
X228852Y22153D01*
X228808Y22087D01*
X228756Y22013D01*
X228697Y21939D01*
X228623Y21865D01*
X228616Y21857D01*
X228586Y21835D01*
X228549Y21806D01*
X228490Y21761D01*
X228423Y21717D01*
X228342Y21672D01*
X228253Y21628D01*
X228157Y21584D01*
X228142Y21576D01*
X228112Y21569D01*
X228053Y21554D01*
X227987Y21539D01*
X227898Y21517D01*
X227802Y21502D01*
X227698Y21495D01*
X227587Y21487D01*
X227535D01*
X227469Y21495D01*
X227395D01*
X227298Y21510D01*
X227202Y21524D01*
X227099Y21539D01*
X226995Y21569D01*
X226980Y21576D01*
X226951Y21584D01*
X226899Y21606D01*
X226840Y21628D01*
X226766Y21665D01*
X226692Y21709D01*
X226610Y21754D01*
X226536Y21813D01*
X226529Y21820D01*
X226507Y21843D01*
X226470Y21880D01*
X226425Y21924D01*
X226381Y21983D01*
X226329Y22057D01*
X226277Y22131D01*
X226233Y22220D01*
X226225Y22235D01*
X226218Y22264D01*
X226203Y22316D01*
X226181Y22390D01*
X226159Y22479D01*
X226144Y22575D01*
X226137Y22686D01*
X226129Y22812D01*
X226965D01*
Y22805D01*
Y22797D01*
Y22753D01*
X226973Y22694D01*
X226988Y22620D01*
X227002Y22538D01*
X227025Y22457D01*
X227062Y22375D01*
X227113Y22309D01*
X227121Y22301D01*
X227143Y22287D01*
X227180Y22257D01*
X227232Y22235D01*
X227298Y22205D01*
X227380Y22176D01*
X227476Y22161D01*
X227587Y22153D01*
X227639D01*
X227676Y22161D01*
X227757Y22176D01*
X227846Y22205D01*
X227853D01*
X227868Y22213D01*
X227890Y22227D01*
X227913Y22250D01*
X227979Y22294D01*
X228046Y22353D01*
X228053Y22361D01*
X228061Y22368D01*
X228075Y22390D01*
X228090Y22420D01*
X228135Y22494D01*
X228172Y22583D01*
Y22590D01*
X228179Y22605D01*
X228186Y22634D01*
X228201Y22671D01*
X228216Y22760D01*
X228223Y22864D01*
Y25853D01*
X229052D01*
Y22864D01*
D02*
G37*
G36*
X231287Y25905D02*
X231361Y25898D01*
X231450Y25890D01*
X231553Y25876D01*
X231650Y25846D01*
X231746Y25816D01*
X231761Y25809D01*
X231790Y25802D01*
X231835Y25779D01*
X231894Y25750D01*
X231968Y25713D01*
X232034Y25668D01*
X232108Y25617D01*
X232175Y25557D01*
X232182Y25550D01*
X232205Y25528D01*
X232234Y25491D01*
X232271Y25446D01*
X232316Y25387D01*
X232360Y25321D01*
X232397Y25247D01*
X232434Y25158D01*
X232441Y25150D01*
X232449Y25121D01*
X232464Y25069D01*
X232478Y25010D01*
X232493Y24936D01*
X232508Y24847D01*
X232523Y24751D01*
Y24647D01*
Y24640D01*
Y24610D01*
Y24573D01*
X232515Y24521D01*
X232508Y24455D01*
X232493Y24388D01*
X232456Y24240D01*
Y24233D01*
X232441Y24211D01*
X232427Y24166D01*
X232404Y24122D01*
X232382Y24063D01*
X232345Y23996D01*
X232264Y23855D01*
X232256Y23848D01*
X232242Y23826D01*
X232212Y23789D01*
X232182Y23737D01*
X232138Y23678D01*
X232086Y23619D01*
X231968Y23471D01*
X231960Y23463D01*
X231938Y23441D01*
X231901Y23397D01*
X231857Y23345D01*
X231798Y23286D01*
X231738Y23219D01*
X231590Y23064D01*
X230776Y22205D01*
X232671D01*
Y21547D01*
X229726D01*
Y22102D01*
X231124Y23604D01*
X231132Y23611D01*
X231154Y23633D01*
X231183Y23670D01*
X231220Y23707D01*
X231309Y23811D01*
X231398Y23922D01*
X231405Y23929D01*
X231420Y23944D01*
X231435Y23974D01*
X231465Y24011D01*
X231516Y24100D01*
X231576Y24188D01*
Y24196D01*
X231590Y24211D01*
X231598Y24233D01*
X231620Y24262D01*
X231650Y24329D01*
X231679Y24410D01*
Y24418D01*
X231687Y24425D01*
X231694Y24477D01*
X231701Y24544D01*
X231709Y24618D01*
Y24625D01*
Y24640D01*
Y24669D01*
X231701Y24699D01*
X231694Y24780D01*
X231664Y24869D01*
Y24877D01*
X231657Y24891D01*
X231635Y24936D01*
X231605Y25002D01*
X231553Y25062D01*
Y25069D01*
X231539Y25076D01*
X231502Y25106D01*
X231442Y25143D01*
X231368Y25180D01*
X231361D01*
X231354Y25187D01*
X231331Y25195D01*
X231302Y25202D01*
X231228Y25217D01*
X231139Y25224D01*
X231080D01*
X231021Y25217D01*
X230947Y25202D01*
X230865Y25180D01*
X230784Y25143D01*
X230702Y25099D01*
X230628Y25032D01*
X230621Y25025D01*
X230606Y24995D01*
X230577Y24958D01*
X230547Y24899D01*
X230517Y24825D01*
X230488Y24736D01*
X230473Y24625D01*
X230466Y24507D01*
X229644D01*
Y24521D01*
Y24558D01*
X229652Y24610D01*
X229659Y24684D01*
X229666Y24766D01*
X229689Y24854D01*
X229711Y24951D01*
X229748Y25047D01*
X229755Y25062D01*
X229770Y25091D01*
X229792Y25136D01*
X229829Y25202D01*
X229874Y25269D01*
X229925Y25350D01*
X229985Y25424D01*
X230059Y25498D01*
X230066Y25506D01*
X230096Y25528D01*
X230140Y25565D01*
X230192Y25609D01*
X230266Y25654D01*
X230347Y25705D01*
X230436Y25757D01*
X230540Y25802D01*
X230554Y25809D01*
X230591Y25816D01*
X230651Y25839D01*
X230725Y25861D01*
X230813Y25876D01*
X230924Y25898D01*
X231043Y25905D01*
X231169Y25913D01*
X231220D01*
X231287Y25905D01*
D02*
G37*
G36*
X189438Y47347D02*
X188609D01*
Y50647D01*
X187521Y50255D01*
Y50973D01*
X189393Y51653D01*
X189438D01*
Y47347D01*
D02*
G37*
G36*
X185331Y51646D02*
X185420D01*
X185516Y51631D01*
X185627Y51616D01*
X185738Y51594D01*
X185849Y51565D01*
X185864D01*
X185901Y51550D01*
X185952Y51528D01*
X186019Y51505D01*
X186100Y51468D01*
X186182Y51424D01*
X186263Y51380D01*
X186345Y51320D01*
X186352Y51313D01*
X186382Y51291D01*
X186419Y51254D01*
X186463Y51209D01*
X186515Y51150D01*
X186567Y51084D01*
X186618Y51002D01*
X186663Y50913D01*
X186670Y50906D01*
X186678Y50869D01*
X186700Y50817D01*
X186722Y50751D01*
X186737Y50669D01*
X186759Y50573D01*
X186767Y50469D01*
X186774Y50351D01*
Y50344D01*
Y50314D01*
Y50270D01*
X186767Y50210D01*
X186759Y50151D01*
X186752Y50077D01*
X186722Y49937D01*
Y49929D01*
X186715Y49907D01*
X186700Y49870D01*
X186685Y49826D01*
X186633Y49722D01*
X186567Y49604D01*
X186559Y49596D01*
X186552Y49581D01*
X186530Y49552D01*
X186500Y49515D01*
X186419Y49433D01*
X186315Y49345D01*
X186308Y49337D01*
X186293Y49330D01*
X186263Y49308D01*
X186226Y49285D01*
X186174Y49256D01*
X186123Y49226D01*
X185997Y49160D01*
X186922Y47384D01*
Y47347D01*
X186034D01*
X185220Y48952D01*
X184591D01*
Y47347D01*
X183762D01*
Y51653D01*
X185264D01*
X185331Y51646D01*
D02*
G37*
G36*
X60209Y7105D02*
X60297Y7098D01*
X60394Y7090D01*
X60497Y7068D01*
X60608Y7046D01*
X60712Y7009D01*
X60727Y7002D01*
X60756Y6994D01*
X60808Y6972D01*
X60875Y6935D01*
X60949Y6898D01*
X61023Y6854D01*
X61104Y6794D01*
X61178Y6728D01*
X61185Y6720D01*
X61208Y6698D01*
X61245Y6654D01*
X61289Y6602D01*
X61341Y6535D01*
X61393Y6454D01*
X61444Y6365D01*
X61489Y6269D01*
X61496Y6254D01*
X61511Y6225D01*
X61526Y6165D01*
X61555Y6091D01*
X61578Y6003D01*
X61600Y5899D01*
X61622Y5788D01*
X61637Y5662D01*
X60808D01*
Y5670D01*
Y5692D01*
X60801Y5729D01*
X60793Y5773D01*
X60778Y5884D01*
X60749Y5995D01*
Y6003D01*
X60741Y6017D01*
X60734Y6047D01*
X60719Y6084D01*
X60675Y6158D01*
X60616Y6239D01*
X60608Y6247D01*
X60601Y6254D01*
X60556Y6291D01*
X60482Y6343D01*
X60394Y6387D01*
X60386D01*
X60371Y6395D01*
X60342Y6402D01*
X60305Y6417D01*
X60260Y6424D01*
X60209Y6432D01*
X60083Y6439D01*
X60053D01*
X60016Y6432D01*
X59972D01*
X59861Y6402D01*
X59802Y6380D01*
X59742Y6350D01*
X59735D01*
X59720Y6336D01*
X59691Y6313D01*
X59661Y6291D01*
X59624Y6254D01*
X59587Y6210D01*
X59543Y6165D01*
X59506Y6106D01*
Y6099D01*
X59491Y6077D01*
X59476Y6047D01*
X59454Y6003D01*
X59432Y5943D01*
X59409Y5877D01*
X59395Y5795D01*
X59372Y5714D01*
Y5707D01*
X59365Y5677D01*
X59358Y5625D01*
X59350Y5566D01*
X59343Y5485D01*
X59335Y5396D01*
X59328Y5300D01*
Y5189D01*
Y4604D01*
Y4597D01*
Y4574D01*
Y4545D01*
Y4500D01*
X59335Y4449D01*
Y4389D01*
X59350Y4249D01*
X59372Y4093D01*
X59402Y3938D01*
X59446Y3790D01*
X59476Y3723D01*
X59506Y3664D01*
X59513Y3649D01*
X59543Y3620D01*
X59580Y3568D01*
X59646Y3516D01*
X59720Y3457D01*
X59824Y3405D01*
X59942Y3376D01*
X60075Y3361D01*
X60127D01*
X60186Y3368D01*
X60260Y3383D01*
X60342Y3405D01*
X60431Y3435D01*
X60512Y3472D01*
X60586Y3531D01*
X60593Y3538D01*
X60616Y3561D01*
X60645Y3605D01*
X60682Y3664D01*
X60727Y3746D01*
X60756Y3842D01*
X60786Y3960D01*
X60801Y4093D01*
X61629D01*
Y4079D01*
X61622Y4042D01*
X61615Y3975D01*
X61607Y3901D01*
X61585Y3805D01*
X61563Y3709D01*
X61526Y3605D01*
X61489Y3501D01*
X61481Y3487D01*
X61467Y3457D01*
X61444Y3413D01*
X61407Y3346D01*
X61363Y3279D01*
X61304Y3205D01*
X61245Y3131D01*
X61171Y3057D01*
X61163Y3050D01*
X61134Y3028D01*
X61089Y2998D01*
X61037Y2954D01*
X60963Y2909D01*
X60882Y2865D01*
X60793Y2821D01*
X60690Y2784D01*
X60675Y2776D01*
X60638Y2769D01*
X60586Y2754D01*
X60505Y2739D01*
X60416Y2717D01*
X60312Y2702D01*
X60201Y2695D01*
X60075Y2687D01*
X60009D01*
X59935Y2695D01*
X59846Y2702D01*
X59742Y2717D01*
X59624Y2747D01*
X59506Y2776D01*
X59395Y2821D01*
X59380Y2828D01*
X59343Y2850D01*
X59291Y2880D01*
X59224Y2924D01*
X59143Y2976D01*
X59062Y3043D01*
X58980Y3124D01*
X58899Y3213D01*
X58891Y3228D01*
X58869Y3257D01*
X58832Y3309D01*
X58788Y3383D01*
X58736Y3472D01*
X58684Y3575D01*
X58632Y3694D01*
X58588Y3820D01*
Y3827D01*
X58581Y3834D01*
Y3857D01*
X58573Y3879D01*
X58558Y3953D01*
X58536Y4049D01*
X58514Y4167D01*
X58499Y4301D01*
X58492Y4449D01*
X58484Y4604D01*
Y5181D01*
Y5189D01*
Y5203D01*
Y5226D01*
Y5255D01*
X58492Y5337D01*
X58499Y5440D01*
X58514Y5559D01*
X58529Y5692D01*
X58558Y5832D01*
X58595Y5966D01*
Y5973D01*
X58603Y5980D01*
X58618Y6025D01*
X58640Y6091D01*
X58677Y6173D01*
X58721Y6269D01*
X58780Y6373D01*
X58840Y6476D01*
X58914Y6572D01*
X58921Y6587D01*
X58951Y6617D01*
X58995Y6661D01*
X59054Y6720D01*
X59128Y6787D01*
X59217Y6854D01*
X59313Y6913D01*
X59417Y6972D01*
X59432Y6979D01*
X59469Y6994D01*
X59528Y7016D01*
X59609Y7046D01*
X59713Y7068D01*
X59824Y7090D01*
X59950Y7105D01*
X60083Y7113D01*
X60142D01*
X60209Y7105D01*
D02*
G37*
G36*
X64316Y2747D02*
X63487D01*
Y6047D01*
X62399Y5655D01*
Y6373D01*
X64271Y7053D01*
X64316D01*
Y2747D01*
D02*
G37*
G36*
X175365Y27205D02*
X175453Y27198D01*
X175550Y27190D01*
X175653Y27168D01*
X175764Y27146D01*
X175868Y27109D01*
X175883Y27102D01*
X175912Y27094D01*
X175964Y27072D01*
X176031Y27035D01*
X176105Y26998D01*
X176179Y26954D01*
X176260Y26894D01*
X176334Y26828D01*
X176341Y26820D01*
X176364Y26798D01*
X176401Y26754D01*
X176445Y26702D01*
X176497Y26635D01*
X176549Y26554D01*
X176600Y26465D01*
X176645Y26369D01*
X176652Y26354D01*
X176667Y26325D01*
X176682Y26265D01*
X176711Y26191D01*
X176734Y26103D01*
X176756Y25999D01*
X176778Y25888D01*
X176793Y25762D01*
X175964D01*
Y25770D01*
Y25792D01*
X175957Y25829D01*
X175949Y25873D01*
X175934Y25984D01*
X175905Y26095D01*
Y26103D01*
X175897Y26117D01*
X175890Y26147D01*
X175875Y26184D01*
X175831Y26258D01*
X175772Y26339D01*
X175764Y26347D01*
X175757Y26354D01*
X175712Y26391D01*
X175638Y26443D01*
X175550Y26487D01*
X175542D01*
X175527Y26495D01*
X175498Y26502D01*
X175461Y26517D01*
X175416Y26524D01*
X175365Y26532D01*
X175239Y26539D01*
X175209D01*
X175172Y26532D01*
X175128D01*
X175017Y26502D01*
X174958Y26480D01*
X174898Y26450D01*
X174891D01*
X174876Y26436D01*
X174847Y26413D01*
X174817Y26391D01*
X174780Y26354D01*
X174743Y26310D01*
X174699Y26265D01*
X174662Y26206D01*
Y26199D01*
X174647Y26177D01*
X174632Y26147D01*
X174610Y26103D01*
X174588Y26043D01*
X174565Y25977D01*
X174551Y25895D01*
X174528Y25814D01*
Y25807D01*
X174521Y25777D01*
X174514Y25725D01*
X174506Y25666D01*
X174499Y25585D01*
X174491Y25496D01*
X174484Y25400D01*
Y25289D01*
Y24704D01*
Y24697D01*
Y24674D01*
Y24645D01*
Y24600D01*
X174491Y24549D01*
Y24489D01*
X174506Y24349D01*
X174528Y24193D01*
X174558Y24038D01*
X174602Y23890D01*
X174632Y23823D01*
X174662Y23764D01*
X174669Y23749D01*
X174699Y23720D01*
X174736Y23668D01*
X174802Y23616D01*
X174876Y23557D01*
X174980Y23505D01*
X175098Y23476D01*
X175231Y23461D01*
X175283D01*
X175342Y23468D01*
X175416Y23483D01*
X175498Y23505D01*
X175587Y23535D01*
X175668Y23572D01*
X175742Y23631D01*
X175749Y23638D01*
X175772Y23661D01*
X175801Y23705D01*
X175838Y23764D01*
X175883Y23846D01*
X175912Y23942D01*
X175942Y24060D01*
X175957Y24193D01*
X176785D01*
Y24179D01*
X176778Y24142D01*
X176771Y24075D01*
X176763Y24001D01*
X176741Y23905D01*
X176719Y23809D01*
X176682Y23705D01*
X176645Y23601D01*
X176637Y23587D01*
X176623Y23557D01*
X176600Y23513D01*
X176563Y23446D01*
X176519Y23379D01*
X176460Y23305D01*
X176401Y23231D01*
X176327Y23157D01*
X176319Y23150D01*
X176290Y23128D01*
X176245Y23098D01*
X176193Y23054D01*
X176119Y23009D01*
X176038Y22965D01*
X175949Y22921D01*
X175846Y22884D01*
X175831Y22876D01*
X175794Y22869D01*
X175742Y22854D01*
X175661Y22839D01*
X175572Y22817D01*
X175468Y22802D01*
X175357Y22795D01*
X175231Y22787D01*
X175165D01*
X175091Y22795D01*
X175002Y22802D01*
X174898Y22817D01*
X174780Y22847D01*
X174662Y22876D01*
X174551Y22921D01*
X174536Y22928D01*
X174499Y22950D01*
X174447Y22980D01*
X174380Y23024D01*
X174299Y23076D01*
X174218Y23143D01*
X174136Y23224D01*
X174055Y23313D01*
X174047Y23328D01*
X174025Y23357D01*
X173988Y23409D01*
X173944Y23483D01*
X173892Y23572D01*
X173840Y23675D01*
X173788Y23794D01*
X173744Y23920D01*
Y23927D01*
X173737Y23934D01*
Y23957D01*
X173729Y23979D01*
X173714Y24053D01*
X173692Y24149D01*
X173670Y24267D01*
X173655Y24401D01*
X173648Y24549D01*
X173640Y24704D01*
Y25281D01*
Y25289D01*
Y25303D01*
Y25326D01*
Y25355D01*
X173648Y25437D01*
X173655Y25540D01*
X173670Y25659D01*
X173685Y25792D01*
X173714Y25932D01*
X173751Y26066D01*
Y26073D01*
X173759Y26080D01*
X173774Y26125D01*
X173796Y26191D01*
X173833Y26273D01*
X173877Y26369D01*
X173936Y26473D01*
X173996Y26576D01*
X174070Y26672D01*
X174077Y26687D01*
X174107Y26717D01*
X174151Y26761D01*
X174210Y26820D01*
X174284Y26887D01*
X174373Y26954D01*
X174469Y27013D01*
X174573Y27072D01*
X174588Y27079D01*
X174625Y27094D01*
X174684Y27116D01*
X174765Y27146D01*
X174869Y27168D01*
X174980Y27190D01*
X175106Y27205D01*
X175239Y27213D01*
X175298D01*
X175365Y27205D01*
D02*
G37*
G36*
X179864Y24445D02*
X180360D01*
Y23779D01*
X179864D01*
Y22847D01*
X179035D01*
Y23779D01*
X177252D01*
X177215Y24290D01*
X179028Y27153D01*
X179864D01*
Y24445D01*
D02*
G37*
G36*
X137602Y7705D02*
X137690Y7698D01*
X137787Y7690D01*
X137890Y7668D01*
X138001Y7646D01*
X138105Y7609D01*
X138120Y7602D01*
X138149Y7594D01*
X138201Y7572D01*
X138268Y7535D01*
X138342Y7498D01*
X138416Y7454D01*
X138497Y7394D01*
X138571Y7328D01*
X138578Y7320D01*
X138601Y7298D01*
X138638Y7254D01*
X138682Y7202D01*
X138734Y7135D01*
X138786Y7054D01*
X138837Y6965D01*
X138882Y6869D01*
X138889Y6854D01*
X138904Y6825D01*
X138919Y6765D01*
X138948Y6691D01*
X138971Y6603D01*
X138993Y6499D01*
X139015Y6388D01*
X139030Y6262D01*
X138201D01*
Y6270D01*
Y6292D01*
X138194Y6329D01*
X138186Y6373D01*
X138171Y6484D01*
X138142Y6595D01*
Y6603D01*
X138134Y6617D01*
X138127Y6647D01*
X138112Y6684D01*
X138068Y6758D01*
X138009Y6839D01*
X138001Y6847D01*
X137994Y6854D01*
X137949Y6891D01*
X137875Y6943D01*
X137787Y6987D01*
X137779D01*
X137764Y6995D01*
X137735Y7002D01*
X137698Y7017D01*
X137653Y7024D01*
X137602Y7032D01*
X137476Y7039D01*
X137446D01*
X137409Y7032D01*
X137365D01*
X137254Y7002D01*
X137195Y6980D01*
X137135Y6950D01*
X137128D01*
X137113Y6936D01*
X137084Y6913D01*
X137054Y6891D01*
X137017Y6854D01*
X136980Y6810D01*
X136936Y6765D01*
X136899Y6706D01*
Y6699D01*
X136884Y6677D01*
X136869Y6647D01*
X136847Y6603D01*
X136825Y6543D01*
X136802Y6477D01*
X136788Y6395D01*
X136765Y6314D01*
Y6307D01*
X136758Y6277D01*
X136751Y6225D01*
X136743Y6166D01*
X136736Y6085D01*
X136728Y5996D01*
X136721Y5900D01*
Y5789D01*
Y5204D01*
Y5197D01*
Y5174D01*
Y5145D01*
Y5100D01*
X136728Y5049D01*
Y4989D01*
X136743Y4849D01*
X136765Y4693D01*
X136795Y4538D01*
X136839Y4390D01*
X136869Y4323D01*
X136899Y4264D01*
X136906Y4249D01*
X136936Y4220D01*
X136973Y4168D01*
X137039Y4116D01*
X137113Y4057D01*
X137217Y4005D01*
X137335Y3976D01*
X137468Y3961D01*
X137520D01*
X137579Y3968D01*
X137653Y3983D01*
X137735Y4005D01*
X137824Y4035D01*
X137905Y4072D01*
X137979Y4131D01*
X137986Y4138D01*
X138009Y4161D01*
X138038Y4205D01*
X138075Y4264D01*
X138120Y4346D01*
X138149Y4442D01*
X138179Y4560D01*
X138194Y4693D01*
X139022D01*
Y4679D01*
X139015Y4642D01*
X139008Y4575D01*
X139000Y4501D01*
X138978Y4405D01*
X138956Y4309D01*
X138919Y4205D01*
X138882Y4101D01*
X138874Y4087D01*
X138860Y4057D01*
X138837Y4013D01*
X138800Y3946D01*
X138756Y3879D01*
X138697Y3805D01*
X138638Y3731D01*
X138564Y3657D01*
X138556Y3650D01*
X138527Y3628D01*
X138482Y3598D01*
X138430Y3554D01*
X138356Y3509D01*
X138275Y3465D01*
X138186Y3421D01*
X138083Y3384D01*
X138068Y3376D01*
X138031Y3369D01*
X137979Y3354D01*
X137898Y3339D01*
X137809Y3317D01*
X137705Y3302D01*
X137594Y3295D01*
X137468Y3287D01*
X137402D01*
X137328Y3295D01*
X137239Y3302D01*
X137135Y3317D01*
X137017Y3347D01*
X136899Y3376D01*
X136788Y3421D01*
X136773Y3428D01*
X136736Y3450D01*
X136684Y3480D01*
X136617Y3524D01*
X136536Y3576D01*
X136455Y3643D01*
X136373Y3724D01*
X136292Y3813D01*
X136284Y3828D01*
X136262Y3857D01*
X136225Y3909D01*
X136181Y3983D01*
X136129Y4072D01*
X136077Y4175D01*
X136025Y4294D01*
X135981Y4420D01*
Y4427D01*
X135974Y4434D01*
Y4457D01*
X135966Y4479D01*
X135951Y4553D01*
X135929Y4649D01*
X135907Y4767D01*
X135892Y4901D01*
X135885Y5049D01*
X135877Y5204D01*
Y5781D01*
Y5789D01*
Y5803D01*
Y5826D01*
Y5855D01*
X135885Y5937D01*
X135892Y6040D01*
X135907Y6159D01*
X135922Y6292D01*
X135951Y6432D01*
X135988Y6566D01*
Y6573D01*
X135996Y6580D01*
X136011Y6625D01*
X136033Y6691D01*
X136070Y6773D01*
X136114Y6869D01*
X136173Y6973D01*
X136233Y7076D01*
X136307Y7172D01*
X136314Y7187D01*
X136344Y7217D01*
X136388Y7261D01*
X136447Y7320D01*
X136521Y7387D01*
X136610Y7454D01*
X136706Y7513D01*
X136810Y7572D01*
X136825Y7579D01*
X136862Y7594D01*
X136921Y7616D01*
X137002Y7646D01*
X137106Y7668D01*
X137217Y7690D01*
X137343Y7705D01*
X137476Y7713D01*
X137535D01*
X137602Y7705D01*
D02*
G37*
G36*
X141131D02*
X141205D01*
X141294Y7690D01*
X141398Y7676D01*
X141494Y7661D01*
X141598Y7631D01*
X141612D01*
X141642Y7616D01*
X141694Y7602D01*
X141753Y7572D01*
X141827Y7542D01*
X141901Y7505D01*
X141982Y7454D01*
X142056Y7402D01*
X142064Y7394D01*
X142086Y7372D01*
X142123Y7343D01*
X142167Y7298D01*
X142212Y7239D01*
X142264Y7172D01*
X142308Y7098D01*
X142352Y7017D01*
X142360Y7010D01*
X142367Y6980D01*
X142382Y6928D01*
X142404Y6862D01*
X142426Y6788D01*
X142441Y6699D01*
X142449Y6595D01*
X142456Y6484D01*
Y6477D01*
Y6462D01*
Y6432D01*
X142449Y6395D01*
X142441Y6307D01*
X142412Y6210D01*
Y6203D01*
X142404Y6188D01*
X142397Y6159D01*
X142382Y6129D01*
X142345Y6048D01*
X142293Y5951D01*
Y5944D01*
X142278Y5929D01*
X142264Y5907D01*
X142241Y5877D01*
X142175Y5811D01*
X142093Y5729D01*
X142086Y5722D01*
X142071Y5715D01*
X142049Y5692D01*
X142012Y5670D01*
X141931Y5611D01*
X141820Y5552D01*
X141827D01*
X141849Y5537D01*
X141886Y5522D01*
X141931Y5507D01*
X142027Y5456D01*
X142130Y5382D01*
X142138Y5374D01*
X142153Y5367D01*
X142175Y5345D01*
X142212Y5315D01*
X142278Y5241D01*
X142352Y5152D01*
X142360Y5145D01*
X142367Y5130D01*
X142382Y5108D01*
X142404Y5071D01*
X142441Y4982D01*
X142478Y4871D01*
Y4864D01*
X142486Y4849D01*
X142493Y4812D01*
X142500Y4775D01*
X142508Y4730D01*
X142515Y4671D01*
X142523Y4553D01*
Y4538D01*
Y4501D01*
X142515Y4442D01*
X142508Y4375D01*
X142493Y4286D01*
X142471Y4198D01*
X142441Y4101D01*
X142404Y4013D01*
X142397Y4005D01*
X142382Y3976D01*
X142360Y3931D01*
X142323Y3872D01*
X142278Y3813D01*
X142227Y3746D01*
X142160Y3680D01*
X142086Y3613D01*
X142079Y3606D01*
X142049Y3583D01*
X142005Y3554D01*
X141953Y3524D01*
X141879Y3480D01*
X141797Y3443D01*
X141709Y3406D01*
X141605Y3369D01*
X141590D01*
X141561Y3354D01*
X141501Y3347D01*
X141427Y3332D01*
X141339Y3317D01*
X141242Y3302D01*
X141131Y3295D01*
X141013Y3287D01*
X140969D01*
X140909Y3295D01*
X140843D01*
X140761Y3302D01*
X140673Y3317D01*
X140473Y3361D01*
X140458Y3369D01*
X140428Y3376D01*
X140377Y3391D01*
X140317Y3421D01*
X140243Y3450D01*
X140169Y3487D01*
X140007Y3583D01*
X139999Y3591D01*
X139977Y3613D01*
X139940Y3643D01*
X139888Y3687D01*
X139836Y3746D01*
X139785Y3813D01*
X139733Y3887D01*
X139681Y3968D01*
X139674Y3976D01*
X139666Y4013D01*
X139644Y4057D01*
X139622Y4124D01*
X139600Y4205D01*
X139585Y4294D01*
X139570Y4405D01*
X139563Y4516D01*
X140384D01*
Y4508D01*
Y4494D01*
Y4471D01*
X140391Y4442D01*
X140406Y4368D01*
X140428Y4286D01*
Y4279D01*
X140436Y4272D01*
X140465Y4227D01*
X140510Y4168D01*
X140562Y4101D01*
X140569D01*
X140576Y4087D01*
X140621Y4057D01*
X140687Y4020D01*
X140769Y3983D01*
X140776D01*
X140791Y3976D01*
X140813Y3968D01*
X140850D01*
X140932Y3953D01*
X141035Y3946D01*
X141087D01*
X141146Y3953D01*
X141213Y3968D01*
X141294Y3983D01*
X141376Y4013D01*
X141450Y4057D01*
X141524Y4109D01*
X141531Y4116D01*
X141553Y4138D01*
X141583Y4175D01*
X141612Y4227D01*
X141642Y4294D01*
X141672Y4368D01*
X141694Y4457D01*
X141701Y4560D01*
Y4568D01*
Y4590D01*
Y4619D01*
X141694Y4664D01*
X141679Y4760D01*
X141649Y4856D01*
Y4864D01*
X141642Y4878D01*
X141627Y4901D01*
X141612Y4930D01*
X141568Y4997D01*
X141501Y5063D01*
X141494Y5071D01*
X141487Y5078D01*
X141464Y5093D01*
X141435Y5108D01*
X141361Y5145D01*
X141272Y5182D01*
X141265D01*
X141250Y5189D01*
X141220Y5197D01*
X141183Y5204D01*
X141139D01*
X141087Y5211D01*
X140969Y5219D01*
X140525D01*
Y5855D01*
X141028D01*
X141087Y5863D01*
X141161Y5877D01*
X141242Y5900D01*
X141324Y5929D01*
X141405Y5966D01*
X141472Y6025D01*
X141479Y6033D01*
X141494Y6055D01*
X141524Y6092D01*
X141553Y6144D01*
X141583Y6210D01*
X141612Y6284D01*
X141627Y6381D01*
X141635Y6477D01*
Y6484D01*
Y6499D01*
Y6521D01*
X141627Y6551D01*
X141620Y6625D01*
X141598Y6706D01*
Y6714D01*
X141590Y6721D01*
X141568Y6765D01*
X141538Y6825D01*
X141487Y6884D01*
Y6891D01*
X141472Y6899D01*
X141435Y6928D01*
X141376Y6965D01*
X141294Y7002D01*
X141287D01*
X141272Y7010D01*
X141250Y7017D01*
X141220Y7024D01*
X141139Y7039D01*
X141035Y7047D01*
X140991D01*
X140961Y7039D01*
X140880Y7032D01*
X140798Y7010D01*
X140791D01*
X140784Y7002D01*
X140739Y6980D01*
X140680Y6950D01*
X140613Y6906D01*
X140599Y6891D01*
X140569Y6862D01*
X140525Y6810D01*
X140480Y6743D01*
Y6736D01*
X140473Y6728D01*
X140458Y6684D01*
X140443Y6617D01*
X140436Y6536D01*
X139614D01*
Y6551D01*
Y6580D01*
X139622Y6632D01*
X139629Y6691D01*
X139637Y6765D01*
X139659Y6847D01*
X139681Y6928D01*
X139718Y7010D01*
X139725Y7017D01*
X139740Y7047D01*
X139762Y7091D01*
X139799Y7143D01*
X139836Y7202D01*
X139888Y7261D01*
X139947Y7328D01*
X140014Y7387D01*
X140021Y7394D01*
X140051Y7409D01*
X140088Y7439D01*
X140140Y7476D01*
X140206Y7513D01*
X140280Y7550D01*
X140369Y7587D01*
X140458Y7624D01*
X140473Y7631D01*
X140502Y7639D01*
X140554Y7653D01*
X140628Y7668D01*
X140710Y7683D01*
X140798Y7698D01*
X140902Y7713D01*
X141065D01*
X141131Y7705D01*
D02*
G37*
G36*
X109137Y11611D02*
X109240Y11604D01*
X109359Y11589D01*
X109492Y11575D01*
X109632Y11545D01*
X109766Y11508D01*
X109773D01*
X109780Y11501D01*
X109825Y11486D01*
X109891Y11463D01*
X109973Y11427D01*
X110069Y11382D01*
X110173Y11323D01*
X110276Y11264D01*
X110372Y11190D01*
X110387Y11182D01*
X110417Y11153D01*
X110461Y11108D01*
X110520Y11049D01*
X110587Y10975D01*
X110654Y10886D01*
X110713Y10790D01*
X110772Y10687D01*
X110779Y10672D01*
X110794Y10635D01*
X110816Y10576D01*
X110846Y10494D01*
X110868Y10390D01*
X110890Y10279D01*
X110905Y10154D01*
X110913Y10020D01*
Y9961D01*
X110905Y9895D01*
X110898Y9806D01*
X110890Y9710D01*
X110868Y9606D01*
X110846Y9495D01*
X110809Y9392D01*
X110802Y9377D01*
X110794Y9347D01*
X110772Y9295D01*
X110735Y9229D01*
X110698Y9155D01*
X110654Y9081D01*
X110594Y8999D01*
X110528Y8925D01*
X110520Y8918D01*
X110498Y8896D01*
X110454Y8859D01*
X110402Y8814D01*
X110335Y8762D01*
X110254Y8711D01*
X110165Y8659D01*
X110069Y8614D01*
X110054Y8607D01*
X110025Y8592D01*
X109965Y8578D01*
X109891Y8548D01*
X109803Y8526D01*
X109699Y8504D01*
X109588Y8481D01*
X109462Y8467D01*
Y9295D01*
X109470D01*
X109492D01*
X109529Y9303D01*
X109573Y9310D01*
X109684Y9325D01*
X109795Y9354D01*
X109803D01*
X109817Y9362D01*
X109847Y9369D01*
X109884Y9384D01*
X109958Y9428D01*
X110039Y9488D01*
X110047Y9495D01*
X110054Y9503D01*
X110091Y9547D01*
X110143Y9621D01*
X110187Y9710D01*
Y9717D01*
X110195Y9732D01*
X110202Y9762D01*
X110217Y9798D01*
X110224Y9843D01*
X110232Y9895D01*
X110239Y10020D01*
Y10050D01*
X110232Y10087D01*
Y10131D01*
X110202Y10243D01*
X110180Y10302D01*
X110150Y10361D01*
Y10368D01*
X110136Y10383D01*
X110113Y10413D01*
X110091Y10442D01*
X110054Y10479D01*
X110010Y10516D01*
X109965Y10561D01*
X109906Y10598D01*
X109899D01*
X109877Y10612D01*
X109847Y10627D01*
X109803Y10650D01*
X109743Y10672D01*
X109677Y10694D01*
X109595Y10709D01*
X109514Y10731D01*
X109507D01*
X109477Y10738D01*
X109425Y10746D01*
X109366Y10753D01*
X109285Y10761D01*
X109196Y10768D01*
X109100Y10775D01*
X108989D01*
X108404D01*
X108397D01*
X108374D01*
X108345D01*
X108300D01*
X108249Y10768D01*
X108189D01*
X108049Y10753D01*
X107893Y10731D01*
X107738Y10701D01*
X107590Y10657D01*
X107523Y10627D01*
X107464Y10598D01*
X107449Y10590D01*
X107420Y10561D01*
X107368Y10524D01*
X107316Y10457D01*
X107257Y10383D01*
X107205Y10279D01*
X107176Y10161D01*
X107161Y10028D01*
Y9976D01*
X107168Y9917D01*
X107183Y9843D01*
X107205Y9762D01*
X107235Y9673D01*
X107272Y9591D01*
X107331Y9517D01*
X107338Y9510D01*
X107361Y9488D01*
X107405Y9458D01*
X107464Y9421D01*
X107546Y9377D01*
X107642Y9347D01*
X107760Y9318D01*
X107893Y9303D01*
Y8474D01*
X107879D01*
X107842Y8481D01*
X107775Y8489D01*
X107701Y8496D01*
X107605Y8518D01*
X107509Y8540D01*
X107405Y8578D01*
X107301Y8614D01*
X107287Y8622D01*
X107257Y8637D01*
X107213Y8659D01*
X107146Y8696D01*
X107079Y8740D01*
X107005Y8800D01*
X106931Y8859D01*
X106857Y8933D01*
X106850Y8940D01*
X106828Y8970D01*
X106798Y9014D01*
X106754Y9066D01*
X106709Y9140D01*
X106665Y9221D01*
X106621Y9310D01*
X106584Y9414D01*
X106576Y9428D01*
X106569Y9465D01*
X106554Y9517D01*
X106539Y9599D01*
X106517Y9687D01*
X106502Y9791D01*
X106495Y9902D01*
X106487Y10028D01*
Y10095D01*
X106495Y10169D01*
X106502Y10257D01*
X106517Y10361D01*
X106547Y10479D01*
X106576Y10598D01*
X106621Y10709D01*
X106628Y10723D01*
X106650Y10761D01*
X106680Y10812D01*
X106724Y10879D01*
X106776Y10960D01*
X106843Y11042D01*
X106924Y11123D01*
X107013Y11204D01*
X107028Y11212D01*
X107057Y11234D01*
X107109Y11271D01*
X107183Y11315D01*
X107272Y11367D01*
X107375Y11419D01*
X107494Y11471D01*
X107620Y11515D01*
X107627D01*
X107634Y11523D01*
X107657D01*
X107679Y11530D01*
X107753Y11545D01*
X107849Y11567D01*
X107967Y11589D01*
X108101Y11604D01*
X108249Y11611D01*
X108404Y11619D01*
X108981D01*
X108989D01*
X109003D01*
X109026D01*
X109055D01*
X109137Y11611D01*
D02*
G37*
G36*
X109610Y8000D02*
X109684Y7993D01*
X109766Y7986D01*
X109854Y7963D01*
X109951Y7941D01*
X110047Y7904D01*
X110062Y7897D01*
X110091Y7882D01*
X110136Y7860D01*
X110202Y7823D01*
X110269Y7778D01*
X110350Y7727D01*
X110424Y7667D01*
X110498Y7593D01*
X110506Y7586D01*
X110528Y7556D01*
X110565Y7512D01*
X110609Y7460D01*
X110654Y7386D01*
X110705Y7305D01*
X110757Y7216D01*
X110802Y7112D01*
X110809Y7097D01*
X110816Y7061D01*
X110839Y7001D01*
X110861Y6927D01*
X110876Y6838D01*
X110898Y6728D01*
X110905Y6609D01*
X110913Y6483D01*
Y6431D01*
X110905Y6365D01*
X110898Y6291D01*
X110890Y6202D01*
X110876Y6098D01*
X110846Y6002D01*
X110816Y5906D01*
X110809Y5891D01*
X110802Y5862D01*
X110779Y5817D01*
X110750Y5758D01*
X110713Y5684D01*
X110668Y5618D01*
X110617Y5544D01*
X110557Y5477D01*
X110550Y5469D01*
X110528Y5447D01*
X110491Y5418D01*
X110446Y5381D01*
X110387Y5336D01*
X110321Y5292D01*
X110247Y5255D01*
X110158Y5218D01*
X110150Y5210D01*
X110121Y5203D01*
X110069Y5188D01*
X110010Y5173D01*
X109936Y5159D01*
X109847Y5144D01*
X109751Y5129D01*
X109647D01*
X109640D01*
X109610D01*
X109573D01*
X109521Y5136D01*
X109455Y5144D01*
X109388Y5159D01*
X109240Y5196D01*
X109233D01*
X109211Y5210D01*
X109166Y5225D01*
X109122Y5248D01*
X109063Y5270D01*
X108996Y5307D01*
X108855Y5388D01*
X108848Y5395D01*
X108826Y5410D01*
X108789Y5440D01*
X108737Y5469D01*
X108678Y5514D01*
X108619Y5566D01*
X108471Y5684D01*
X108463Y5692D01*
X108441Y5714D01*
X108397Y5751D01*
X108345Y5795D01*
X108286Y5854D01*
X108219Y5914D01*
X108064Y6061D01*
X107205Y6876D01*
Y4981D01*
X106547D01*
Y7926D01*
X107102D01*
X108604Y6528D01*
X108611Y6520D01*
X108633Y6498D01*
X108670Y6469D01*
X108707Y6431D01*
X108811Y6343D01*
X108922Y6254D01*
X108929Y6247D01*
X108944Y6232D01*
X108974Y6217D01*
X109011Y6187D01*
X109100Y6135D01*
X109188Y6076D01*
X109196D01*
X109211Y6061D01*
X109233Y6054D01*
X109262Y6032D01*
X109329Y6002D01*
X109410Y5973D01*
X109418D01*
X109425Y5965D01*
X109477Y5958D01*
X109544Y5951D01*
X109618Y5943D01*
X109625D01*
X109640D01*
X109669D01*
X109699Y5951D01*
X109780Y5958D01*
X109869Y5988D01*
X109877D01*
X109891Y5995D01*
X109936Y6017D01*
X110002Y6047D01*
X110062Y6098D01*
X110069D01*
X110076Y6113D01*
X110106Y6150D01*
X110143Y6210D01*
X110180Y6284D01*
Y6291D01*
X110187Y6298D01*
X110195Y6320D01*
X110202Y6350D01*
X110217Y6424D01*
X110224Y6513D01*
Y6572D01*
X110217Y6631D01*
X110202Y6705D01*
X110180Y6787D01*
X110143Y6868D01*
X110099Y6949D01*
X110032Y7023D01*
X110025Y7031D01*
X109995Y7046D01*
X109958Y7075D01*
X109899Y7105D01*
X109825Y7135D01*
X109736Y7164D01*
X109625Y7179D01*
X109507Y7186D01*
Y8008D01*
X109521D01*
X109558D01*
X109610Y8000D01*
D02*
G37*
G36*
X199157Y51676D02*
X199231Y51668D01*
X199320Y51661D01*
X199424Y51646D01*
X199520Y51616D01*
X199616Y51587D01*
X199631Y51579D01*
X199661Y51572D01*
X199705Y51550D01*
X199764Y51520D01*
X199838Y51483D01*
X199905Y51439D01*
X199979Y51387D01*
X200045Y51328D01*
X200053Y51320D01*
X200075Y51298D01*
X200105Y51261D01*
X200142Y51217D01*
X200186Y51158D01*
X200230Y51091D01*
X200267Y51017D01*
X200304Y50928D01*
X200312Y50921D01*
X200319Y50891D01*
X200334Y50839D01*
X200349Y50780D01*
X200364Y50706D01*
X200378Y50617D01*
X200393Y50521D01*
Y50418D01*
Y50410D01*
Y50381D01*
Y50344D01*
X200386Y50292D01*
X200378Y50225D01*
X200364Y50159D01*
X200327Y50011D01*
Y50003D01*
X200312Y49981D01*
X200297Y49937D01*
X200275Y49892D01*
X200253Y49833D01*
X200216Y49766D01*
X200134Y49626D01*
X200127Y49618D01*
X200112Y49596D01*
X200082Y49559D01*
X200053Y49507D01*
X200008Y49448D01*
X199957Y49389D01*
X199838Y49241D01*
X199831Y49234D01*
X199809Y49211D01*
X199772Y49167D01*
X199727Y49115D01*
X199668Y49056D01*
X199609Y48989D01*
X199461Y48834D01*
X198647Y47976D01*
X200541D01*
Y47317D01*
X197596D01*
Y47872D01*
X198995Y49374D01*
X199002Y49382D01*
X199024Y49404D01*
X199054Y49441D01*
X199091Y49478D01*
X199180Y49581D01*
X199268Y49692D01*
X199276Y49700D01*
X199291Y49715D01*
X199305Y49744D01*
X199335Y49781D01*
X199387Y49870D01*
X199446Y49959D01*
Y49966D01*
X199461Y49981D01*
X199468Y50003D01*
X199490Y50033D01*
X199520Y50099D01*
X199550Y50181D01*
Y50188D01*
X199557Y50196D01*
X199564Y50247D01*
X199572Y50314D01*
X199579Y50388D01*
Y50395D01*
Y50410D01*
Y50440D01*
X199572Y50469D01*
X199564Y50551D01*
X199535Y50640D01*
Y50647D01*
X199527Y50662D01*
X199505Y50706D01*
X199476Y50773D01*
X199424Y50832D01*
Y50839D01*
X199409Y50847D01*
X199372Y50876D01*
X199313Y50913D01*
X199239Y50950D01*
X199231D01*
X199224Y50958D01*
X199202Y50965D01*
X199172Y50973D01*
X199098Y50987D01*
X199009Y50995D01*
X198950D01*
X198891Y50987D01*
X198817Y50973D01*
X198736Y50950D01*
X198654Y50913D01*
X198573Y50869D01*
X198499Y50802D01*
X198491Y50795D01*
X198477Y50765D01*
X198447Y50728D01*
X198417Y50669D01*
X198388Y50595D01*
X198358Y50506D01*
X198343Y50395D01*
X198336Y50277D01*
X197515D01*
Y50292D01*
Y50329D01*
X197522Y50381D01*
X197529Y50455D01*
X197537Y50536D01*
X197559Y50625D01*
X197581Y50721D01*
X197618Y50817D01*
X197626Y50832D01*
X197640Y50862D01*
X197663Y50906D01*
X197700Y50973D01*
X197744Y51039D01*
X197796Y51121D01*
X197855Y51195D01*
X197929Y51269D01*
X197936Y51276D01*
X197966Y51298D01*
X198010Y51335D01*
X198062Y51380D01*
X198136Y51424D01*
X198218Y51476D01*
X198306Y51528D01*
X198410Y51572D01*
X198425Y51579D01*
X198462Y51587D01*
X198521Y51609D01*
X198595Y51631D01*
X198684Y51646D01*
X198795Y51668D01*
X198913Y51676D01*
X199039Y51683D01*
X199091D01*
X199157Y51676D01*
D02*
G37*
G36*
X195628Y51616D02*
X195716D01*
X195813Y51602D01*
X195924Y51587D01*
X196035Y51565D01*
X196146Y51535D01*
X196160D01*
X196197Y51520D01*
X196249Y51498D01*
X196316Y51476D01*
X196397Y51439D01*
X196479Y51394D01*
X196560Y51350D01*
X196641Y51291D01*
X196649Y51283D01*
X196678Y51261D01*
X196715Y51224D01*
X196760Y51180D01*
X196812Y51121D01*
X196863Y51054D01*
X196915Y50973D01*
X196960Y50884D01*
X196967Y50876D01*
X196974Y50839D01*
X196997Y50788D01*
X197019Y50721D01*
X197034Y50640D01*
X197056Y50543D01*
X197063Y50440D01*
X197071Y50321D01*
Y50314D01*
Y50284D01*
Y50240D01*
X197063Y50181D01*
X197056Y50122D01*
X197048Y50048D01*
X197019Y49907D01*
Y49900D01*
X197011Y49877D01*
X196997Y49840D01*
X196982Y49796D01*
X196930Y49692D01*
X196863Y49574D01*
X196856Y49567D01*
X196849Y49552D01*
X196826Y49522D01*
X196797Y49485D01*
X196715Y49404D01*
X196612Y49315D01*
X196604Y49308D01*
X196590Y49300D01*
X196560Y49278D01*
X196523Y49256D01*
X196471Y49226D01*
X196419Y49197D01*
X196294Y49130D01*
X197219Y47354D01*
Y47317D01*
X196331D01*
X195517Y48923D01*
X194888D01*
Y47317D01*
X194059D01*
Y51624D01*
X195561D01*
X195628Y51616D01*
D02*
G37*
G36*
X152453Y10843D02*
X152446Y10776D01*
Y10687D01*
X152431Y10591D01*
X152416Y10480D01*
X152394Y10369D01*
X152365Y10258D01*
Y10243D01*
X152350Y10206D01*
X152328Y10154D01*
X152305Y10088D01*
X152268Y10007D01*
X152224Y9925D01*
X152180Y9844D01*
X152120Y9762D01*
X152113Y9755D01*
X152091Y9725D01*
X152054Y9688D01*
X152009Y9644D01*
X151950Y9592D01*
X151884Y9540D01*
X151802Y9488D01*
X151713Y9444D01*
X151706Y9437D01*
X151669Y9429D01*
X151617Y9407D01*
X151551Y9385D01*
X151469Y9370D01*
X151373Y9348D01*
X151269Y9341D01*
X151151Y9333D01*
X151144D01*
X151114D01*
X151070D01*
X151010Y9341D01*
X150951Y9348D01*
X150877Y9355D01*
X150737Y9385D01*
X150729D01*
X150707Y9392D01*
X150670Y9407D01*
X150626Y9422D01*
X150522Y9474D01*
X150404Y9540D01*
X150396Y9548D01*
X150381Y9555D01*
X150352Y9577D01*
X150315Y9607D01*
X150233Y9688D01*
X150145Y9792D01*
X150137Y9799D01*
X150130Y9814D01*
X150108Y9844D01*
X150085Y9881D01*
X150056Y9933D01*
X150026Y9984D01*
X149960Y10110D01*
X148184Y9185D01*
X148147D01*
Y10073D01*
X149752Y10887D01*
Y11516D01*
X148147D01*
Y12345D01*
X152453D01*
Y10843D01*
D02*
G37*
G36*
X149316Y7994D02*
X149308D01*
X149294D01*
X149271D01*
X149242Y7986D01*
X149168Y7971D01*
X149086Y7949D01*
X149079D01*
X149072Y7942D01*
X149027Y7912D01*
X148968Y7868D01*
X148901Y7816D01*
Y7809D01*
X148887Y7801D01*
X148857Y7757D01*
X148820Y7690D01*
X148783Y7609D01*
Y7602D01*
X148776Y7587D01*
X148768Y7564D01*
Y7527D01*
X148753Y7446D01*
X148746Y7343D01*
Y7291D01*
X148753Y7231D01*
X148768Y7165D01*
X148783Y7084D01*
X148813Y7002D01*
X148857Y6928D01*
X148909Y6854D01*
X148916Y6847D01*
X148938Y6825D01*
X148975Y6795D01*
X149027Y6765D01*
X149094Y6736D01*
X149168Y6706D01*
X149257Y6684D01*
X149360Y6677D01*
X149368D01*
X149390D01*
X149419D01*
X149464Y6684D01*
X149560Y6699D01*
X149656Y6728D01*
X149664D01*
X149678Y6736D01*
X149701Y6751D01*
X149730Y6765D01*
X149797Y6810D01*
X149863Y6876D01*
X149871Y6884D01*
X149878Y6891D01*
X149893Y6913D01*
X149908Y6943D01*
X149945Y7017D01*
X149982Y7106D01*
Y7113D01*
X149989Y7128D01*
X149997Y7158D01*
X150004Y7194D01*
Y7239D01*
X150011Y7291D01*
X150019Y7409D01*
Y7853D01*
X150655D01*
Y7350D01*
X150663Y7291D01*
X150677Y7217D01*
X150700Y7135D01*
X150729Y7054D01*
X150766Y6972D01*
X150825Y6906D01*
X150833Y6899D01*
X150855Y6884D01*
X150892Y6854D01*
X150944Y6825D01*
X151010Y6795D01*
X151084Y6765D01*
X151181Y6751D01*
X151277Y6743D01*
X151284D01*
X151299D01*
X151321D01*
X151351Y6751D01*
X151425Y6758D01*
X151506Y6780D01*
X151514D01*
X151521Y6787D01*
X151565Y6810D01*
X151625Y6839D01*
X151684Y6891D01*
X151691D01*
X151699Y6906D01*
X151728Y6943D01*
X151765Y7002D01*
X151802Y7084D01*
Y7091D01*
X151810Y7106D01*
X151817Y7128D01*
X151824Y7158D01*
X151839Y7239D01*
X151847Y7343D01*
Y7387D01*
X151839Y7417D01*
X151832Y7498D01*
X151810Y7579D01*
Y7587D01*
X151802Y7594D01*
X151780Y7638D01*
X151750Y7698D01*
X151706Y7764D01*
X151691Y7779D01*
X151662Y7809D01*
X151610Y7853D01*
X151543Y7897D01*
X151536D01*
X151528Y7905D01*
X151484Y7920D01*
X151417Y7935D01*
X151336Y7942D01*
Y8763D01*
X151351D01*
X151380D01*
X151432Y8756D01*
X151491Y8749D01*
X151565Y8741D01*
X151647Y8719D01*
X151728Y8697D01*
X151810Y8660D01*
X151817Y8652D01*
X151847Y8637D01*
X151891Y8615D01*
X151943Y8578D01*
X152002Y8541D01*
X152061Y8489D01*
X152128Y8430D01*
X152187Y8364D01*
X152194Y8356D01*
X152209Y8327D01*
X152239Y8290D01*
X152276Y8238D01*
X152313Y8171D01*
X152350Y8097D01*
X152387Y8009D01*
X152424Y7920D01*
X152431Y7905D01*
X152439Y7875D01*
X152453Y7824D01*
X152468Y7750D01*
X152483Y7668D01*
X152498Y7579D01*
X152513Y7476D01*
Y7313D01*
X152505Y7246D01*
Y7172D01*
X152490Y7084D01*
X152476Y6980D01*
X152461Y6884D01*
X152431Y6780D01*
Y6765D01*
X152416Y6736D01*
X152402Y6684D01*
X152372Y6625D01*
X152342Y6551D01*
X152305Y6477D01*
X152254Y6395D01*
X152202Y6321D01*
X152194Y6314D01*
X152172Y6292D01*
X152143Y6255D01*
X152098Y6210D01*
X152039Y6166D01*
X151972Y6114D01*
X151898Y6070D01*
X151817Y6025D01*
X151810Y6018D01*
X151780Y6010D01*
X151728Y5996D01*
X151662Y5974D01*
X151588Y5951D01*
X151499Y5937D01*
X151395Y5929D01*
X151284Y5922D01*
X151277D01*
X151262D01*
X151232D01*
X151195Y5929D01*
X151107Y5937D01*
X151010Y5966D01*
X151003D01*
X150988Y5974D01*
X150959Y5981D01*
X150929Y5996D01*
X150848Y6033D01*
X150751Y6084D01*
X150744D01*
X150729Y6099D01*
X150707Y6114D01*
X150677Y6136D01*
X150611Y6203D01*
X150529Y6284D01*
X150522Y6292D01*
X150515Y6306D01*
X150492Y6329D01*
X150470Y6366D01*
X150411Y6447D01*
X150352Y6558D01*
Y6551D01*
X150337Y6528D01*
X150322Y6492D01*
X150307Y6447D01*
X150256Y6351D01*
X150182Y6247D01*
X150174Y6240D01*
X150167Y6225D01*
X150145Y6203D01*
X150115Y6166D01*
X150041Y6099D01*
X149952Y6025D01*
X149945Y6018D01*
X149930Y6010D01*
X149908Y5996D01*
X149871Y5974D01*
X149782Y5937D01*
X149671Y5900D01*
X149664D01*
X149649Y5892D01*
X149612Y5885D01*
X149575Y5877D01*
X149530Y5870D01*
X149471Y5863D01*
X149353Y5855D01*
X149338D01*
X149301D01*
X149242Y5863D01*
X149175Y5870D01*
X149086Y5885D01*
X148998Y5907D01*
X148901Y5937D01*
X148813Y5974D01*
X148805Y5981D01*
X148776Y5996D01*
X148731Y6018D01*
X148672Y6055D01*
X148613Y6099D01*
X148546Y6151D01*
X148480Y6218D01*
X148413Y6292D01*
X148406Y6299D01*
X148383Y6329D01*
X148354Y6373D01*
X148324Y6425D01*
X148280Y6499D01*
X148243Y6580D01*
X148206Y6669D01*
X148169Y6773D01*
Y6787D01*
X148154Y6817D01*
X148147Y6876D01*
X148132Y6950D01*
X148117Y7039D01*
X148102Y7135D01*
X148095Y7246D01*
X148087Y7365D01*
Y7409D01*
X148095Y7468D01*
Y7535D01*
X148102Y7616D01*
X148117Y7705D01*
X148161Y7905D01*
X148169Y7920D01*
X148176Y7949D01*
X148191Y8001D01*
X148221Y8060D01*
X148250Y8134D01*
X148287Y8208D01*
X148383Y8371D01*
X148391Y8378D01*
X148413Y8401D01*
X148443Y8438D01*
X148487Y8489D01*
X148546Y8541D01*
X148613Y8593D01*
X148687Y8645D01*
X148768Y8697D01*
X148776Y8704D01*
X148813Y8711D01*
X148857Y8734D01*
X148924Y8756D01*
X149005Y8778D01*
X149094Y8793D01*
X149205Y8808D01*
X149316Y8815D01*
Y7994D01*
D02*
G37*
G36*
X222586Y60145D02*
X223082D01*
Y59479D01*
X222586D01*
Y58547D01*
X221757D01*
Y59479D01*
X219974D01*
X219937Y59990D01*
X221750Y62853D01*
X222586D01*
Y60145D01*
D02*
G37*
G36*
X218087Y62846D02*
X218176D01*
X218272Y62831D01*
X218383Y62816D01*
X218494Y62794D01*
X218605Y62765D01*
X218620D01*
X218657Y62750D01*
X218708Y62728D01*
X218775Y62705D01*
X218857Y62668D01*
X218938Y62624D01*
X219019Y62580D01*
X219101Y62520D01*
X219108Y62513D01*
X219138Y62491D01*
X219175Y62454D01*
X219219Y62409D01*
X219271Y62350D01*
X219323Y62284D01*
X219374Y62202D01*
X219419Y62113D01*
X219426Y62106D01*
X219434Y62069D01*
X219456Y62017D01*
X219478Y61951D01*
X219493Y61869D01*
X219515Y61773D01*
X219523Y61669D01*
X219530Y61551D01*
Y61544D01*
Y61514D01*
Y61470D01*
X219523Y61410D01*
X219515Y61351D01*
X219508Y61277D01*
X219478Y61137D01*
Y61129D01*
X219471Y61107D01*
X219456Y61070D01*
X219441Y61026D01*
X219389Y60922D01*
X219323Y60804D01*
X219315Y60796D01*
X219308Y60781D01*
X219286Y60752D01*
X219256Y60715D01*
X219175Y60633D01*
X219071Y60545D01*
X219064Y60537D01*
X219049Y60530D01*
X219019Y60508D01*
X218982Y60485D01*
X218931Y60456D01*
X218879Y60426D01*
X218753Y60360D01*
X219678Y58584D01*
Y58547D01*
X218790D01*
X217976Y60152D01*
X217347D01*
Y58547D01*
X216518D01*
Y62853D01*
X218020D01*
X218087Y62846D01*
D02*
G37*
%LPC*%
G36*
X21835Y77119D02*
X20705D01*
Y74686D01*
X19025D01*
Y77119D01*
X17895D01*
Y71194D01*
X19025D01*
Y73760D01*
X20705D01*
Y71194D01*
X21835D01*
Y77119D01*
D02*
G37*
G36*
X17447D02*
X16042D01*
X14607Y75124D01*
X14067Y74401D01*
Y77119D01*
X12917D01*
Y71194D01*
X14067D01*
Y72935D01*
X14688Y73627D01*
X16154Y71194D01*
X17518D01*
X15452Y74493D01*
X17447Y77119D01*
D02*
G37*
G36*
X24532D02*
X22893D01*
Y71194D01*
X24491D01*
X24695Y71205D01*
X24889Y71225D01*
X25062Y71255D01*
X25214Y71296D01*
X25347Y71327D01*
X25438Y71357D01*
X25499Y71378D01*
X25520Y71388D01*
X25693Y71469D01*
X25845Y71561D01*
X25978Y71653D01*
X26100Y71744D01*
X26192Y71826D01*
X26263Y71887D01*
X26314Y71927D01*
X26324Y71948D01*
X26446Y72090D01*
X26548Y72233D01*
X26640Y72375D01*
X26711Y72508D01*
X26772Y72630D01*
X26812Y72721D01*
X26833Y72782D01*
X26843Y72793D01*
Y72803D01*
X26904Y72996D01*
X26945Y73190D01*
X26986Y73373D01*
X27006Y73536D01*
X27016Y73689D01*
X27026Y73800D01*
Y74391D01*
X27016Y74615D01*
X26996Y74818D01*
X26965Y75002D01*
X26935Y75165D01*
X26904Y75297D01*
X26874Y75399D01*
X26863Y75440D01*
X26853Y75470D01*
X26843Y75480D01*
Y75490D01*
X26772Y75674D01*
X26680Y75836D01*
X26599Y75979D01*
X26507Y76101D01*
X26436Y76203D01*
X26375Y76284D01*
X26334Y76325D01*
X26314Y76345D01*
X26181Y76478D01*
X26049Y76590D01*
X25907Y76692D01*
X25784Y76773D01*
X25672Y76834D01*
X25581Y76875D01*
X25520Y76905D01*
X25510Y76916D01*
X25499D01*
X25316Y76987D01*
X25133Y77038D01*
X24950Y77068D01*
X24787Y77099D01*
X24644Y77109D01*
X24532Y77119D01*
D02*
G37*
G36*
X29006Y69928D02*
X28945D01*
X26370Y68992D01*
Y68004D01*
X27866Y68544D01*
Y64003D01*
X29006D01*
Y69928D01*
D02*
G37*
G36*
X23122Y70009D02*
X23051D01*
X22878Y69999D01*
X22715Y69989D01*
X22562Y69959D01*
X22440Y69938D01*
X22338Y69908D01*
X22257Y69877D01*
X22206Y69867D01*
X22186Y69857D01*
X22043Y69796D01*
X21921Y69724D01*
X21809Y69653D01*
X21707Y69592D01*
X21636Y69531D01*
X21575Y69480D01*
X21534Y69450D01*
X21524Y69439D01*
X21422Y69338D01*
X21341Y69236D01*
X21270Y69124D01*
X21208Y69032D01*
X21158Y68941D01*
X21127Y68879D01*
X21107Y68839D01*
X21096Y68818D01*
X21046Y68686D01*
X21015Y68554D01*
X20985Y68432D01*
X20974Y68320D01*
X20964Y68218D01*
X20954Y68147D01*
Y68075D01*
X22084D01*
X22094Y68238D01*
X22115Y68391D01*
X22155Y68513D01*
X22196Y68615D01*
X22237Y68696D01*
X22277Y68747D01*
X22298Y68788D01*
X22308Y68798D01*
X22410Y68890D01*
X22522Y68951D01*
X22634Y69002D01*
X22746Y69032D01*
X22847Y69052D01*
X22929Y69063D01*
X23010D01*
X23133Y69052D01*
X23234Y69032D01*
X23275Y69022D01*
X23305Y69012D01*
X23316Y69002D01*
X23326D01*
X23428Y68951D01*
X23509Y68900D01*
X23560Y68859D01*
X23580Y68849D01*
Y68839D01*
X23652Y68757D01*
X23692Y68666D01*
X23723Y68605D01*
X23733Y68584D01*
Y68574D01*
X23774Y68452D01*
X23784Y68340D01*
X23794Y68299D01*
Y68259D01*
Y68238D01*
Y68228D01*
X23784Y68126D01*
X23774Y68035D01*
X23764Y67963D01*
X23753Y67953D01*
Y67943D01*
X23713Y67831D01*
X23672Y67739D01*
X23641Y67699D01*
X23631Y67668D01*
X23611Y67648D01*
Y67637D01*
X23529Y67515D01*
X23458Y67393D01*
X23417Y67342D01*
X23397Y67302D01*
X23377Y67281D01*
X23367Y67271D01*
X23245Y67118D01*
X23122Y66976D01*
X23071Y66925D01*
X23031Y66874D01*
X23000Y66843D01*
X22990Y66833D01*
X21066Y64767D01*
Y64003D01*
X25118D01*
Y64909D01*
X22512D01*
X23631Y66090D01*
X23835Y66304D01*
X23916Y66396D01*
X23998Y66477D01*
X24059Y66548D01*
X24110Y66609D01*
X24140Y66640D01*
X24150Y66650D01*
X24313Y66854D01*
X24385Y66935D01*
X24446Y67017D01*
X24486Y67088D01*
X24527Y67139D01*
X24547Y67169D01*
X24558Y67179D01*
X24670Y67373D01*
X24721Y67465D01*
X24751Y67546D01*
X24782Y67607D01*
X24802Y67668D01*
X24822Y67699D01*
Y67709D01*
X24873Y67912D01*
X24894Y68004D01*
X24904Y68096D01*
X24914Y68167D01*
Y68218D01*
Y68259D01*
Y68269D01*
Y68411D01*
X24894Y68544D01*
X24873Y68666D01*
X24853Y68767D01*
X24833Y68849D01*
X24812Y68920D01*
X24802Y68961D01*
X24792Y68971D01*
X24741Y69093D01*
X24690Y69195D01*
X24629Y69287D01*
X24568Y69368D01*
X24517Y69429D01*
X24476Y69480D01*
X24446Y69511D01*
X24435Y69521D01*
X24344Y69602D01*
X24242Y69674D01*
X24150Y69735D01*
X24049Y69785D01*
X23967Y69826D01*
X23906Y69857D01*
X23865Y69867D01*
X23845Y69877D01*
X23713Y69918D01*
X23580Y69959D01*
X23438Y69979D01*
X23316Y69989D01*
X23214Y69999D01*
X23122Y70009D01*
D02*
G37*
G36*
X13126D02*
X13054D01*
X12881Y69999D01*
X12718Y69989D01*
X12566Y69959D01*
X12444Y69938D01*
X12342Y69908D01*
X12260Y69877D01*
X12209Y69867D01*
X12189Y69857D01*
X12047Y69796D01*
X11924Y69724D01*
X11812Y69653D01*
X11710Y69592D01*
X11639Y69531D01*
X11578Y69480D01*
X11537Y69450D01*
X11527Y69439D01*
X11426Y69338D01*
X11344Y69236D01*
X11273Y69124D01*
X11212Y69032D01*
X11161Y68941D01*
X11130Y68879D01*
X11110Y68839D01*
X11100Y68818D01*
X11049Y68686D01*
X11018Y68554D01*
X10988Y68432D01*
X10977Y68320D01*
X10967Y68218D01*
X10957Y68147D01*
Y68075D01*
X12087D01*
X12097Y68238D01*
X12118Y68391D01*
X12158Y68513D01*
X12199Y68615D01*
X12240Y68696D01*
X12281Y68747D01*
X12301Y68788D01*
X12311Y68798D01*
X12413Y68890D01*
X12525Y68951D01*
X12637Y69002D01*
X12749Y69032D01*
X12851Y69052D01*
X12932Y69063D01*
X13014D01*
X13136Y69052D01*
X13238Y69032D01*
X13278Y69022D01*
X13309Y69012D01*
X13319Y69002D01*
X13329D01*
X13431Y68951D01*
X13512Y68900D01*
X13563Y68859D01*
X13584Y68849D01*
Y68839D01*
X13655Y68757D01*
X13696Y68666D01*
X13726Y68605D01*
X13736Y68584D01*
Y68574D01*
X13777Y68452D01*
X13787Y68340D01*
X13797Y68299D01*
Y68259D01*
Y68238D01*
Y68228D01*
X13787Y68126D01*
X13777Y68035D01*
X13767Y67963D01*
X13757Y67953D01*
Y67943D01*
X13716Y67831D01*
X13675Y67739D01*
X13645Y67699D01*
X13634Y67668D01*
X13614Y67648D01*
Y67637D01*
X13533Y67515D01*
X13462Y67393D01*
X13421Y67342D01*
X13400Y67302D01*
X13380Y67281D01*
X13370Y67271D01*
X13248Y67118D01*
X13126Y66976D01*
X13075Y66925D01*
X13034Y66874D01*
X13003Y66843D01*
X12993Y66833D01*
X11069Y64767D01*
Y64003D01*
X15121D01*
Y64909D01*
X12515D01*
X13634Y66090D01*
X13838Y66304D01*
X13920Y66396D01*
X14001Y66477D01*
X14062Y66548D01*
X14113Y66609D01*
X14143Y66640D01*
X14154Y66650D01*
X14317Y66854D01*
X14388Y66935D01*
X14449Y67017D01*
X14490Y67088D01*
X14530Y67139D01*
X14551Y67169D01*
X14561Y67179D01*
X14673Y67373D01*
X14724Y67465D01*
X14754Y67546D01*
X14785Y67607D01*
X14805Y67668D01*
X14826Y67699D01*
Y67709D01*
X14876Y67912D01*
X14897Y68004D01*
X14907Y68096D01*
X14917Y68167D01*
Y68218D01*
Y68259D01*
Y68269D01*
Y68411D01*
X14897Y68544D01*
X14876Y68666D01*
X14856Y68767D01*
X14836Y68849D01*
X14815Y68920D01*
X14805Y68961D01*
X14795Y68971D01*
X14744Y69093D01*
X14693Y69195D01*
X14632Y69287D01*
X14571Y69368D01*
X14520Y69429D01*
X14480Y69480D01*
X14449Y69511D01*
X14439Y69521D01*
X14347Y69602D01*
X14245Y69674D01*
X14154Y69735D01*
X14052Y69785D01*
X13971Y69826D01*
X13909Y69857D01*
X13869Y69867D01*
X13848Y69877D01*
X13716Y69918D01*
X13584Y69959D01*
X13441Y69979D01*
X13319Y69989D01*
X13217Y69999D01*
X13126Y70009D01*
D02*
G37*
G36*
X18236D02*
X18165D01*
X18002Y69999D01*
X17849Y69989D01*
X17717Y69959D01*
X17595Y69938D01*
X17493Y69908D01*
X17422Y69877D01*
X17381Y69867D01*
X17360Y69857D01*
X17228Y69796D01*
X17116Y69724D01*
X17014Y69653D01*
X16923Y69582D01*
X16851Y69521D01*
X16790Y69470D01*
X16760Y69429D01*
X16750Y69419D01*
X16668Y69307D01*
X16587Y69185D01*
X16526Y69063D01*
X16475Y68941D01*
X16424Y68839D01*
X16393Y68757D01*
X16383Y68706D01*
X16373Y68696D01*
Y68686D01*
X16332Y68513D01*
X16302Y68340D01*
X16271Y68167D01*
X16261Y68014D01*
X16251Y67872D01*
X16241Y67770D01*
Y66253D01*
X16251Y66049D01*
X16261Y65856D01*
X16281Y65683D01*
X16312Y65540D01*
X16332Y65418D01*
X16353Y65327D01*
X16363Y65266D01*
X16373Y65255D01*
Y65245D01*
X16434Y65092D01*
X16495Y64950D01*
X16556Y64818D01*
X16617Y64716D01*
X16678Y64624D01*
X16719Y64563D01*
X16750Y64522D01*
X16760Y64512D01*
X16862Y64411D01*
X16963Y64319D01*
X17065Y64237D01*
X17157Y64176D01*
X17248Y64125D01*
X17310Y64095D01*
X17350Y64074D01*
X17371Y64064D01*
X17503Y64013D01*
X17645Y63983D01*
X17778Y63952D01*
X17910Y63942D01*
X18012Y63932D01*
X18104Y63922D01*
X18175D01*
X18338Y63932D01*
X18490Y63942D01*
X18623Y63963D01*
X18745Y63993D01*
X18847Y64024D01*
X18918Y64044D01*
X18959Y64054D01*
X18979Y64064D01*
X19111Y64125D01*
X19223Y64197D01*
X19325Y64278D01*
X19417Y64349D01*
X19488Y64411D01*
X19539Y64461D01*
X19569Y64502D01*
X19580Y64512D01*
X19671Y64624D01*
X19753Y64757D01*
X19814Y64879D01*
X19865Y64991D01*
X19916Y65092D01*
X19946Y65174D01*
X19956Y65225D01*
X19966Y65245D01*
X20007Y65418D01*
X20048Y65591D01*
X20068Y65754D01*
X20078Y65917D01*
X20089Y66049D01*
X20099Y66161D01*
Y67668D01*
X20089Y67882D01*
X20078Y68075D01*
X20058Y68248D01*
X20038Y68391D01*
X20007Y68513D01*
X19987Y68605D01*
X19977Y68666D01*
X19966Y68686D01*
X19916Y68839D01*
X19854Y68981D01*
X19783Y69114D01*
X19722Y69215D01*
X19671Y69307D01*
X19620Y69368D01*
X19590Y69409D01*
X19580Y69419D01*
X19478Y69521D01*
X19376Y69612D01*
X19274Y69684D01*
X19183Y69745D01*
X19091Y69796D01*
X19030Y69826D01*
X18989Y69847D01*
X18969Y69857D01*
X18836Y69908D01*
X18694Y69948D01*
X18562Y69969D01*
X18429Y69989D01*
X18327Y69999D01*
X18236Y70009D01*
D02*
G37*
%LPD*%
G36*
X24563Y76183D02*
X24675Y76172D01*
X24787Y76152D01*
X24878Y76132D01*
X24950Y76101D01*
X25001Y76081D01*
X25041Y76071D01*
X25051Y76060D01*
X25235Y75949D01*
X25306Y75887D01*
X25377Y75826D01*
X25428Y75775D01*
X25469Y75735D01*
X25489Y75704D01*
X25499Y75694D01*
X25622Y75511D01*
X25662Y75409D01*
X25703Y75317D01*
X25734Y75246D01*
X25754Y75185D01*
X25774Y75134D01*
Y75124D01*
X25825Y74869D01*
X25845Y74757D01*
X25856Y74645D01*
X25866Y74544D01*
Y74472D01*
Y74422D01*
Y74401D01*
Y73902D01*
Y73750D01*
X25845Y73607D01*
X25835Y73485D01*
X25815Y73373D01*
X25795Y73281D01*
X25784Y73210D01*
X25764Y73169D01*
Y73149D01*
X25723Y73027D01*
X25683Y72915D01*
X25642Y72823D01*
X25591Y72742D01*
X25550Y72671D01*
X25520Y72620D01*
X25499Y72589D01*
X25489Y72579D01*
X25347Y72426D01*
X25275Y72375D01*
X25214Y72324D01*
X25153Y72284D01*
X25102Y72253D01*
X25072Y72243D01*
X25062Y72233D01*
X24960Y72192D01*
X24868Y72162D01*
X24766Y72141D01*
X24685Y72131D01*
X24603Y72121D01*
X24542Y72111D01*
X24054D01*
Y76193D01*
X24430D01*
X24563Y76183D01*
D02*
G37*
G36*
X18297Y69083D02*
X18419Y69052D01*
X18521Y69002D01*
X18602Y68951D01*
X18664Y68890D01*
X18704Y68849D01*
X18735Y68808D01*
X18745Y68798D01*
X18816Y68676D01*
X18867Y68544D01*
X18898Y68401D01*
X18928Y68259D01*
X18948Y68126D01*
X18959Y68024D01*
Y67984D01*
Y67953D01*
Y67933D01*
Y67923D01*
X17381Y66742D01*
Y67851D01*
X17391Y68075D01*
X17411Y68269D01*
X17442Y68421D01*
X17483Y68554D01*
X17513Y68656D01*
X17544Y68727D01*
X17564Y68778D01*
X17574Y68788D01*
X17656Y68890D01*
X17747Y68961D01*
X17849Y69022D01*
X17941Y69052D01*
X18032Y69073D01*
X18104Y69093D01*
X18165D01*
X18297Y69083D01*
D02*
G37*
G36*
X18959Y66080D02*
X18948Y65856D01*
X18928Y65663D01*
X18898Y65500D01*
X18867Y65367D01*
X18826Y65266D01*
X18796Y65194D01*
X18775Y65143D01*
X18765Y65133D01*
X18684Y65031D01*
X18592Y64960D01*
X18490Y64899D01*
X18399Y64869D01*
X18307Y64848D01*
X18236Y64838D01*
X18195Y64828D01*
X18175D01*
X18043Y64838D01*
X17920Y64869D01*
X17819Y64920D01*
X17737Y64970D01*
X17676Y65011D01*
X17635Y65062D01*
X17605Y65092D01*
X17595Y65103D01*
X17534Y65225D01*
X17483Y65357D01*
X17442Y65510D01*
X17411Y65652D01*
X17401Y65775D01*
X17391Y65887D01*
X17381Y65917D01*
Y65948D01*
Y65968D01*
Y65978D01*
X18959Y67149D01*
Y66080D01*
D02*
G37*
%LPC*%
G36*
X156280Y49105D02*
X153313D01*
Y48750D01*
X153320Y48706D01*
X153327Y48647D01*
X153335Y48587D01*
X153350Y48513D01*
X153372Y48447D01*
X153401Y48373D01*
X153409Y48365D01*
X153416Y48343D01*
X153438Y48306D01*
X153468Y48262D01*
X153505Y48217D01*
X153542Y48166D01*
X153653Y48062D01*
X153660Y48055D01*
X153683Y48040D01*
X153720Y48018D01*
X153771Y47988D01*
X153831Y47951D01*
X153897Y47921D01*
X153979Y47892D01*
X154067Y47862D01*
X154082D01*
X154112Y47847D01*
X154164Y47840D01*
X154230Y47825D01*
X154312Y47810D01*
X154400Y47803D01*
X154504Y47788D01*
X154615D01*
X154978D01*
X154992D01*
X155029D01*
X155081D01*
X155155Y47796D01*
X155237Y47803D01*
X155318Y47818D01*
X155503Y47855D01*
X155510D01*
X155547Y47870D01*
X155592Y47884D01*
X155644Y47907D01*
X155710Y47936D01*
X155784Y47966D01*
X155917Y48055D01*
X155925Y48062D01*
X155947Y48077D01*
X155977Y48106D01*
X156014Y48143D01*
X156058Y48195D01*
X156102Y48247D01*
X156184Y48380D01*
X156191Y48388D01*
X156199Y48417D01*
X156213Y48454D01*
X156236Y48506D01*
X156250Y48573D01*
X156265Y48654D01*
X156273Y48735D01*
X156280Y48832D01*
Y49105D01*
D02*
G37*
G36*
X127553Y37872D02*
X127524D01*
X127479Y37865D01*
X127435Y37857D01*
X127324Y37835D01*
X127265Y37806D01*
X127213Y37776D01*
X127205Y37769D01*
X127191Y37761D01*
X127161Y37739D01*
X127131Y37709D01*
X127094Y37672D01*
X127057Y37635D01*
X126991Y37524D01*
Y37517D01*
X126976Y37495D01*
X126961Y37458D01*
X126946Y37413D01*
X126924Y37362D01*
X126909Y37295D01*
X126887Y37221D01*
X126872Y37140D01*
Y37132D01*
X126865Y37103D01*
X126858Y37058D01*
Y36999D01*
X126850Y36925D01*
X126843Y36844D01*
X126835Y36747D01*
Y36651D01*
Y35896D01*
Y35889D01*
Y35859D01*
Y35822D01*
X126843Y35771D01*
Y35711D01*
X126850Y35645D01*
X126872Y35504D01*
Y35497D01*
X126880Y35475D01*
X126887Y35438D01*
X126902Y35386D01*
X126939Y35275D01*
X126991Y35156D01*
X126998Y35149D01*
X127006Y35134D01*
X127028Y35105D01*
X127050Y35068D01*
X127117Y34986D01*
X127213Y34905D01*
X127220D01*
X127235Y34890D01*
X127265Y34875D01*
X127309Y34860D01*
X127361Y34846D01*
X127413Y34831D01*
X127479Y34823D01*
X127553Y34816D01*
X127590D01*
X127627Y34823D01*
X127672Y34831D01*
X127790Y34853D01*
X127849Y34875D01*
X127901Y34905D01*
X127908Y34912D01*
X127923Y34920D01*
X127953Y34942D01*
X127990Y34971D01*
X128064Y35053D01*
X128138Y35156D01*
X128145Y35164D01*
X128153Y35186D01*
X128167Y35216D01*
X128190Y35260D01*
X128212Y35312D01*
X128241Y35371D01*
X128278Y35504D01*
Y35512D01*
X128286Y35541D01*
X128293Y35578D01*
X128301Y35623D01*
X128308Y35682D01*
X128315Y35748D01*
X128323Y35896D01*
Y36651D01*
Y36666D01*
Y36696D01*
Y36747D01*
X128315Y36814D01*
Y36888D01*
X128308Y36969D01*
X128278Y37140D01*
Y37147D01*
X128271Y37177D01*
X128256Y37221D01*
X128241Y37273D01*
X128227Y37332D01*
X128197Y37399D01*
X128138Y37524D01*
X128130Y37532D01*
X128123Y37554D01*
X128101Y37584D01*
X128079Y37621D01*
X127997Y37702D01*
X127901Y37776D01*
X127894Y37783D01*
X127879Y37791D01*
X127849Y37806D01*
X127805Y37828D01*
X127753Y37843D01*
X127694Y37857D01*
X127627Y37865D01*
X127553Y37872D01*
D02*
G37*
G36*
X185205Y50980D02*
X184591D01*
Y49626D01*
X185264D01*
X185331Y49633D01*
X185405Y49648D01*
X185494Y49670D01*
X185590Y49700D01*
X185671Y49744D01*
X185753Y49803D01*
X185760Y49811D01*
X185782Y49840D01*
X185812Y49877D01*
X185849Y49937D01*
X185886Y50003D01*
X185916Y50092D01*
X185938Y50188D01*
X185945Y50299D01*
Y50307D01*
Y50314D01*
Y50351D01*
X185938Y50410D01*
X185923Y50484D01*
X185901Y50558D01*
X185864Y50640D01*
X185819Y50721D01*
X185753Y50795D01*
X185745Y50802D01*
X185716Y50825D01*
X185679Y50854D01*
X185612Y50891D01*
X185538Y50921D01*
X185442Y50950D01*
X185331Y50973D01*
X185205Y50980D01*
D02*
G37*
G36*
X179035Y26043D02*
X178961Y25903D01*
X178021Y24445D01*
X179035D01*
Y26043D01*
D02*
G37*
G36*
X195502Y50950D02*
X194888D01*
Y49596D01*
X195561D01*
X195628Y49604D01*
X195702Y49618D01*
X195790Y49641D01*
X195887Y49670D01*
X195968Y49715D01*
X196049Y49774D01*
X196057Y49781D01*
X196079Y49811D01*
X196109Y49848D01*
X196146Y49907D01*
X196183Y49974D01*
X196212Y50062D01*
X196234Y50159D01*
X196242Y50270D01*
Y50277D01*
Y50284D01*
Y50321D01*
X196234Y50381D01*
X196220Y50455D01*
X196197Y50529D01*
X196160Y50610D01*
X196116Y50691D01*
X196049Y50765D01*
X196042Y50773D01*
X196012Y50795D01*
X195975Y50825D01*
X195909Y50862D01*
X195835Y50891D01*
X195739Y50921D01*
X195628Y50943D01*
X195502Y50950D01*
D02*
G37*
G36*
X151780Y11516D02*
X150426D01*
Y10843D01*
X150433Y10776D01*
X150448Y10702D01*
X150470Y10613D01*
X150500Y10517D01*
X150544Y10436D01*
X150603Y10354D01*
X150611Y10347D01*
X150640Y10325D01*
X150677Y10295D01*
X150737Y10258D01*
X150803Y10221D01*
X150892Y10192D01*
X150988Y10169D01*
X151099Y10162D01*
X151107D01*
X151114D01*
X151151D01*
X151210Y10169D01*
X151284Y10184D01*
X151358Y10206D01*
X151440Y10243D01*
X151521Y10288D01*
X151595Y10354D01*
X151602Y10362D01*
X151625Y10391D01*
X151654Y10428D01*
X151691Y10495D01*
X151721Y10569D01*
X151750Y10665D01*
X151773Y10776D01*
X151780Y10902D01*
Y11516D01*
D02*
G37*
G36*
X221757Y61743D02*
X221683Y61603D01*
X220743Y60145D01*
X221757D01*
Y61743D01*
D02*
G37*
G36*
X217961Y62180D02*
X217347D01*
Y60826D01*
X218020D01*
X218087Y60833D01*
X218161Y60848D01*
X218250Y60870D01*
X218346Y60900D01*
X218427Y60944D01*
X218509Y61003D01*
X218516Y61011D01*
X218538Y61040D01*
X218568Y61077D01*
X218605Y61137D01*
X218642Y61203D01*
X218671Y61292D01*
X218694Y61388D01*
X218701Y61499D01*
Y61507D01*
Y61514D01*
Y61551D01*
X218694Y61610D01*
X218679Y61684D01*
X218657Y61758D01*
X218620Y61840D01*
X218575Y61921D01*
X218509Y61995D01*
X218501Y62002D01*
X218472Y62025D01*
X218435Y62054D01*
X218368Y62091D01*
X218294Y62121D01*
X218198Y62150D01*
X218087Y62173D01*
X217961Y62180D01*
D02*
G37*
%LPD*%
D10*
X118846Y31732D02*
G03*
X118846Y31732I-492J0D01*
G01*
X116642Y39173D02*
G03*
X116642Y39173I-492J0D01*
G01*
D11*
X128000Y26595D02*
G03*
X128000Y26595I-1181J0D01*
G01*
D12*
X57567Y26575D02*
X106780D01*
X57567Y63583D02*
Y75787D01*
X106780D01*
Y63583D02*
Y75787D01*
Y26575D02*
Y38780D01*
X57567Y26575D02*
Y38780D01*
X51181Y16043D02*
Y62697D01*
X47146Y16043D02*
X51181D01*
X47146Y62697D02*
X51181D01*
X0D02*
X16142D01*
X0Y16043D02*
Y62697D01*
Y16043D02*
X16142D01*
X28248D02*
X35236D01*
X28248Y62697D02*
X35236D01*
X146224Y54469D02*
Y75626D01*
X148800D01*
X146224Y54469D02*
X148800D01*
X161776Y54374D02*
Y75531D01*
X159200Y54374D02*
X161776D01*
X159200Y75531D02*
X161776D01*
X122882Y11240D02*
Y30532D01*
X135087Y11240D02*
Y30532D01*
X122882D02*
X135087D01*
X122882Y11240D02*
X135087D01*
X142409Y46654D02*
Y51181D01*
X116425Y46654D02*
X142409D01*
X116425D02*
Y51181D01*
X182311Y3863D02*
X197650D01*
X182311Y46206D02*
X191290D01*
X197650Y39846D01*
Y3863D02*
Y39846D01*
X156350Y3863D02*
X171689D01*
X162710Y46206D02*
X171689D01*
X156350Y39846D02*
X162710Y46206D01*
X156350Y3863D02*
Y39846D01*
D13*
X148508Y52402D02*
X159492D01*
D14*
X202252Y3315D02*
X237685D01*
X202252D02*
Y44653D01*
X237685D01*
Y3315D02*
Y44653D01*
X60134Y16953D02*
Y18724D01*
Y9276D02*
Y11047D01*
Y16953D01*
D15*
X178425Y52255D02*
X181575D01*
X178425Y59145D02*
X181575D01*
X128039Y8513D02*
X130008D01*
X128039Y3001D02*
X130008D01*
X105709Y17441D02*
Y19410D01*
X111221Y17441D02*
Y19410D01*
X196816Y58456D02*
X198784D01*
X196816Y52944D02*
X198784D01*
X153445Y20425D02*
Y23575D01*
X146555Y20425D02*
Y23575D01*
M02*
