G04*
G04 #@! TF.GenerationSoftware,Altium Limited,Altium Designer,21.6.1 (37)*
G04*
G04 Layer_Color=8421504*
%FSLAX25Y25*%
%MOIN*%
G70*
G04*
G04 #@! TF.SameCoordinates,EE309F7F-E528-4661-BA6D-D9C948015DE1*
G04*
G04*
G04 #@! TF.FilePolarity,Positive*
G04*
G01*
G75*
%ADD16R,0.15158X0.21654*%
%ADD17R,0.08583X0.06299*%
%ADD18R,0.05906X0.02362*%
%ADD19R,0.04173X0.10236*%
%ADD20R,0.22173X0.22835*%
%ADD21R,0.04331X0.06693*%
%ADD22R,0.10906X0.10039*%
%ADD23R,0.07874X0.14961*%
%ADD24R,0.04331X0.03937*%
%ADD25R,0.03937X0.04331*%
%ADD26R,0.06693X0.04331*%
D16*
X62587Y51181D02*
D03*
X101760D02*
D03*
D17*
X154000Y72228D02*
D03*
Y57758D02*
D03*
D18*
X118354Y28386D02*
D03*
Y23386D02*
D03*
Y18386D02*
D03*
Y13386D02*
D03*
X139614Y28386D02*
D03*
Y23386D02*
D03*
Y18386D02*
D03*
Y13386D02*
D03*
D19*
X138433Y39173D02*
D03*
X120402D02*
D03*
D20*
X129417Y64764D02*
D03*
D21*
X185315Y55700D02*
D03*
X174685D02*
D03*
D22*
X68323Y14000D02*
D03*
X93677D02*
D03*
D23*
X177000Y40945D02*
D03*
Y9055D02*
D03*
D24*
X125638Y5757D02*
D03*
X132331D02*
D03*
X194454Y55700D02*
D03*
X201147D02*
D03*
D25*
X108465Y15040D02*
D03*
Y21733D02*
D03*
D26*
X150000Y27315D02*
D03*
Y16685D02*
D03*
M02*
