G04*
G04 #@! TF.GenerationSoftware,Altium Limited,Altium Designer,21.6.1 (37)*
G04*
G04 Layer_Color=32896*
%FSLAX25Y25*%
%MOIN*%
G70*
G04*
G04 #@! TF.SameCoordinates,EE309F7F-E528-4661-BA6D-D9C948015DE1*
G04*
G04*
G04 #@! TF.FilePolarity,Positive*
G04*
G01*
G75*
G36*
X57328Y51805D02*
X57779D01*
Y51730D01*
X58079D01*
Y51655D01*
X58155D01*
Y51579D01*
X58380D01*
Y51504D01*
X58455D01*
Y51429D01*
X58606D01*
Y51354D01*
X58681D01*
Y51279D01*
X58831D01*
Y51128D01*
X58982D01*
Y51053D01*
X59057D01*
Y50978D01*
X59132D01*
Y50828D01*
X59207D01*
Y50753D01*
X59282D01*
Y50677D01*
X59358D01*
Y50527D01*
X59433D01*
Y50377D01*
X59508D01*
Y50226D01*
X59583D01*
Y50076D01*
X59658D01*
Y49850D01*
X59733D01*
Y49249D01*
X59808D01*
Y48873D01*
X59733D01*
Y48347D01*
X59658D01*
Y48121D01*
X59583D01*
Y47971D01*
X59508D01*
Y47745D01*
X59433D01*
Y47595D01*
X59358D01*
Y47520D01*
X59282D01*
Y47445D01*
X59207D01*
Y47370D01*
X59132D01*
Y47219D01*
X59057D01*
Y47144D01*
X58982D01*
Y47069D01*
X58906D01*
Y46994D01*
X58756D01*
Y46918D01*
X58681D01*
Y46843D01*
X58606D01*
Y46768D01*
X58530D01*
Y46693D01*
X58380D01*
Y46618D01*
X58230D01*
Y46543D01*
X58079D01*
Y46467D01*
X57854D01*
Y46392D01*
X57403D01*
Y46317D01*
X57177D01*
Y46242D01*
X57102D01*
Y40303D01*
X57328D01*
Y40228D01*
X57403D01*
Y40152D01*
X57553D01*
Y40077D01*
X57628D01*
Y39927D01*
X57704D01*
Y39701D01*
X57779D01*
Y39325D01*
X57704D01*
Y39100D01*
X57628D01*
Y38950D01*
X57553D01*
Y38875D01*
X57403D01*
Y38799D01*
X57177D01*
Y38724D01*
X57102D01*
Y38649D01*
X56877D01*
Y38724D01*
X56651D01*
Y38799D01*
X56501D01*
Y38875D01*
X56425D01*
Y38950D01*
X56350D01*
Y39025D01*
X56275D01*
Y39100D01*
X56200D01*
Y39927D01*
X56275D01*
Y40002D01*
X56350D01*
Y40077D01*
X56425D01*
Y40152D01*
X56501D01*
Y40228D01*
X56651D01*
Y40378D01*
X56726D01*
Y46091D01*
X56651D01*
Y46167D01*
X56726D01*
Y46242D01*
X56651D01*
Y46317D01*
X56576D01*
Y46392D01*
X56200D01*
Y46467D01*
X55975D01*
Y46543D01*
X55899D01*
Y46618D01*
X55749D01*
Y46693D01*
X55599D01*
Y46768D01*
X55448D01*
Y46843D01*
X55298D01*
Y46918D01*
X55223D01*
Y46994D01*
X55147D01*
Y47069D01*
X55072D01*
Y47144D01*
X54997D01*
Y47219D01*
X54922D01*
Y47294D01*
X54847D01*
Y47445D01*
X54772D01*
Y47520D01*
X54697D01*
Y47670D01*
X54621D01*
Y47821D01*
X54546D01*
Y47971D01*
X54471D01*
Y48121D01*
X54396D01*
Y48422D01*
X54321D01*
Y48948D01*
X54245D01*
Y49249D01*
X54321D01*
Y49775D01*
X54396D01*
Y50076D01*
X54471D01*
Y50226D01*
X54546D01*
Y50377D01*
X54621D01*
Y50527D01*
X54697D01*
Y50677D01*
X54772D01*
Y50753D01*
X54847D01*
Y50828D01*
X54922D01*
Y50903D01*
X54997D01*
Y51053D01*
X55147D01*
Y51128D01*
X55223D01*
Y51204D01*
X55298D01*
Y51279D01*
X55373D01*
Y51354D01*
X55448D01*
Y51429D01*
X55599D01*
Y51504D01*
X55749D01*
Y51579D01*
X55975D01*
Y51655D01*
X56050D01*
Y51730D01*
X56275D01*
Y51805D01*
X56651D01*
Y51880D01*
X57328D01*
Y51805D01*
D02*
G37*
G36*
X59282Y40754D02*
X59358D01*
Y40679D01*
X59433D01*
Y40528D01*
X59508D01*
Y40378D01*
X59583D01*
Y40228D01*
X59658D01*
Y40002D01*
X59733D01*
Y39476D01*
X59808D01*
Y39100D01*
X59733D01*
Y38499D01*
X59658D01*
Y38348D01*
X59583D01*
Y38123D01*
X59508D01*
Y37972D01*
X59433D01*
Y37822D01*
X59358D01*
Y37747D01*
X59282D01*
Y37596D01*
X59207D01*
Y37521D01*
X59132D01*
Y37446D01*
X59057D01*
Y37371D01*
X58982D01*
Y37296D01*
X58906D01*
Y37221D01*
X58831D01*
Y37145D01*
X58756D01*
Y37070D01*
X58681D01*
Y36995D01*
X58606D01*
Y36920D01*
X58455D01*
Y36845D01*
X58305D01*
Y36770D01*
X58155D01*
Y36694D01*
X57929D01*
Y36619D01*
X57704D01*
Y36544D01*
X57403D01*
Y36469D01*
X57102D01*
Y32259D01*
X57177D01*
Y31507D01*
X57102D01*
Y31432D01*
X57177D01*
Y31282D01*
X57328D01*
Y31206D01*
X57628D01*
Y31131D01*
X57929D01*
Y31056D01*
X58155D01*
Y30981D01*
X58305D01*
Y30906D01*
X58380D01*
Y30830D01*
X58530D01*
Y30755D01*
X58681D01*
Y30680D01*
X58756D01*
Y30605D01*
X58831D01*
Y30530D01*
X58982D01*
Y30455D01*
X59057D01*
Y30304D01*
X59132D01*
Y30229D01*
X59207D01*
Y30154D01*
X59282D01*
Y30003D01*
X59358D01*
Y29928D01*
X59433D01*
Y29778D01*
X59508D01*
Y29628D01*
X59583D01*
Y29402D01*
X59658D01*
Y29252D01*
X59733D01*
Y28650D01*
X59808D01*
Y28425D01*
X59733D01*
Y28350D01*
X59808D01*
Y28274D01*
X59733D01*
Y27748D01*
X59658D01*
Y27523D01*
X59583D01*
Y27372D01*
X59508D01*
Y27147D01*
X59433D01*
Y26996D01*
X59358D01*
Y26921D01*
X59282D01*
Y26846D01*
X59207D01*
Y26696D01*
X59132D01*
Y26621D01*
X59057D01*
Y26545D01*
X58982D01*
Y26470D01*
X58906D01*
Y26395D01*
X58831D01*
Y26320D01*
X58756D01*
Y26245D01*
X58681D01*
Y26169D01*
X58530D01*
Y26094D01*
X58455D01*
Y26019D01*
X58230D01*
Y25944D01*
X58079D01*
Y25869D01*
X57779D01*
Y25793D01*
X57704D01*
Y25718D01*
X56350D01*
Y25793D01*
X56200D01*
Y25869D01*
X55975D01*
Y25944D01*
X55749D01*
Y26019D01*
X55674D01*
Y26094D01*
X55523D01*
Y26169D01*
X55448D01*
Y26245D01*
X55298D01*
Y26320D01*
X55223D01*
Y26395D01*
X55147D01*
Y26470D01*
X55072D01*
Y26545D01*
X54997D01*
Y26621D01*
X54922D01*
Y26696D01*
X54847D01*
Y26771D01*
X54772D01*
Y26921D01*
X54697D01*
Y27072D01*
X54621D01*
Y27222D01*
X54546D01*
Y27372D01*
X54471D01*
Y27523D01*
X54396D01*
Y27823D01*
X54321D01*
Y28350D01*
X54245D01*
Y28575D01*
X54321D01*
Y29101D01*
X54396D01*
Y29477D01*
X54471D01*
Y29628D01*
X54546D01*
Y29778D01*
X54621D01*
Y29928D01*
X54697D01*
Y30003D01*
X54772D01*
Y30154D01*
X54847D01*
Y30229D01*
X54922D01*
Y30304D01*
X54997D01*
Y30379D01*
X55072D01*
Y30455D01*
X55147D01*
Y30530D01*
X55223D01*
Y30605D01*
X55298D01*
Y30680D01*
X55373D01*
Y30755D01*
X55523D01*
Y30830D01*
X55674D01*
Y30906D01*
X55749D01*
Y30981D01*
X55899D01*
Y31056D01*
X56200D01*
Y31131D01*
X56425D01*
Y31206D01*
X56651D01*
Y31282D01*
X56726D01*
Y36469D01*
X56651D01*
Y36544D01*
X56275D01*
Y36619D01*
X56200D01*
Y36694D01*
X55975D01*
Y36770D01*
X55749D01*
Y36845D01*
X55599D01*
Y36920D01*
X55523D01*
Y36995D01*
X55448D01*
Y37070D01*
X55298D01*
Y37145D01*
X55223D01*
Y37221D01*
X55147D01*
Y37296D01*
X55072D01*
Y37371D01*
X54997D01*
Y37446D01*
X54922D01*
Y37521D01*
X54847D01*
Y37596D01*
X54772D01*
Y37747D01*
X54697D01*
Y37897D01*
X54621D01*
Y37972D01*
X54546D01*
Y38123D01*
X54471D01*
Y38273D01*
X54396D01*
Y38649D01*
X54321D01*
Y39175D01*
X54245D01*
Y39401D01*
X54321D01*
Y39927D01*
X54396D01*
Y40228D01*
X54471D01*
Y40378D01*
X54546D01*
Y40528D01*
X54621D01*
Y40679D01*
X54697D01*
Y40829D01*
X55223D01*
Y40754D01*
X55147D01*
Y40679D01*
X55072D01*
Y40528D01*
X54997D01*
Y40453D01*
X54922D01*
Y40228D01*
X54847D01*
Y40152D01*
X54772D01*
Y39927D01*
X54697D01*
Y39551D01*
X54621D01*
Y38950D01*
X54697D01*
Y38574D01*
X54772D01*
Y38348D01*
X54847D01*
Y38198D01*
X54922D01*
Y38123D01*
X54997D01*
Y37972D01*
X55072D01*
Y37822D01*
X55147D01*
Y37747D01*
X55223D01*
Y37672D01*
X55298D01*
Y37596D01*
X55373D01*
Y37521D01*
X55448D01*
Y37446D01*
X55523D01*
Y37371D01*
X55674D01*
Y37296D01*
X55824D01*
Y37221D01*
X55899D01*
Y37145D01*
X56050D01*
Y37070D01*
X56275D01*
Y36995D01*
X56576D01*
Y36920D01*
X56952D01*
Y36845D01*
X57177D01*
Y36920D01*
X57553D01*
Y36995D01*
X57779D01*
Y37070D01*
X58004D01*
Y37145D01*
X58155D01*
Y37221D01*
X58230D01*
Y37296D01*
X58380D01*
Y37371D01*
X58455D01*
Y37446D01*
X58606D01*
Y37596D01*
X58756D01*
Y37672D01*
X58831D01*
Y37747D01*
X58906D01*
Y37897D01*
X58982D01*
Y37972D01*
X59057D01*
Y38048D01*
X59132D01*
Y38273D01*
X59207D01*
Y38423D01*
X59282D01*
Y38574D01*
X59358D01*
Y38799D01*
X59433D01*
Y39701D01*
X59358D01*
Y40002D01*
X59282D01*
Y40077D01*
X59207D01*
Y40303D01*
X59132D01*
Y40378D01*
X59057D01*
Y40604D01*
X58906D01*
Y40754D01*
X58831D01*
Y40829D01*
X59282D01*
Y40754D01*
D02*
G37*
G36*
X104198Y65191D02*
X104374Y65181D01*
X104531Y65163D01*
X104661Y65144D01*
X104772Y65117D01*
X104855Y65098D01*
X104911Y65089D01*
X104929Y65080D01*
X105068Y65034D01*
X105197Y64978D01*
X105317Y64913D01*
X105410Y64858D01*
X105493Y64811D01*
X105549Y64765D01*
X105586Y64737D01*
X105595Y64728D01*
X105687Y64636D01*
X105771Y64543D01*
X105835Y64451D01*
X105891Y64368D01*
X105937Y64284D01*
X105965Y64229D01*
X105983Y64192D01*
X105993Y64173D01*
X106039Y64053D01*
X106076Y63924D01*
X106095Y63803D01*
X106113Y63683D01*
X106122Y63591D01*
X106131Y63507D01*
Y63442D01*
X106122Y63295D01*
X106113Y63156D01*
X106085Y63036D01*
X106067Y62924D01*
X106039Y62832D01*
X106011Y62767D01*
X106002Y62730D01*
X105993Y62712D01*
X105937Y62591D01*
X105872Y62490D01*
X105808Y62397D01*
X105743Y62314D01*
X105687Y62249D01*
X105641Y62194D01*
X105604Y62166D01*
X105595Y62157D01*
X105493Y62083D01*
X105382Y62009D01*
X105271Y61953D01*
X105160Y61907D01*
X105068Y61861D01*
X104994Y61833D01*
X104947Y61824D01*
X104938Y61814D01*
X104929D01*
X104772Y61778D01*
X104614Y61750D01*
X104457Y61722D01*
X104318Y61713D01*
X104189Y61703D01*
X104096Y61694D01*
X104060D01*
X104032D01*
X104013D01*
X104004D01*
X102718D01*
X102533Y61703D01*
X102357Y61713D01*
X102200Y61731D01*
X102071Y61759D01*
X101960Y61778D01*
X101876Y61796D01*
X101821Y61805D01*
X101812Y61814D01*
X101803D01*
X101664Y61870D01*
X101534Y61926D01*
X101414Y61981D01*
X101321Y62037D01*
X101238Y62092D01*
X101183Y62129D01*
X101146Y62157D01*
X101137Y62166D01*
X101044Y62258D01*
X100961Y62351D01*
X100887Y62444D01*
X100831Y62527D01*
X100785Y62610D01*
X100757Y62665D01*
X100739Y62703D01*
X100730Y62721D01*
X100683Y62841D01*
X100655Y62971D01*
X100628Y63091D01*
X100619Y63211D01*
X100609Y63304D01*
X100600Y63387D01*
Y63452D01*
X100609Y63600D01*
X100619Y63739D01*
X100637Y63859D01*
X100665Y63970D01*
X100692Y64062D01*
X100711Y64127D01*
X100720Y64164D01*
X100730Y64183D01*
X100785Y64303D01*
X100850Y64404D01*
X100924Y64497D01*
X100988Y64580D01*
X101044Y64645D01*
X101090Y64691D01*
X101127Y64719D01*
X101137Y64728D01*
X101238Y64811D01*
X101358Y64885D01*
X101470Y64941D01*
X101571Y64987D01*
X101664Y65034D01*
X101738Y65061D01*
X101784Y65070D01*
X101803Y65080D01*
X101960Y65117D01*
X102117Y65154D01*
X102265Y65172D01*
X102413Y65181D01*
X102533Y65191D01*
X102635Y65200D01*
X102672D01*
X102700D01*
X102709D01*
X102718D01*
X104004D01*
X104198Y65191D01*
D02*
G37*
G36*
X108152Y65098D02*
X108142Y65043D01*
X108124Y64987D01*
X108115Y64950D01*
Y64932D01*
X108105Y64858D01*
X108087Y64793D01*
X108078Y64737D01*
Y64719D01*
X108068Y64636D01*
X108059Y64562D01*
X108050Y64497D01*
Y64478D01*
X108041Y64395D01*
Y64247D01*
X108050Y64127D01*
X108059Y64034D01*
X108068Y63998D01*
Y63979D01*
X108078Y63960D01*
Y63951D01*
X108115Y63859D01*
X108152Y63794D01*
X108189Y63748D01*
X108198Y63729D01*
X108272Y63665D01*
X108355Y63618D01*
X108411Y63591D01*
X108429Y63581D01*
X108438D01*
X108559Y63554D01*
X108679Y63544D01*
X108725Y63535D01*
X108762D01*
X108790D01*
X108799D01*
X110520D01*
Y65024D01*
X111278D01*
Y63535D01*
X112259D01*
Y62508D01*
X111278D01*
Y61593D01*
X110520D01*
Y62508D01*
X108697D01*
X108559Y62517D01*
X108429Y62527D01*
X108309Y62545D01*
X108216Y62564D01*
X108133Y62582D01*
X108078Y62591D01*
X108031Y62610D01*
X108022D01*
X107920Y62656D01*
X107828Y62703D01*
X107745Y62749D01*
X107680Y62795D01*
X107624Y62832D01*
X107587Y62869D01*
X107560Y62888D01*
X107550Y62897D01*
X107439Y63054D01*
X107356Y63202D01*
X107328Y63267D01*
X107310Y63313D01*
X107291Y63350D01*
Y63359D01*
X107245Y63563D01*
X107227Y63665D01*
X107217Y63757D01*
Y63840D01*
X107208Y63905D01*
Y64081D01*
X107217Y64192D01*
Y64238D01*
X107227Y64275D01*
Y64303D01*
X107245Y64432D01*
X107254Y64534D01*
X107264Y64580D01*
X107273Y64608D01*
Y64636D01*
X107291Y64756D01*
X107310Y64858D01*
X107319Y64895D01*
X107328Y64922D01*
X107338Y64941D01*
Y64950D01*
X107375Y65052D01*
X107412Y65135D01*
X107439Y65181D01*
X107449Y65200D01*
X108152Y65098D01*
D02*
G37*
G36*
X101368Y59613D02*
X101451Y59595D01*
X101506Y59576D01*
X101516Y59567D01*
X101525D01*
X101618Y59530D01*
X101682Y59483D01*
X101728Y59447D01*
X101747Y59428D01*
X101812Y59354D01*
X101849Y59280D01*
X101876Y59224D01*
X101886Y59206D01*
Y59197D01*
X101923Y59095D01*
X101932Y59003D01*
X101941Y58956D01*
Y58901D01*
X101932Y58780D01*
X101913Y58688D01*
X101904Y58651D01*
X101895Y58632D01*
X101886Y58614D01*
Y58605D01*
X101849Y58512D01*
X101803Y58447D01*
X101766Y58401D01*
X101747Y58383D01*
X101673Y58318D01*
X101599Y58272D01*
X101543Y58244D01*
X101534Y58235D01*
X101525D01*
X101433Y58207D01*
X101349Y58198D01*
X101312Y58188D01*
X101294D01*
X101275D01*
X101266D01*
X101164Y58198D01*
X101081Y58216D01*
X101044D01*
X101016Y58226D01*
X101007Y58235D01*
X100998D01*
X100915Y58281D01*
X100850Y58327D01*
X100803Y58364D01*
X100785Y58383D01*
X100730Y58457D01*
X100692Y58531D01*
X100665Y58586D01*
X100655Y58596D01*
Y58605D01*
X100628Y58706D01*
X100609Y58799D01*
X100600Y58845D01*
Y58901D01*
X100609Y59021D01*
X100628Y59114D01*
X100637Y59150D01*
X100646Y59178D01*
X100655Y59188D01*
Y59197D01*
X100692Y59289D01*
X100739Y59363D01*
X100776Y59409D01*
X100785Y59428D01*
X100859Y59493D01*
X100924Y59530D01*
X100979Y59557D01*
X100988Y59567D01*
X100998D01*
X101090Y59604D01*
X101183Y59613D01*
X101220Y59622D01*
X101238D01*
X101257D01*
X101266D01*
X101368Y59613D01*
D02*
G37*
G36*
X108522Y60677D02*
X108614Y60668D01*
X108697Y60649D01*
X108771Y60621D01*
X108827Y60593D01*
X108873Y60575D01*
X108901Y60566D01*
X108910Y60557D01*
X109058Y60445D01*
X109114Y60390D01*
X109169Y60334D01*
X109215Y60279D01*
X109243Y60242D01*
X109262Y60214D01*
X109271Y60205D01*
X109373Y60029D01*
X109410Y59937D01*
X109447Y59854D01*
X109474Y59780D01*
X109493Y59724D01*
X109511Y59687D01*
Y59668D01*
X109576Y59428D01*
X109595Y59317D01*
X109622Y59215D01*
X109641Y59123D01*
X109650Y59058D01*
X109659Y59012D01*
Y58993D01*
X109678Y58901D01*
X109687Y58827D01*
X109706Y58753D01*
X109715Y58688D01*
X109724Y58642D01*
X109733Y58605D01*
X109743Y58586D01*
Y58577D01*
X109780Y58466D01*
X109817Y58392D01*
X109844Y58337D01*
X109854Y58327D01*
Y58318D01*
X109900Y58262D01*
X109946Y58216D01*
X109983Y58198D01*
X109992Y58188D01*
X110057Y58170D01*
X110103Y58161D01*
X110140Y58152D01*
X110159D01*
X110233Y58161D01*
X110288Y58179D01*
X110390Y58244D01*
X110427Y58281D01*
X110464Y58309D01*
X110473Y58327D01*
X110483Y58337D01*
X110529Y58411D01*
X110557Y58503D01*
X110594Y58679D01*
X110603Y58762D01*
X110612Y58827D01*
Y58882D01*
X110603Y59012D01*
X110584Y59132D01*
X110566Y59224D01*
X110538Y59308D01*
X110501Y59373D01*
X110483Y59409D01*
X110464Y59437D01*
X110455Y59447D01*
X110390Y59511D01*
X110325Y59557D01*
X110261Y59595D01*
X110205Y59613D01*
X110150Y59632D01*
X110103Y59641D01*
X110076D01*
X110066D01*
Y60668D01*
X110168Y60658D01*
X110261Y60649D01*
X110353Y60631D01*
X110427Y60612D01*
X110492Y60584D01*
X110538Y60566D01*
X110566Y60557D01*
X110575Y60547D01*
X110658Y60501D01*
X110742Y60445D01*
X110806Y60381D01*
X110871Y60325D01*
X110917Y60279D01*
X110954Y60233D01*
X110973Y60205D01*
X110982Y60196D01*
X111047Y60103D01*
X111102Y60011D01*
X111149Y59918D01*
X111186Y59826D01*
X111213Y59752D01*
X111232Y59687D01*
X111250Y59650D01*
Y59632D01*
X111287Y59502D01*
X111306Y59373D01*
X111324Y59252D01*
X111343Y59132D01*
Y59030D01*
X111352Y58956D01*
Y58734D01*
X111334Y58605D01*
X111324Y58475D01*
X111306Y58373D01*
X111287Y58281D01*
X111269Y58216D01*
X111260Y58179D01*
X111250Y58161D01*
X111213Y58050D01*
X111167Y57948D01*
X111121Y57855D01*
X111084Y57772D01*
X111047Y57708D01*
X111010Y57661D01*
X110991Y57634D01*
X110982Y57624D01*
X110917Y57550D01*
X110853Y57476D01*
X110788Y57421D01*
X110723Y57375D01*
X110668Y57328D01*
X110621Y57301D01*
X110594Y57291D01*
X110584Y57282D01*
X110501Y57245D01*
X110418Y57217D01*
X110335Y57190D01*
X110270Y57180D01*
X110205Y57171D01*
X110159Y57162D01*
X110122D01*
X110113D01*
X110020Y57171D01*
X109937Y57180D01*
X109863Y57199D01*
X109789Y57217D01*
X109733Y57236D01*
X109696Y57254D01*
X109669Y57273D01*
X109659D01*
X109521Y57375D01*
X109419Y57476D01*
X109373Y57522D01*
X109345Y57560D01*
X109326Y57587D01*
X109317Y57596D01*
X109215Y57763D01*
X109169Y57846D01*
X109132Y57929D01*
X109104Y57994D01*
X109077Y58050D01*
X109067Y58087D01*
X109058Y58096D01*
X108984Y58318D01*
X108956Y58429D01*
X108929Y58531D01*
X108910Y58614D01*
X108892Y58688D01*
X108882Y58725D01*
Y58744D01*
X108864Y58845D01*
X108845Y58929D01*
X108827Y59012D01*
X108818Y59076D01*
X108799Y59123D01*
X108790Y59169D01*
X108781Y59188D01*
Y59197D01*
X108744Y59317D01*
X108707Y59419D01*
X108697Y59447D01*
X108679Y59474D01*
X108670Y59483D01*
Y59493D01*
X108623Y59567D01*
X108577Y59613D01*
X108540Y59632D01*
X108531Y59641D01*
X108475Y59668D01*
X108429Y59678D01*
X108392Y59687D01*
X108374D01*
X108309Y59678D01*
X108244Y59659D01*
X108189Y59622D01*
X108142Y59585D01*
X108105Y59548D01*
X108078Y59511D01*
X108068Y59493D01*
X108059Y59483D01*
X108022Y59400D01*
X107994Y59308D01*
X107957Y59123D01*
X107948Y59039D01*
X107939Y58975D01*
Y58910D01*
X107948Y58790D01*
X107957Y58688D01*
Y58642D01*
X107967Y58614D01*
Y58586D01*
X108004Y58475D01*
X108041Y58383D01*
X108050Y58346D01*
X108068Y58318D01*
X108078Y58309D01*
Y58299D01*
X108142Y58216D01*
X108198Y58152D01*
X108244Y58114D01*
X108263Y58096D01*
X108355Y58050D01*
X108448Y58031D01*
X108494Y58022D01*
X108522Y58013D01*
X108540D01*
X108549D01*
Y57032D01*
X108457Y57042D01*
X108364Y57051D01*
X108281Y57069D01*
X108207Y57097D01*
X108152Y57116D01*
X108105Y57134D01*
X108068Y57143D01*
X108059Y57152D01*
X107976Y57199D01*
X107893Y57254D01*
X107819Y57319D01*
X107754Y57375D01*
X107698Y57421D01*
X107661Y57467D01*
X107634Y57495D01*
X107624Y57504D01*
X107560Y57596D01*
X107495Y57698D01*
X107449Y57791D01*
X107402Y57883D01*
X107365Y57967D01*
X107338Y58031D01*
X107328Y58068D01*
X107319Y58087D01*
X107282Y58216D01*
X107254Y58355D01*
X107236Y58494D01*
X107227Y58614D01*
X107217Y58725D01*
X107208Y58808D01*
Y59030D01*
X107217Y59178D01*
X107236Y59298D01*
X107254Y59409D01*
X107264Y59502D01*
X107282Y59576D01*
X107291Y59613D01*
Y59632D01*
X107328Y59752D01*
X107365Y59863D01*
X107412Y59955D01*
X107449Y60039D01*
X107486Y60103D01*
X107513Y60159D01*
X107532Y60186D01*
X107541Y60196D01*
X107606Y60279D01*
X107671Y60353D01*
X107735Y60409D01*
X107800Y60464D01*
X107846Y60501D01*
X107893Y60529D01*
X107920Y60547D01*
X107930Y60557D01*
X108013Y60603D01*
X108096Y60631D01*
X108179Y60658D01*
X108263Y60668D01*
X108327Y60677D01*
X108374Y60686D01*
X108411D01*
X108420D01*
X108522Y60677D01*
D02*
G37*
G36*
X106058Y55071D02*
X105207Y52731D01*
X104309D01*
X104799Y54091D01*
X100674D01*
Y55127D01*
X106058D01*
Y55071D01*
D02*
G37*
G36*
X109474Y56191D02*
X109622Y56181D01*
X109761Y56163D01*
X109881Y56135D01*
X109983Y56107D01*
X110057Y56089D01*
X110103Y56080D01*
X110122Y56070D01*
X110261Y56024D01*
X110381Y55959D01*
X110492Y55904D01*
X110584Y55839D01*
X110658Y55783D01*
X110723Y55737D01*
X110760Y55709D01*
X110769Y55700D01*
X110871Y55608D01*
X110954Y55506D01*
X111028Y55404D01*
X111084Y55312D01*
X111130Y55229D01*
X111167Y55164D01*
X111186Y55127D01*
X111195Y55108D01*
X111250Y54970D01*
X111287Y54840D01*
X111315Y54701D01*
X111334Y54581D01*
X111343Y54470D01*
X111352Y54387D01*
Y54313D01*
X111343Y54146D01*
X111324Y53998D01*
X111306Y53860D01*
X111278Y53739D01*
X111241Y53647D01*
X111223Y53573D01*
X111204Y53527D01*
X111195Y53508D01*
X111130Y53378D01*
X111065Y53268D01*
X110991Y53166D01*
X110927Y53083D01*
X110862Y53009D01*
X110816Y52962D01*
X110779Y52925D01*
X110769Y52916D01*
X110658Y52833D01*
X110547Y52759D01*
X110446Y52694D01*
X110344Y52639D01*
X110251Y52601D01*
X110187Y52574D01*
X110140Y52555D01*
X110122Y52546D01*
X109983Y52509D01*
X109844Y52481D01*
X109706Y52454D01*
X109585Y52444D01*
X109474Y52435D01*
X109391Y52426D01*
X109336D01*
X109326D01*
X109317D01*
X109234D01*
X109077Y52435D01*
X108919Y52444D01*
X108790Y52463D01*
X108660Y52491D01*
X108559Y52509D01*
X108485Y52527D01*
X108438Y52537D01*
X108420Y52546D01*
X108290Y52601D01*
X108161Y52657D01*
X108050Y52722D01*
X107957Y52777D01*
X107883Y52833D01*
X107819Y52879D01*
X107782Y52907D01*
X107772Y52916D01*
X107680Y53009D01*
X107597Y53110D01*
X107523Y53212D01*
X107467Y53304D01*
X107421Y53388D01*
X107384Y53452D01*
X107365Y53490D01*
X107356Y53508D01*
X107310Y53647D01*
X107273Y53786D01*
X107245Y53924D01*
X107227Y54045D01*
X107217Y54155D01*
X107208Y54239D01*
Y54313D01*
X107217Y54479D01*
X107236Y54627D01*
X107254Y54766D01*
X107282Y54886D01*
X107310Y54979D01*
X107338Y55053D01*
X107347Y55099D01*
X107356Y55117D01*
X107421Y55247D01*
X107486Y55358D01*
X107550Y55460D01*
X107624Y55543D01*
X107680Y55617D01*
X107726Y55663D01*
X107763Y55700D01*
X107772Y55709D01*
X107883Y55793D01*
X107994Y55867D01*
X108096Y55932D01*
X108198Y55978D01*
X108290Y56024D01*
X108355Y56052D01*
X108401Y56061D01*
X108420Y56070D01*
X108568Y56116D01*
X108707Y56144D01*
X108845Y56172D01*
X108966Y56181D01*
X109077Y56191D01*
X109160Y56200D01*
X109215D01*
X109225D01*
X109234D01*
X109317D01*
X109474Y56191D01*
D02*
G37*
G36*
Y51649D02*
X109622Y51639D01*
X109761Y51621D01*
X109881Y51593D01*
X109983Y51565D01*
X110057Y51547D01*
X110103Y51538D01*
X110122Y51529D01*
X110261Y51482D01*
X110381Y51417D01*
X110492Y51362D01*
X110584Y51297D01*
X110658Y51242D01*
X110723Y51196D01*
X110760Y51168D01*
X110769Y51158D01*
X110871Y51066D01*
X110954Y50964D01*
X111028Y50862D01*
X111084Y50770D01*
X111130Y50687D01*
X111167Y50622D01*
X111186Y50585D01*
X111195Y50567D01*
X111250Y50428D01*
X111287Y50298D01*
X111315Y50160D01*
X111334Y50039D01*
X111343Y49928D01*
X111352Y49845D01*
Y49771D01*
X111343Y49604D01*
X111324Y49457D01*
X111306Y49318D01*
X111278Y49198D01*
X111241Y49105D01*
X111223Y49031D01*
X111204Y48985D01*
X111195Y48966D01*
X111130Y48837D01*
X111065Y48726D01*
X110991Y48624D01*
X110927Y48541D01*
X110862Y48467D01*
X110816Y48421D01*
X110779Y48384D01*
X110769Y48374D01*
X110658Y48291D01*
X110547Y48217D01*
X110446Y48152D01*
X110344Y48097D01*
X110251Y48060D01*
X110187Y48032D01*
X110140Y48013D01*
X110122Y48004D01*
X109983Y47967D01*
X109844Y47940D01*
X109706Y47912D01*
X109585Y47903D01*
X109474Y47893D01*
X109391Y47884D01*
X109336D01*
X109326D01*
X109317D01*
X109234D01*
X109077Y47893D01*
X108919Y47903D01*
X108790Y47921D01*
X108660Y47949D01*
X108559Y47967D01*
X108485Y47986D01*
X108438Y47995D01*
X108420Y48004D01*
X108290Y48060D01*
X108161Y48115D01*
X108050Y48180D01*
X107957Y48235D01*
X107883Y48291D01*
X107819Y48337D01*
X107782Y48365D01*
X107772Y48374D01*
X107680Y48467D01*
X107597Y48568D01*
X107523Y48670D01*
X107467Y48763D01*
X107421Y48846D01*
X107384Y48911D01*
X107365Y48948D01*
X107356Y48966D01*
X107310Y49105D01*
X107273Y49244D01*
X107245Y49382D01*
X107227Y49503D01*
X107217Y49614D01*
X107208Y49697D01*
Y49771D01*
X107217Y49937D01*
X107236Y50086D01*
X107254Y50224D01*
X107282Y50345D01*
X107310Y50437D01*
X107338Y50511D01*
X107347Y50557D01*
X107356Y50576D01*
X107421Y50705D01*
X107486Y50816D01*
X107550Y50918D01*
X107624Y51001D01*
X107680Y51075D01*
X107726Y51121D01*
X107763Y51158D01*
X107772Y51168D01*
X107883Y51251D01*
X107994Y51325D01*
X108096Y51390D01*
X108198Y51436D01*
X108290Y51482D01*
X108355Y51510D01*
X108401Y51519D01*
X108420Y51529D01*
X108568Y51575D01*
X108707Y51603D01*
X108845Y51630D01*
X108966Y51639D01*
X109077Y51649D01*
X109160Y51658D01*
X109215D01*
X109225D01*
X109234D01*
X109317D01*
X109474Y51649D01*
D02*
G37*
G36*
X106058Y50835D02*
X102173Y49817D01*
X106058Y48809D01*
Y47662D01*
X100674Y49290D01*
Y50345D01*
X106058Y51982D01*
Y50835D01*
D02*
G37*
G36*
X109003Y47311D02*
X109067Y47301D01*
X109123Y47292D01*
X109178Y47283D01*
X109215Y47273D01*
X109234Y47264D01*
X109243D01*
X109382Y47218D01*
X109493Y47163D01*
X109539Y47135D01*
X109567Y47116D01*
X109585Y47107D01*
X109595Y47098D01*
X109706Y47005D01*
X109798Y46913D01*
X109835Y46876D01*
X109863Y46839D01*
X109872Y46820D01*
X109881Y46811D01*
X109955Y46681D01*
X110011Y46552D01*
X110029Y46496D01*
X110048Y46450D01*
X110057Y46422D01*
Y46413D01*
X110122Y46543D01*
X110196Y46663D01*
X110270Y46765D01*
X110344Y46839D01*
X110409Y46903D01*
X110464Y46950D01*
X110501Y46977D01*
X110510Y46987D01*
X110631Y47052D01*
X110751Y47107D01*
X110862Y47144D01*
X110964Y47163D01*
X111056Y47181D01*
X111130Y47190D01*
X111176D01*
X111195D01*
X111334Y47181D01*
X111454Y47172D01*
X111565Y47144D01*
X111657Y47126D01*
X111731Y47098D01*
X111796Y47070D01*
X111833Y47061D01*
X111842Y47052D01*
X111944Y46996D01*
X112037Y46931D01*
X112111Y46867D01*
X112175Y46802D01*
X112231Y46746D01*
X112268Y46700D01*
X112296Y46663D01*
X112305Y46654D01*
X112370Y46552D01*
X112425Y46450D01*
X112471Y46349D01*
X112508Y46256D01*
X112536Y46173D01*
X112555Y46108D01*
X112573Y46062D01*
Y46043D01*
X112629Y45766D01*
X112647Y45636D01*
X112656Y45507D01*
X112666Y45405D01*
Y43435D01*
X107282D01*
Y45562D01*
X107301Y45710D01*
X107310Y45840D01*
X107328Y45960D01*
X107347Y46053D01*
X107356Y46126D01*
X107375Y46173D01*
Y46191D01*
X107421Y46321D01*
X107467Y46441D01*
X107513Y46543D01*
X107560Y46635D01*
X107606Y46700D01*
X107643Y46755D01*
X107661Y46793D01*
X107671Y46802D01*
X107754Y46894D01*
X107837Y46968D01*
X107920Y47033D01*
X107994Y47089D01*
X108068Y47126D01*
X108124Y47153D01*
X108161Y47172D01*
X108170Y47181D01*
X108281Y47227D01*
X108401Y47264D01*
X108522Y47283D01*
X108623Y47301D01*
X108716Y47311D01*
X108790Y47320D01*
X108836D01*
X108855D01*
X109003Y47311D01*
D02*
G37*
G36*
X109548Y38042D02*
X109696Y38033D01*
X109835Y38014D01*
X109955Y37986D01*
X110048Y37959D01*
X110122Y37940D01*
X110168Y37931D01*
X110187Y37922D01*
X110316Y37876D01*
X110436Y37811D01*
X110538Y37755D01*
X110631Y37700D01*
X110705Y37644D01*
X110760Y37598D01*
X110797Y37570D01*
X110806Y37561D01*
X110899Y37468D01*
X110982Y37376D01*
X111047Y37274D01*
X111102Y37191D01*
X111149Y37108D01*
X111176Y37043D01*
X111195Y37006D01*
X111204Y36988D01*
X111250Y36858D01*
X111287Y36729D01*
X111315Y36599D01*
X111334Y36479D01*
X111343Y36377D01*
X111352Y36294D01*
Y36220D01*
X111343Y36072D01*
X111324Y35924D01*
X111306Y35794D01*
X111278Y35674D01*
X111241Y35581D01*
X111223Y35508D01*
X111204Y35461D01*
X111195Y35443D01*
X111130Y35313D01*
X111065Y35202D01*
X110991Y35091D01*
X110927Y35008D01*
X110862Y34934D01*
X110816Y34879D01*
X110779Y34841D01*
X110769Y34832D01*
X110668Y34740D01*
X110557Y34657D01*
X110446Y34592D01*
X110344Y34536D01*
X110261Y34490D01*
X110187Y34453D01*
X110140Y34435D01*
X110122Y34425D01*
X109974Y34379D01*
X109835Y34342D01*
X109696Y34323D01*
X109567Y34305D01*
X109456Y34296D01*
X109363Y34286D01*
X109308D01*
X109299D01*
X109289D01*
X109141D01*
X108993Y34296D01*
X108855Y34314D01*
X108725Y34333D01*
X108614Y34361D01*
X108512Y34388D01*
X108448Y34416D01*
X108401Y34425D01*
X108383Y34435D01*
X108253Y34499D01*
X108142Y34564D01*
X108031Y34629D01*
X107939Y34703D01*
X107865Y34758D01*
X107809Y34804D01*
X107772Y34841D01*
X107763Y34851D01*
X107671Y34953D01*
X107587Y35063D01*
X107523Y35175D01*
X107467Y35276D01*
X107421Y35369D01*
X107384Y35434D01*
X107365Y35480D01*
X107356Y35498D01*
X107310Y35646D01*
X107273Y35794D01*
X107245Y35933D01*
X107227Y36062D01*
X107217Y36173D01*
X107208Y36266D01*
Y36340D01*
X107217Y36553D01*
X107227Y36645D01*
X107245Y36729D01*
X107254Y36793D01*
X107264Y36840D01*
X107273Y36876D01*
Y36886D01*
X107319Y37071D01*
X107347Y37145D01*
X107375Y37219D01*
X107393Y37274D01*
X107412Y37311D01*
X107430Y37339D01*
Y37348D01*
X107513Y37496D01*
X107550Y37552D01*
X107587Y37607D01*
X107615Y37653D01*
X107643Y37681D01*
X107652Y37700D01*
X107661Y37709D01*
X107754Y37820D01*
X107846Y37894D01*
X107883Y37931D01*
X107902Y37949D01*
X107920Y37968D01*
X107930D01*
X108485Y37450D01*
X108411Y37385D01*
X108346Y37321D01*
X108300Y37265D01*
X108281Y37256D01*
Y37247D01*
X108226Y37154D01*
X108179Y37071D01*
X108161Y37034D01*
X108152Y37015D01*
X108142Y36997D01*
Y36988D01*
X108105Y36886D01*
X108078Y36793D01*
X108068Y36756D01*
Y36729D01*
X108059Y36710D01*
Y36701D01*
X108041Y36590D01*
X108031Y36497D01*
Y36405D01*
X108041Y36248D01*
X108050Y36183D01*
X108068Y36118D01*
X108078Y36072D01*
X108087Y36035D01*
X108096Y36007D01*
Y35998D01*
X108152Y35877D01*
X108216Y35776D01*
X108244Y35739D01*
X108263Y35711D01*
X108272Y35693D01*
X108281Y35683D01*
X108374Y35591D01*
X108466Y35517D01*
X108512Y35489D01*
X108540Y35471D01*
X108559Y35452D01*
X108568D01*
X108697Y35397D01*
X108827Y35359D01*
X108873Y35350D01*
X108910Y35341D01*
X108938Y35332D01*
X108947D01*
Y38051D01*
X109382D01*
X109548Y38042D01*
D02*
G37*
G36*
X112388Y32372D02*
X112471Y32353D01*
X112536Y32326D01*
X112592Y32298D01*
X112638Y32270D01*
X112666Y32242D01*
X112684Y32224D01*
X112693Y32214D01*
X112749Y32150D01*
X112786Y32085D01*
X112814Y32011D01*
X112832Y31946D01*
X112841Y31881D01*
X112851Y31835D01*
Y31789D01*
X112841Y31687D01*
X112832Y31613D01*
X112814Y31558D01*
X112804Y31549D01*
Y31539D01*
X112767Y31465D01*
X112740Y31410D01*
X112703Y31373D01*
X112693Y31354D01*
X112638Y31308D01*
X112582Y31271D01*
X112545Y31243D01*
X112536Y31234D01*
X112527D01*
X112453Y31216D01*
X112379Y31206D01*
X112323Y31197D01*
X112314D01*
X112305D01*
X112222Y31206D01*
X112148Y31216D01*
X112101Y31225D01*
X112092Y31234D01*
X112083D01*
X112009Y31271D01*
X111953Y31308D01*
X111916Y31345D01*
X111907Y31354D01*
X111861Y31419D01*
X111824Y31475D01*
X111805Y31521D01*
X111796Y31539D01*
X111778Y31622D01*
X111768Y31706D01*
X111759Y31771D01*
Y31789D01*
X111768Y31881D01*
X111787Y31965D01*
X111805Y32039D01*
X111833Y32103D01*
X111861Y32150D01*
X111889Y32187D01*
X111898Y32205D01*
X111907Y32214D01*
X111972Y32270D01*
X112037Y32307D01*
X112101Y32344D01*
X112166Y32362D01*
X112222Y32372D01*
X112268Y32381D01*
X112296D01*
X112305D01*
X112388Y32372D01*
D02*
G37*
G36*
X108115Y32307D02*
X111278D01*
Y30124D01*
X110436D01*
Y31271D01*
X108115D01*
Y30124D01*
X107282D01*
Y33389D01*
X108115D01*
Y32307D01*
D02*
G37*
G36*
X109317Y27784D02*
X111278Y29134D01*
Y28024D01*
X110029Y27145D01*
X111278Y26276D01*
Y25175D01*
X109317Y26507D01*
X107282Y25120D01*
Y26230D01*
X108586Y27145D01*
X107282Y28071D01*
Y29180D01*
X109317Y27784D01*
D02*
G37*
G36*
X112388Y23288D02*
X112471Y23270D01*
X112536Y23242D01*
X112592Y23214D01*
X112638Y23187D01*
X112666Y23159D01*
X112684Y23140D01*
X112693Y23131D01*
X112749Y23066D01*
X112786Y23001D01*
X112814Y22928D01*
X112832Y22863D01*
X112841Y22798D01*
X112851Y22752D01*
Y22705D01*
X112841Y22604D01*
X112832Y22530D01*
X112814Y22474D01*
X112804Y22465D01*
Y22456D01*
X112767Y22382D01*
X112740Y22326D01*
X112703Y22289D01*
X112693Y22271D01*
X112638Y22224D01*
X112582Y22187D01*
X112545Y22160D01*
X112536Y22151D01*
X112527D01*
X112453Y22132D01*
X112379Y22123D01*
X112323Y22114D01*
X112314D01*
X112305D01*
X112222Y22123D01*
X112148Y22132D01*
X112101Y22141D01*
X112092Y22151D01*
X112083D01*
X112009Y22187D01*
X111953Y22224D01*
X111916Y22262D01*
X111907Y22271D01*
X111861Y22335D01*
X111824Y22391D01*
X111805Y22437D01*
X111796Y22456D01*
X111778Y22539D01*
X111768Y22622D01*
X111759Y22687D01*
Y22705D01*
X111768Y22798D01*
X111787Y22881D01*
X111805Y22955D01*
X111833Y23020D01*
X111861Y23066D01*
X111889Y23103D01*
X111898Y23122D01*
X111907Y23131D01*
X111972Y23187D01*
X112037Y23223D01*
X112101Y23260D01*
X112166Y23279D01*
X112222Y23288D01*
X112268Y23298D01*
X112296D01*
X112305D01*
X112388Y23288D01*
D02*
G37*
G36*
X108115Y23223D02*
X111278D01*
Y21041D01*
X110436D01*
Y22187D01*
X108115D01*
Y21041D01*
X107282D01*
Y24306D01*
X108115D01*
Y23223D01*
D02*
G37*
G36*
X112666Y18700D02*
X109206D01*
X112666Y17211D01*
Y16166D01*
X107282D01*
Y17211D01*
X110751D01*
X107282Y18710D01*
Y19746D01*
X112666D01*
Y18700D01*
D02*
G37*
G36*
X129388Y64173D02*
X129472Y64155D01*
X129536Y64127D01*
X129592Y64099D01*
X129638Y64072D01*
X129666Y64044D01*
X129684Y64025D01*
X129693Y64016D01*
X129749Y63951D01*
X129786Y63886D01*
X129814Y63813D01*
X129832Y63748D01*
X129841Y63683D01*
X129851Y63637D01*
Y63591D01*
X129841Y63489D01*
X129832Y63415D01*
X129814Y63359D01*
X129805Y63350D01*
Y63341D01*
X129768Y63267D01*
X129740Y63211D01*
X129703Y63174D01*
X129693Y63156D01*
X129638Y63109D01*
X129583Y63073D01*
X129545Y63045D01*
X129536Y63036D01*
X129527D01*
X129453Y63017D01*
X129379Y63008D01*
X129323Y62998D01*
X129314D01*
X129305D01*
X129222Y63008D01*
X129148Y63017D01*
X129102Y63026D01*
X129092Y63036D01*
X129083D01*
X129009Y63073D01*
X128954Y63109D01*
X128917Y63147D01*
X128907Y63156D01*
X128861Y63221D01*
X128824Y63276D01*
X128805Y63322D01*
X128796Y63341D01*
X128778Y63424D01*
X128769Y63507D01*
X128759Y63572D01*
Y63591D01*
X128769Y63683D01*
X128787Y63766D01*
X128805Y63840D01*
X128833Y63905D01*
X128861Y63951D01*
X128889Y63988D01*
X128898Y64007D01*
X128907Y64016D01*
X128972Y64072D01*
X129037Y64109D01*
X129102Y64145D01*
X129166Y64164D01*
X129222Y64173D01*
X129268Y64183D01*
X129296D01*
X129305D01*
X129388Y64173D01*
D02*
G37*
G36*
X123057Y65144D02*
X122206Y62804D01*
X121309D01*
X121800Y64164D01*
X117674D01*
Y65200D01*
X123057D01*
Y65144D01*
D02*
G37*
G36*
X125115Y64109D02*
X128278D01*
Y61926D01*
X127436D01*
Y63073D01*
X125115D01*
Y61926D01*
X124282D01*
Y65191D01*
X125115D01*
Y64109D01*
D02*
G37*
G36*
X118497Y59298D02*
X119570Y60316D01*
X119764Y60501D01*
X119848Y60575D01*
X119922Y60649D01*
X119986Y60704D01*
X120042Y60751D01*
X120070Y60778D01*
X120079Y60788D01*
X120264Y60936D01*
X120338Y61001D01*
X120412Y61056D01*
X120477Y61093D01*
X120523Y61130D01*
X120551Y61149D01*
X120560Y61158D01*
X120736Y61260D01*
X120819Y61306D01*
X120893Y61334D01*
X120949Y61361D01*
X121004Y61380D01*
X121032Y61398D01*
X121041D01*
X121226Y61444D01*
X121309Y61463D01*
X121393Y61472D01*
X121457Y61481D01*
X121503D01*
X121540D01*
X121550D01*
X121679D01*
X121800Y61463D01*
X121911Y61444D01*
X122003Y61426D01*
X122077Y61408D01*
X122142Y61389D01*
X122179Y61380D01*
X122188Y61370D01*
X122299Y61324D01*
X122391Y61278D01*
X122475Y61222D01*
X122549Y61167D01*
X122604Y61121D01*
X122651Y61084D01*
X122678Y61056D01*
X122687Y61047D01*
X122761Y60963D01*
X122826Y60871D01*
X122882Y60788D01*
X122928Y60695D01*
X122965Y60621D01*
X122993Y60566D01*
X123002Y60529D01*
X123011Y60510D01*
X123048Y60390D01*
X123085Y60270D01*
X123104Y60140D01*
X123113Y60029D01*
X123122Y59937D01*
X123132Y59854D01*
Y59789D01*
X123122Y59632D01*
X123113Y59483D01*
X123085Y59345D01*
X123067Y59234D01*
X123039Y59141D01*
X123011Y59067D01*
X123002Y59021D01*
X122993Y59003D01*
X122937Y58873D01*
X122872Y58762D01*
X122808Y58660D01*
X122752Y58568D01*
X122697Y58503D01*
X122651Y58447D01*
X122623Y58411D01*
X122614Y58401D01*
X122521Y58309D01*
X122429Y58235D01*
X122327Y58170D01*
X122243Y58114D01*
X122160Y58068D01*
X122105Y58040D01*
X122068Y58022D01*
X122049Y58013D01*
X121929Y57967D01*
X121809Y57939D01*
X121698Y57911D01*
X121596Y57902D01*
X121503Y57893D01*
X121439Y57883D01*
X121393D01*
X121374D01*
Y58910D01*
X121522Y58919D01*
X121661Y58938D01*
X121772Y58975D01*
X121864Y59012D01*
X121938Y59049D01*
X121985Y59086D01*
X122021Y59104D01*
X122031Y59114D01*
X122114Y59206D01*
X122169Y59308D01*
X122216Y59409D01*
X122243Y59511D01*
X122262Y59604D01*
X122271Y59678D01*
Y59752D01*
X122262Y59863D01*
X122243Y59955D01*
X122234Y59992D01*
X122225Y60020D01*
X122216Y60029D01*
Y60039D01*
X122169Y60131D01*
X122123Y60205D01*
X122086Y60251D01*
X122077Y60270D01*
X122068D01*
X121994Y60334D01*
X121911Y60372D01*
X121855Y60399D01*
X121836Y60409D01*
X121827D01*
X121716Y60445D01*
X121615Y60455D01*
X121578Y60464D01*
X121540D01*
X121522D01*
X121513D01*
X121420Y60455D01*
X121337Y60445D01*
X121272Y60436D01*
X121263Y60427D01*
X121254D01*
X121152Y60390D01*
X121069Y60353D01*
X121032Y60325D01*
X121004Y60316D01*
X120985Y60298D01*
X120976D01*
X120865Y60224D01*
X120754Y60159D01*
X120708Y60122D01*
X120671Y60103D01*
X120652Y60085D01*
X120643Y60075D01*
X120504Y59965D01*
X120375Y59854D01*
X120329Y59807D01*
X120282Y59770D01*
X120255Y59742D01*
X120246Y59733D01*
X118368Y57985D01*
X117674D01*
Y61667D01*
X118497D01*
Y59298D01*
D02*
G37*
G36*
X124458Y60612D02*
X124578Y60575D01*
X124625Y60557D01*
X124662Y60547D01*
X124689Y60538D01*
X124698D01*
X124782Y60529D01*
X124874Y60519D01*
X124958Y60510D01*
X125050D01*
X125124Y60501D01*
X125180D01*
X125216D01*
X125235D01*
X126955D01*
X127076Y60492D01*
X127196Y60483D01*
X127298Y60464D01*
X127381Y60436D01*
X127455Y60409D01*
X127510Y60390D01*
X127548Y60381D01*
X127557Y60372D01*
X127649Y60316D01*
X127742Y60260D01*
X127816Y60205D01*
X127881Y60140D01*
X127927Y60094D01*
X127973Y60048D01*
X127991Y60020D01*
X128001Y60011D01*
X128112Y59826D01*
X128158Y59733D01*
X128195Y59650D01*
X128223Y59576D01*
X128241Y59521D01*
X128260Y59483D01*
Y59465D01*
X128315Y59234D01*
X128334Y59114D01*
X128343Y59012D01*
X128352Y58919D01*
Y58642D01*
X128334Y58512D01*
X128324Y58392D01*
X128306Y58281D01*
X128287Y58198D01*
X128269Y58133D01*
X128260Y58096D01*
X128251Y58078D01*
X128214Y57967D01*
X128167Y57865D01*
X128121Y57772D01*
X128075Y57689D01*
X128038Y57624D01*
X128001Y57578D01*
X127982Y57550D01*
X127973Y57541D01*
X127908Y57467D01*
X127843Y57402D01*
X127779Y57347D01*
X127714Y57301D01*
X127658Y57263D01*
X127612Y57236D01*
X127585Y57227D01*
X127575Y57217D01*
X127492Y57180D01*
X127400Y57152D01*
X127316Y57134D01*
X127242Y57125D01*
X127178Y57116D01*
X127131Y57106D01*
X127094D01*
X127085D01*
Y58133D01*
X127168Y58142D01*
X127242Y58152D01*
X127298Y58179D01*
X127353Y58207D01*
X127390Y58226D01*
X127418Y58253D01*
X127436Y58262D01*
X127446Y58272D01*
X127492Y58337D01*
X127529Y58411D01*
X127548Y58485D01*
X127566Y58558D01*
X127575Y58623D01*
X127585Y58679D01*
Y58734D01*
X127575Y58864D01*
X127557Y58975D01*
X127529Y59067D01*
X127501Y59141D01*
X127473Y59206D01*
X127446Y59243D01*
X127427Y59271D01*
X127418Y59280D01*
X127353Y59345D01*
X127279Y59391D01*
X127196Y59428D01*
X127122Y59447D01*
X127057Y59465D01*
X127002Y59474D01*
X126965D01*
X126955D01*
X126724D01*
Y58734D01*
X126706Y58568D01*
X126697Y58420D01*
X126669Y58281D01*
X126641Y58152D01*
X126613Y58040D01*
X126585Y57929D01*
X126549Y57837D01*
X126512Y57754D01*
X126484Y57689D01*
X126456Y57624D01*
X126428Y57578D01*
X126410Y57532D01*
X126391Y57504D01*
X126373Y57495D01*
Y57486D01*
X126308Y57402D01*
X126234Y57328D01*
X126160Y57263D01*
X126077Y57217D01*
X125919Y57125D01*
X125762Y57069D01*
X125614Y57042D01*
X125559Y57032D01*
X125503Y57023D01*
X125466Y57014D01*
X125429D01*
X125411D01*
X125401D01*
X125309Y57023D01*
X125216Y57032D01*
X125133Y57051D01*
X125068Y57069D01*
X125004Y57088D01*
X124958Y57097D01*
X124930Y57116D01*
X124920D01*
X124773Y57208D01*
X124708Y57254D01*
X124652Y57310D01*
X124606Y57347D01*
X124569Y57384D01*
X124550Y57402D01*
X124541Y57411D01*
X124440Y57560D01*
X124356Y57698D01*
X124328Y57754D01*
X124310Y57809D01*
X124292Y57837D01*
Y57846D01*
X124245Y58050D01*
X124227Y58142D01*
X124217Y58235D01*
Y58309D01*
X124208Y58364D01*
Y58420D01*
X124217Y58549D01*
X124227Y58660D01*
X124236Y58706D01*
Y58734D01*
X124245Y58753D01*
Y58762D01*
X124273Y58882D01*
X124310Y58975D01*
X124319Y59012D01*
X124328Y59039D01*
X124338Y59049D01*
Y59058D01*
X124384Y59160D01*
X124430Y59234D01*
X124467Y59289D01*
X124477Y59298D01*
Y59308D01*
X124541Y59391D01*
X124597Y59456D01*
X124634Y59493D01*
X124652Y59511D01*
X124578Y59530D01*
X124513Y59539D01*
X124467Y59548D01*
X124449D01*
X124384Y59567D01*
X124328Y59595D01*
X124292Y59604D01*
X124282Y59613D01*
Y60658D01*
X124338D01*
X124458Y60612D01*
D02*
G37*
G36*
X121198Y57097D02*
X121374Y57088D01*
X121531Y57069D01*
X121661Y57051D01*
X121772Y57023D01*
X121855Y57004D01*
X121911Y56995D01*
X121929Y56986D01*
X122068Y56940D01*
X122197Y56884D01*
X122318Y56819D01*
X122410Y56764D01*
X122493Y56718D01*
X122549Y56672D01*
X122586Y56644D01*
X122595Y56634D01*
X122687Y56542D01*
X122771Y56450D01*
X122836Y56357D01*
X122891Y56274D01*
X122937Y56191D01*
X122965Y56135D01*
X122984Y56098D01*
X122993Y56080D01*
X123039Y55959D01*
X123076Y55830D01*
X123094Y55709D01*
X123113Y55589D01*
X123122Y55497D01*
X123132Y55414D01*
Y55349D01*
X123122Y55201D01*
X123113Y55062D01*
X123085Y54942D01*
X123067Y54831D01*
X123039Y54738D01*
X123011Y54673D01*
X123002Y54637D01*
X122993Y54618D01*
X122937Y54498D01*
X122872Y54396D01*
X122808Y54303D01*
X122743Y54220D01*
X122687Y54155D01*
X122641Y54100D01*
X122604Y54072D01*
X122595Y54063D01*
X122493Y53989D01*
X122382Y53915D01*
X122271Y53860D01*
X122160Y53813D01*
X122068Y53767D01*
X121994Y53739D01*
X121948Y53730D01*
X121938Y53721D01*
X121929D01*
X121772Y53684D01*
X121615Y53656D01*
X121457Y53628D01*
X121318Y53619D01*
X121189Y53610D01*
X121097Y53601D01*
X121060D01*
X121032D01*
X121013D01*
X121004D01*
X119718D01*
X119533Y53610D01*
X119358Y53619D01*
X119200Y53637D01*
X119071Y53665D01*
X118960Y53684D01*
X118877Y53702D01*
X118821Y53711D01*
X118812Y53721D01*
X118802D01*
X118664Y53776D01*
X118534Y53832D01*
X118414Y53887D01*
X118322Y53943D01*
X118238Y53998D01*
X118183Y54035D01*
X118146Y54063D01*
X118137Y54072D01*
X118044Y54165D01*
X117961Y54257D01*
X117887Y54350D01*
X117831Y54433D01*
X117785Y54516D01*
X117757Y54572D01*
X117739Y54609D01*
X117729Y54627D01*
X117683Y54747D01*
X117656Y54877D01*
X117628Y54997D01*
X117619Y55117D01*
X117609Y55210D01*
X117600Y55293D01*
Y55358D01*
X117609Y55506D01*
X117619Y55645D01*
X117637Y55765D01*
X117665Y55876D01*
X117692Y55968D01*
X117711Y56033D01*
X117720Y56070D01*
X117729Y56089D01*
X117785Y56209D01*
X117850Y56311D01*
X117924Y56403D01*
X117989Y56486D01*
X118044Y56551D01*
X118090Y56598D01*
X118127Y56625D01*
X118137Y56634D01*
X118238Y56718D01*
X118359Y56792D01*
X118470Y56847D01*
X118571Y56893D01*
X118664Y56940D01*
X118738Y56968D01*
X118784Y56977D01*
X118802Y56986D01*
X118960Y57023D01*
X119117Y57060D01*
X119265Y57078D01*
X119413Y57088D01*
X119533Y57097D01*
X119635Y57106D01*
X119672D01*
X119700D01*
X119709D01*
X119718D01*
X121004D01*
X121198Y57097D01*
D02*
G37*
G36*
X125522Y56144D02*
X125614Y56135D01*
X125698Y56116D01*
X125771Y56089D01*
X125827Y56061D01*
X125873Y56042D01*
X125901Y56033D01*
X125910Y56024D01*
X126058Y55913D01*
X126114Y55857D01*
X126169Y55802D01*
X126216Y55747D01*
X126243Y55709D01*
X126262Y55682D01*
X126271Y55673D01*
X126373Y55497D01*
X126410Y55404D01*
X126447Y55321D01*
X126474Y55247D01*
X126493Y55191D01*
X126512Y55155D01*
Y55136D01*
X126576Y54896D01*
X126595Y54785D01*
X126622Y54683D01*
X126641Y54590D01*
X126650Y54526D01*
X126660Y54479D01*
Y54461D01*
X126678Y54368D01*
X126687Y54294D01*
X126706Y54220D01*
X126715Y54155D01*
X126724Y54109D01*
X126734Y54072D01*
X126743Y54054D01*
Y54045D01*
X126780Y53934D01*
X126817Y53860D01*
X126845Y53804D01*
X126854Y53795D01*
Y53786D01*
X126900Y53730D01*
X126946Y53684D01*
X126983Y53665D01*
X126992Y53656D01*
X127057Y53637D01*
X127103Y53628D01*
X127140Y53619D01*
X127159D01*
X127233Y53628D01*
X127288Y53647D01*
X127390Y53711D01*
X127427Y53749D01*
X127464Y53776D01*
X127473Y53795D01*
X127483Y53804D01*
X127529Y53878D01*
X127557Y53970D01*
X127594Y54146D01*
X127603Y54229D01*
X127612Y54294D01*
Y54350D01*
X127603Y54479D01*
X127585Y54599D01*
X127566Y54692D01*
X127538Y54775D01*
X127501Y54840D01*
X127483Y54877D01*
X127464Y54905D01*
X127455Y54914D01*
X127390Y54979D01*
X127325Y55025D01*
X127261Y55062D01*
X127205Y55080D01*
X127150Y55099D01*
X127103Y55108D01*
X127076D01*
X127067D01*
Y56135D01*
X127168Y56126D01*
X127261Y56116D01*
X127353Y56098D01*
X127427Y56080D01*
X127492Y56052D01*
X127538Y56033D01*
X127566Y56024D01*
X127575Y56015D01*
X127658Y55968D01*
X127742Y55913D01*
X127806Y55848D01*
X127871Y55793D01*
X127918Y55747D01*
X127954Y55700D01*
X127973Y55673D01*
X127982Y55663D01*
X128047Y55571D01*
X128103Y55478D01*
X128149Y55386D01*
X128186Y55293D01*
X128214Y55219D01*
X128232Y55155D01*
X128251Y55117D01*
Y55099D01*
X128287Y54970D01*
X128306Y54840D01*
X128324Y54720D01*
X128343Y54599D01*
Y54498D01*
X128352Y54424D01*
Y54202D01*
X128334Y54072D01*
X128324Y53943D01*
X128306Y53841D01*
X128287Y53749D01*
X128269Y53684D01*
X128260Y53647D01*
X128251Y53628D01*
X128214Y53517D01*
X128167Y53416D01*
X128121Y53323D01*
X128084Y53240D01*
X128047Y53175D01*
X128010Y53129D01*
X127991Y53101D01*
X127982Y53092D01*
X127918Y53018D01*
X127853Y52944D01*
X127788Y52888D01*
X127723Y52842D01*
X127668Y52796D01*
X127621Y52768D01*
X127594Y52759D01*
X127585Y52750D01*
X127501Y52713D01*
X127418Y52685D01*
X127335Y52657D01*
X127270Y52648D01*
X127205Y52639D01*
X127159Y52629D01*
X127122D01*
X127113D01*
X127020Y52639D01*
X126937Y52648D01*
X126863Y52666D01*
X126789Y52685D01*
X126734Y52703D01*
X126697Y52722D01*
X126669Y52740D01*
X126660D01*
X126521Y52842D01*
X126419Y52944D01*
X126373Y52990D01*
X126345Y53027D01*
X126327Y53055D01*
X126317Y53064D01*
X126216Y53231D01*
X126169Y53314D01*
X126132Y53397D01*
X126104Y53462D01*
X126077Y53517D01*
X126067Y53554D01*
X126058Y53563D01*
X125984Y53786D01*
X125956Y53896D01*
X125929Y53998D01*
X125910Y54081D01*
X125892Y54155D01*
X125882Y54193D01*
Y54211D01*
X125864Y54313D01*
X125846Y54396D01*
X125827Y54479D01*
X125818Y54544D01*
X125799Y54590D01*
X125790Y54637D01*
X125781Y54655D01*
Y54664D01*
X125744Y54785D01*
X125707Y54886D01*
X125698Y54914D01*
X125679Y54942D01*
X125670Y54951D01*
Y54960D01*
X125624Y55034D01*
X125577Y55080D01*
X125540Y55099D01*
X125531Y55108D01*
X125476Y55136D01*
X125429Y55145D01*
X125392Y55155D01*
X125374D01*
X125309Y55145D01*
X125244Y55127D01*
X125189Y55090D01*
X125143Y55053D01*
X125106Y55016D01*
X125078Y54979D01*
X125068Y54960D01*
X125059Y54951D01*
X125022Y54868D01*
X124995Y54775D01*
X124958Y54590D01*
X124948Y54507D01*
X124939Y54442D01*
Y54378D01*
X124948Y54257D01*
X124958Y54155D01*
Y54109D01*
X124967Y54081D01*
Y54054D01*
X125004Y53943D01*
X125041Y53850D01*
X125050Y53813D01*
X125068Y53786D01*
X125078Y53776D01*
Y53767D01*
X125143Y53684D01*
X125198Y53619D01*
X125244Y53582D01*
X125263Y53563D01*
X125355Y53517D01*
X125448Y53499D01*
X125494Y53490D01*
X125522Y53480D01*
X125540D01*
X125549D01*
Y52500D01*
X125457Y52509D01*
X125364Y52518D01*
X125281Y52537D01*
X125207Y52565D01*
X125152Y52583D01*
X125106Y52601D01*
X125068Y52611D01*
X125059Y52620D01*
X124976Y52666D01*
X124893Y52722D01*
X124819Y52786D01*
X124754Y52842D01*
X124698Y52888D01*
X124662Y52934D01*
X124634Y52962D01*
X124625Y52972D01*
X124560Y53064D01*
X124495Y53166D01*
X124449Y53258D01*
X124402Y53351D01*
X124365Y53434D01*
X124338Y53499D01*
X124328Y53536D01*
X124319Y53554D01*
X124282Y53684D01*
X124255Y53822D01*
X124236Y53961D01*
X124227Y54081D01*
X124217Y54193D01*
X124208Y54276D01*
Y54498D01*
X124217Y54646D01*
X124236Y54766D01*
X124255Y54877D01*
X124264Y54970D01*
X124282Y55044D01*
X124292Y55080D01*
Y55099D01*
X124328Y55219D01*
X124365Y55330D01*
X124412Y55423D01*
X124449Y55506D01*
X124486Y55571D01*
X124513Y55626D01*
X124532Y55654D01*
X124541Y55663D01*
X124606Y55747D01*
X124671Y55821D01*
X124735Y55876D01*
X124800Y55932D01*
X124846Y55968D01*
X124893Y55996D01*
X124920Y56015D01*
X124930Y56024D01*
X125013Y56070D01*
X125096Y56098D01*
X125180Y56126D01*
X125263Y56135D01*
X125328Y56144D01*
X125374Y56154D01*
X125411D01*
X125420D01*
X125522Y56144D01*
D02*
G37*
G36*
X126549Y51676D02*
X126697Y51667D01*
X126835Y51649D01*
X126955Y51621D01*
X127048Y51593D01*
X127122Y51575D01*
X127168Y51565D01*
X127187Y51556D01*
X127316Y51510D01*
X127436Y51445D01*
X127538Y51390D01*
X127631Y51334D01*
X127705Y51279D01*
X127760Y51232D01*
X127797Y51205D01*
X127806Y51196D01*
X127899Y51103D01*
X127982Y51011D01*
X128047Y50909D01*
X128103Y50826D01*
X128149Y50742D01*
X128176Y50678D01*
X128195Y50640D01*
X128204Y50622D01*
X128251Y50493D01*
X128287Y50363D01*
X128315Y50234D01*
X128334Y50113D01*
X128343Y50011D01*
X128352Y49928D01*
Y49854D01*
X128343Y49706D01*
X128324Y49558D01*
X128306Y49429D01*
X128278Y49308D01*
X128241Y49216D01*
X128223Y49142D01*
X128204Y49096D01*
X128195Y49077D01*
X128130Y48948D01*
X128066Y48837D01*
X127991Y48726D01*
X127927Y48643D01*
X127862Y48568D01*
X127816Y48513D01*
X127779Y48476D01*
X127769Y48467D01*
X127668Y48374D01*
X127557Y48291D01*
X127446Y48226D01*
X127344Y48171D01*
X127261Y48125D01*
X127187Y48087D01*
X127140Y48069D01*
X127122Y48060D01*
X126974Y48013D01*
X126835Y47976D01*
X126697Y47958D01*
X126567Y47940D01*
X126456Y47930D01*
X126364Y47921D01*
X126308D01*
X126299D01*
X126289D01*
X126142D01*
X125994Y47930D01*
X125855Y47949D01*
X125725Y47967D01*
X125614Y47995D01*
X125513Y48023D01*
X125448Y48050D01*
X125401Y48060D01*
X125383Y48069D01*
X125253Y48134D01*
X125143Y48199D01*
X125031Y48263D01*
X124939Y48337D01*
X124865Y48393D01*
X124810Y48439D01*
X124773Y48476D01*
X124763Y48485D01*
X124671Y48587D01*
X124588Y48698D01*
X124523Y48809D01*
X124467Y48911D01*
X124421Y49003D01*
X124384Y49068D01*
X124365Y49114D01*
X124356Y49133D01*
X124310Y49281D01*
X124273Y49429D01*
X124245Y49567D01*
X124227Y49697D01*
X124217Y49808D01*
X124208Y49900D01*
Y49975D01*
X124217Y50187D01*
X124227Y50280D01*
X124245Y50363D01*
X124255Y50428D01*
X124264Y50474D01*
X124273Y50511D01*
Y50520D01*
X124319Y50705D01*
X124347Y50779D01*
X124375Y50853D01*
X124393Y50909D01*
X124412Y50946D01*
X124430Y50973D01*
Y50983D01*
X124513Y51131D01*
X124550Y51186D01*
X124588Y51242D01*
X124615Y51288D01*
X124643Y51316D01*
X124652Y51334D01*
X124662Y51344D01*
X124754Y51455D01*
X124846Y51529D01*
X124883Y51565D01*
X124902Y51584D01*
X124920Y51603D01*
X124930D01*
X125485Y51085D01*
X125411Y51020D01*
X125346Y50955D01*
X125300Y50899D01*
X125281Y50890D01*
Y50881D01*
X125226Y50788D01*
X125180Y50705D01*
X125161Y50668D01*
X125152Y50650D01*
X125143Y50631D01*
Y50622D01*
X125106Y50520D01*
X125078Y50428D01*
X125068Y50391D01*
Y50363D01*
X125059Y50345D01*
Y50335D01*
X125041Y50224D01*
X125031Y50132D01*
Y50039D01*
X125041Y49882D01*
X125050Y49817D01*
X125068Y49753D01*
X125078Y49706D01*
X125087Y49669D01*
X125096Y49641D01*
Y49632D01*
X125152Y49512D01*
X125216Y49410D01*
X125244Y49373D01*
X125263Y49345D01*
X125272Y49327D01*
X125281Y49318D01*
X125374Y49225D01*
X125466Y49151D01*
X125513Y49123D01*
X125540Y49105D01*
X125559Y49086D01*
X125568D01*
X125698Y49031D01*
X125827Y48994D01*
X125873Y48985D01*
X125910Y48976D01*
X125938Y48966D01*
X125947D01*
Y51686D01*
X126382D01*
X126549Y51676D01*
D02*
G37*
G36*
X118497Y50215D02*
X119570Y51232D01*
X119764Y51417D01*
X119848Y51491D01*
X119922Y51565D01*
X119986Y51621D01*
X120042Y51667D01*
X120070Y51695D01*
X120079Y51704D01*
X120264Y51852D01*
X120338Y51917D01*
X120412Y51973D01*
X120477Y52009D01*
X120523Y52047D01*
X120551Y52065D01*
X120560Y52074D01*
X120736Y52176D01*
X120819Y52222D01*
X120893Y52250D01*
X120949Y52278D01*
X121004Y52296D01*
X121032Y52315D01*
X121041D01*
X121226Y52361D01*
X121309Y52380D01*
X121393Y52389D01*
X121457Y52398D01*
X121503D01*
X121540D01*
X121550D01*
X121679D01*
X121800Y52380D01*
X121911Y52361D01*
X122003Y52342D01*
X122077Y52324D01*
X122142Y52306D01*
X122179Y52296D01*
X122188Y52287D01*
X122299Y52241D01*
X122391Y52194D01*
X122475Y52139D01*
X122549Y52083D01*
X122604Y52037D01*
X122651Y52000D01*
X122678Y51973D01*
X122687Y51963D01*
X122761Y51880D01*
X122826Y51788D01*
X122882Y51704D01*
X122928Y51612D01*
X122965Y51538D01*
X122993Y51482D01*
X123002Y51445D01*
X123011Y51427D01*
X123048Y51306D01*
X123085Y51186D01*
X123104Y51057D01*
X123113Y50946D01*
X123122Y50853D01*
X123132Y50770D01*
Y50705D01*
X123122Y50548D01*
X123113Y50400D01*
X123085Y50261D01*
X123067Y50150D01*
X123039Y50058D01*
X123011Y49984D01*
X123002Y49937D01*
X122993Y49919D01*
X122937Y49790D01*
X122872Y49679D01*
X122808Y49577D01*
X122752Y49484D01*
X122697Y49420D01*
X122651Y49364D01*
X122623Y49327D01*
X122614Y49318D01*
X122521Y49225D01*
X122429Y49151D01*
X122327Y49086D01*
X122243Y49031D01*
X122160Y48985D01*
X122105Y48957D01*
X122068Y48939D01*
X122049Y48929D01*
X121929Y48883D01*
X121809Y48855D01*
X121698Y48827D01*
X121596Y48818D01*
X121503Y48809D01*
X121439Y48800D01*
X121393D01*
X121374D01*
Y49826D01*
X121522Y49836D01*
X121661Y49854D01*
X121772Y49891D01*
X121864Y49928D01*
X121938Y49965D01*
X121985Y50002D01*
X122021Y50021D01*
X122031Y50030D01*
X122114Y50122D01*
X122169Y50224D01*
X122216Y50326D01*
X122243Y50428D01*
X122262Y50520D01*
X122271Y50594D01*
Y50668D01*
X122262Y50779D01*
X122243Y50872D01*
X122234Y50909D01*
X122225Y50937D01*
X122216Y50946D01*
Y50955D01*
X122169Y51047D01*
X122123Y51121D01*
X122086Y51168D01*
X122077Y51186D01*
X122068D01*
X121994Y51251D01*
X121911Y51288D01*
X121855Y51316D01*
X121836Y51325D01*
X121827D01*
X121716Y51362D01*
X121615Y51371D01*
X121578Y51380D01*
X121540D01*
X121522D01*
X121513D01*
X121420Y51371D01*
X121337Y51362D01*
X121272Y51353D01*
X121263Y51344D01*
X121254D01*
X121152Y51306D01*
X121069Y51270D01*
X121032Y51242D01*
X121004Y51232D01*
X120985Y51214D01*
X120976D01*
X120865Y51140D01*
X120754Y51075D01*
X120708Y51038D01*
X120671Y51020D01*
X120652Y51001D01*
X120643Y50992D01*
X120504Y50881D01*
X120375Y50770D01*
X120329Y50724D01*
X120282Y50687D01*
X120255Y50659D01*
X120246Y50650D01*
X118368Y48902D01*
X117674D01*
Y52583D01*
X118497D01*
Y50215D01*
D02*
G37*
G36*
X127390Y47172D02*
X127575Y47153D01*
X127742Y47126D01*
X127890Y47098D01*
X128010Y47070D01*
X128103Y47042D01*
X128139Y47033D01*
X128167Y47024D01*
X128176Y47014D01*
X128186D01*
X128352Y46950D01*
X128500Y46867D01*
X128630Y46793D01*
X128741Y46709D01*
X128833Y46644D01*
X128907Y46589D01*
X128944Y46552D01*
X128963Y46534D01*
X129083Y46413D01*
X129185Y46293D01*
X129277Y46163D01*
X129351Y46053D01*
X129407Y45951D01*
X129444Y45867D01*
X129472Y45812D01*
X129481Y45803D01*
Y45794D01*
X129545Y45627D01*
X129592Y45461D01*
X129620Y45294D01*
X129647Y45146D01*
X129657Y45017D01*
X129666Y44915D01*
Y43426D01*
X124282D01*
Y44878D01*
X124292Y45063D01*
X124310Y45239D01*
X124338Y45396D01*
X124375Y45535D01*
X124402Y45655D01*
X124430Y45738D01*
X124449Y45794D01*
X124458Y45812D01*
X124532Y45969D01*
X124615Y46108D01*
X124698Y46228D01*
X124782Y46339D01*
X124856Y46422D01*
X124911Y46487D01*
X124948Y46534D01*
X124967Y46543D01*
X125096Y46654D01*
X125226Y46746D01*
X125355Y46830D01*
X125476Y46894D01*
X125586Y46950D01*
X125670Y46987D01*
X125725Y47005D01*
X125734Y47014D01*
X125744D01*
X125919Y47070D01*
X126095Y47107D01*
X126262Y47144D01*
X126410Y47163D01*
X126549Y47172D01*
X126650Y47181D01*
X126687D01*
X126715D01*
X126734D01*
X126743D01*
X127187D01*
X127390Y47172D01*
D02*
G37*
G36*
X127039Y37959D02*
X127168Y37949D01*
X127279Y37931D01*
X127363Y37912D01*
X127427Y37894D01*
X127473Y37885D01*
X127483Y37876D01*
X127594Y37839D01*
X127686Y37792D01*
X127779Y37737D01*
X127843Y37690D01*
X127908Y37653D01*
X127945Y37617D01*
X127973Y37598D01*
X127982Y37589D01*
X128047Y37524D01*
X128112Y37450D01*
X128158Y37376D01*
X128195Y37302D01*
X128223Y37247D01*
X128241Y37200D01*
X128260Y37163D01*
Y37154D01*
X128315Y36960D01*
X128334Y36867D01*
X128343Y36784D01*
X128352Y36710D01*
Y36599D01*
X128343Y36460D01*
X128324Y36340D01*
X128297Y36220D01*
X128269Y36127D01*
X128241Y36044D01*
X128214Y35979D01*
X128195Y35942D01*
X128186Y35924D01*
X128121Y35813D01*
X128047Y35711D01*
X127973Y35618D01*
X127899Y35544D01*
X127825Y35480D01*
X127769Y35434D01*
X127733Y35406D01*
X127723Y35397D01*
X128278Y35341D01*
Y34407D01*
X124282D01*
Y35434D01*
X127122D01*
X127242Y35535D01*
X127335Y35628D01*
X127363Y35674D01*
X127390Y35711D01*
X127409Y35730D01*
Y35739D01*
X127446Y35813D01*
X127473Y35887D01*
X127510Y36035D01*
Y36090D01*
X127520Y36136D01*
Y36183D01*
X127510Y36303D01*
X127501Y36405D01*
X127492Y36442D01*
Y36470D01*
X127483Y36488D01*
Y36497D01*
X127446Y36599D01*
X127409Y36673D01*
X127372Y36719D01*
X127353Y36738D01*
X127279Y36803D01*
X127205Y36858D01*
X127168Y36876D01*
X127140Y36886D01*
X127122Y36895D01*
X127113D01*
X126992Y36932D01*
X126863Y36941D01*
X126807Y36950D01*
X126761D01*
X126734D01*
X126724D01*
X124282D01*
Y37977D01*
X126743D01*
X126900D01*
X127039Y37959D01*
D02*
G37*
G36*
X124458Y33362D02*
X124578Y33325D01*
X124625Y33306D01*
X124662Y33297D01*
X124689Y33288D01*
X124698D01*
X124782Y33278D01*
X124874Y33269D01*
X124958Y33260D01*
X125050D01*
X125124Y33250D01*
X125180D01*
X125216D01*
X125235D01*
X126955D01*
X127076Y33241D01*
X127196Y33232D01*
X127298Y33213D01*
X127381Y33186D01*
X127455Y33158D01*
X127510Y33140D01*
X127548Y33130D01*
X127557Y33121D01*
X127649Y33066D01*
X127742Y33010D01*
X127816Y32954D01*
X127881Y32890D01*
X127927Y32844D01*
X127973Y32797D01*
X127991Y32770D01*
X128001Y32760D01*
X128112Y32575D01*
X128158Y32483D01*
X128195Y32399D01*
X128223Y32326D01*
X128241Y32270D01*
X128260Y32233D01*
Y32214D01*
X128315Y31983D01*
X128334Y31863D01*
X128343Y31761D01*
X128352Y31669D01*
Y31391D01*
X128334Y31262D01*
X128324Y31141D01*
X128306Y31030D01*
X128287Y30947D01*
X128269Y30882D01*
X128260Y30845D01*
X128251Y30827D01*
X128214Y30716D01*
X128167Y30614D01*
X128121Y30522D01*
X128075Y30439D01*
X128038Y30374D01*
X128001Y30327D01*
X127982Y30300D01*
X127973Y30290D01*
X127908Y30217D01*
X127843Y30152D01*
X127779Y30096D01*
X127714Y30050D01*
X127658Y30013D01*
X127612Y29985D01*
X127585Y29976D01*
X127575Y29967D01*
X127492Y29930D01*
X127400Y29902D01*
X127316Y29884D01*
X127242Y29874D01*
X127178Y29865D01*
X127131Y29856D01*
X127094D01*
X127085D01*
Y30882D01*
X127168Y30892D01*
X127242Y30901D01*
X127298Y30929D01*
X127353Y30957D01*
X127390Y30975D01*
X127418Y31003D01*
X127436Y31012D01*
X127446Y31021D01*
X127492Y31086D01*
X127529Y31160D01*
X127548Y31234D01*
X127566Y31308D01*
X127575Y31373D01*
X127585Y31428D01*
Y31484D01*
X127575Y31613D01*
X127557Y31724D01*
X127529Y31817D01*
X127501Y31891D01*
X127473Y31956D01*
X127446Y31993D01*
X127427Y32020D01*
X127418Y32030D01*
X127353Y32094D01*
X127279Y32140D01*
X127196Y32177D01*
X127122Y32196D01*
X127057Y32214D01*
X127002Y32224D01*
X126965D01*
X126955D01*
X126724D01*
Y31484D01*
X126706Y31317D01*
X126697Y31169D01*
X126669Y31030D01*
X126641Y30901D01*
X126613Y30790D01*
X126585Y30679D01*
X126549Y30586D01*
X126512Y30503D01*
X126484Y30439D01*
X126456Y30374D01*
X126428Y30327D01*
X126410Y30281D01*
X126391Y30253D01*
X126373Y30244D01*
Y30235D01*
X126308Y30152D01*
X126234Y30078D01*
X126160Y30013D01*
X126077Y29967D01*
X125919Y29874D01*
X125762Y29819D01*
X125614Y29791D01*
X125559Y29782D01*
X125503Y29772D01*
X125466Y29763D01*
X125429D01*
X125411D01*
X125401D01*
X125309Y29772D01*
X125216Y29782D01*
X125133Y29800D01*
X125068Y29819D01*
X125004Y29837D01*
X124958Y29847D01*
X124930Y29865D01*
X124920D01*
X124773Y29958D01*
X124708Y30004D01*
X124652Y30059D01*
X124606Y30096D01*
X124569Y30133D01*
X124550Y30152D01*
X124541Y30161D01*
X124440Y30309D01*
X124356Y30448D01*
X124328Y30503D01*
X124310Y30559D01*
X124292Y30586D01*
Y30596D01*
X124245Y30799D01*
X124227Y30892D01*
X124217Y30984D01*
Y31058D01*
X124208Y31114D01*
Y31169D01*
X124217Y31299D01*
X124227Y31410D01*
X124236Y31456D01*
Y31484D01*
X124245Y31502D01*
Y31512D01*
X124273Y31632D01*
X124310Y31724D01*
X124319Y31761D01*
X124328Y31789D01*
X124338Y31798D01*
Y31808D01*
X124384Y31909D01*
X124430Y31983D01*
X124467Y32039D01*
X124477Y32048D01*
Y32057D01*
X124541Y32140D01*
X124597Y32205D01*
X124634Y32242D01*
X124652Y32261D01*
X124578Y32279D01*
X124513Y32289D01*
X124467Y32298D01*
X124449D01*
X124384Y32316D01*
X124328Y32344D01*
X124292Y32353D01*
X124282Y32362D01*
Y33408D01*
X124338D01*
X124458Y33362D01*
D02*
G37*
G36*
X125152Y28773D02*
X125143Y28718D01*
X125124Y28662D01*
X125115Y28626D01*
Y28607D01*
X125106Y28533D01*
X125087Y28468D01*
X125078Y28413D01*
Y28394D01*
X125068Y28311D01*
X125059Y28237D01*
X125050Y28172D01*
Y28154D01*
X125041Y28071D01*
Y27922D01*
X125050Y27802D01*
X125059Y27710D01*
X125068Y27673D01*
Y27654D01*
X125078Y27636D01*
Y27626D01*
X125115Y27534D01*
X125152Y27469D01*
X125189Y27423D01*
X125198Y27404D01*
X125272Y27340D01*
X125355Y27294D01*
X125411Y27266D01*
X125429Y27257D01*
X125438D01*
X125559Y27229D01*
X125679Y27220D01*
X125725Y27210D01*
X125762D01*
X125790D01*
X125799D01*
X127520D01*
Y28699D01*
X128278D01*
Y27210D01*
X129259D01*
Y26184D01*
X128278D01*
Y25268D01*
X127520D01*
Y26184D01*
X125698D01*
X125559Y26193D01*
X125429Y26202D01*
X125309Y26221D01*
X125216Y26239D01*
X125133Y26258D01*
X125078Y26267D01*
X125031Y26285D01*
X125022D01*
X124920Y26331D01*
X124828Y26378D01*
X124745Y26424D01*
X124680Y26470D01*
X124625Y26507D01*
X124588Y26544D01*
X124560Y26563D01*
X124550Y26572D01*
X124440Y26729D01*
X124356Y26877D01*
X124328Y26942D01*
X124310Y26988D01*
X124292Y27025D01*
Y27035D01*
X124245Y27238D01*
X124227Y27340D01*
X124217Y27432D01*
Y27516D01*
X124208Y27580D01*
Y27756D01*
X124217Y27867D01*
Y27913D01*
X124227Y27950D01*
Y27978D01*
X124245Y28108D01*
X124255Y28209D01*
X124264Y28256D01*
X124273Y28283D01*
Y28311D01*
X124292Y28431D01*
X124310Y28533D01*
X124319Y28570D01*
X124328Y28598D01*
X124338Y28616D01*
Y28626D01*
X124375Y28727D01*
X124412Y28811D01*
X124440Y28857D01*
X124449Y28875D01*
X125152Y28773D01*
D02*
G37*
G36*
X126549Y24426D02*
X126697Y24417D01*
X126835Y24398D01*
X126955Y24371D01*
X127048Y24343D01*
X127122Y24324D01*
X127168Y24315D01*
X127187Y24306D01*
X127316Y24260D01*
X127436Y24195D01*
X127538Y24139D01*
X127631Y24084D01*
X127705Y24028D01*
X127760Y23982D01*
X127797Y23954D01*
X127806Y23945D01*
X127899Y23853D01*
X127982Y23760D01*
X128047Y23658D01*
X128103Y23575D01*
X128149Y23492D01*
X128176Y23427D01*
X128195Y23390D01*
X128204Y23371D01*
X128251Y23242D01*
X128287Y23112D01*
X128315Y22983D01*
X128334Y22863D01*
X128343Y22761D01*
X128352Y22678D01*
Y22604D01*
X128343Y22456D01*
X128324Y22308D01*
X128306Y22178D01*
X128278Y22058D01*
X128241Y21966D01*
X128223Y21892D01*
X128204Y21845D01*
X128195Y21827D01*
X128130Y21697D01*
X128066Y21586D01*
X127991Y21475D01*
X127927Y21392D01*
X127862Y21318D01*
X127816Y21262D01*
X127779Y21226D01*
X127769Y21216D01*
X127668Y21124D01*
X127557Y21041D01*
X127446Y20976D01*
X127344Y20920D01*
X127261Y20874D01*
X127187Y20837D01*
X127140Y20819D01*
X127122Y20809D01*
X126974Y20763D01*
X126835Y20726D01*
X126697Y20707D01*
X126567Y20689D01*
X126456Y20680D01*
X126364Y20671D01*
X126308D01*
X126299D01*
X126289D01*
X126142D01*
X125994Y20680D01*
X125855Y20698D01*
X125725Y20717D01*
X125614Y20744D01*
X125513Y20772D01*
X125448Y20800D01*
X125401Y20809D01*
X125383Y20819D01*
X125253Y20883D01*
X125143Y20948D01*
X125031Y21013D01*
X124939Y21087D01*
X124865Y21142D01*
X124810Y21189D01*
X124773Y21226D01*
X124763Y21235D01*
X124671Y21337D01*
X124588Y21448D01*
X124523Y21558D01*
X124467Y21660D01*
X124421Y21753D01*
X124384Y21817D01*
X124365Y21864D01*
X124356Y21882D01*
X124310Y22030D01*
X124273Y22178D01*
X124245Y22317D01*
X124227Y22446D01*
X124217Y22558D01*
X124208Y22650D01*
Y22724D01*
X124217Y22937D01*
X124227Y23029D01*
X124245Y23112D01*
X124255Y23177D01*
X124264Y23223D01*
X124273Y23260D01*
Y23270D01*
X124319Y23455D01*
X124347Y23529D01*
X124375Y23603D01*
X124393Y23658D01*
X124412Y23695D01*
X124430Y23723D01*
Y23732D01*
X124513Y23880D01*
X124550Y23936D01*
X124588Y23991D01*
X124615Y24037D01*
X124643Y24065D01*
X124652Y24084D01*
X124662Y24093D01*
X124754Y24204D01*
X124846Y24278D01*
X124883Y24315D01*
X124902Y24333D01*
X124920Y24352D01*
X124930D01*
X125485Y23834D01*
X125411Y23769D01*
X125346Y23705D01*
X125300Y23649D01*
X125281Y23640D01*
Y23630D01*
X125226Y23538D01*
X125180Y23455D01*
X125161Y23418D01*
X125152Y23399D01*
X125143Y23381D01*
Y23371D01*
X125106Y23270D01*
X125078Y23177D01*
X125068Y23140D01*
Y23112D01*
X125059Y23094D01*
Y23085D01*
X125041Y22974D01*
X125031Y22881D01*
Y22789D01*
X125041Y22632D01*
X125050Y22567D01*
X125068Y22502D01*
X125078Y22456D01*
X125087Y22419D01*
X125096Y22391D01*
Y22382D01*
X125152Y22262D01*
X125216Y22160D01*
X125244Y22123D01*
X125263Y22095D01*
X125272Y22076D01*
X125281Y22067D01*
X125374Y21975D01*
X125466Y21901D01*
X125513Y21873D01*
X125540Y21855D01*
X125559Y21836D01*
X125568D01*
X125698Y21780D01*
X125827Y21744D01*
X125873Y21734D01*
X125910Y21725D01*
X125938Y21716D01*
X125947D01*
Y24435D01*
X126382D01*
X126549Y24426D01*
D02*
G37*
G36*
X127279Y18497D02*
X129666Y20310D01*
Y19033D01*
X127853Y17729D01*
X127196Y17239D01*
X129666D01*
Y16194D01*
X124282D01*
Y17239D01*
X125864D01*
X126493Y17803D01*
X124282Y19135D01*
Y20374D01*
X127279Y18497D01*
D02*
G37*
G36*
X77649Y39588D02*
X77640Y39661D01*
X77631Y39745D01*
X77612Y39856D01*
X77584Y39967D01*
X77547Y40078D01*
X77501Y40189D01*
X77492Y40198D01*
X77473Y40235D01*
X77446Y40290D01*
X77399Y40365D01*
X77344Y40439D01*
X77270Y40522D01*
X77187Y40605D01*
X77094Y40688D01*
X77085Y40698D01*
X77048Y40725D01*
X76992Y40762D01*
X76909Y40799D01*
X76817Y40855D01*
X76706Y40901D01*
X76585Y40947D01*
X76447Y40993D01*
X76428Y41003D01*
X76382Y41012D01*
X76299Y41030D01*
X76197Y41049D01*
X76077Y41067D01*
X75938Y41077D01*
X75781Y41095D01*
X77649D01*
Y39588D01*
D02*
G37*
G36*
X75771Y40050D02*
X75836D01*
X75919Y40041D01*
X76086Y40013D01*
X76095D01*
X76123Y40004D01*
X76169Y39994D01*
X76215Y39976D01*
X76336Y39930D01*
X76465Y39865D01*
X76474D01*
X76493Y39847D01*
X76521Y39828D01*
X76558Y39800D01*
X76641Y39717D01*
X76724Y39615D01*
Y39606D01*
X76743Y39588D01*
X76752Y39560D01*
X76770Y39513D01*
X76789Y39458D01*
X76798Y39393D01*
X76817Y39245D01*
Y39199D01*
X76807Y39153D01*
Y39088D01*
X76770Y38949D01*
X76743Y38875D01*
X76706Y38801D01*
Y38792D01*
X76687Y38774D01*
X76659Y38746D01*
X76632Y38709D01*
X76539Y38625D01*
X76410Y38542D01*
X74735D01*
X74726D01*
X74708Y38561D01*
X74671Y38579D01*
X74634Y38607D01*
X74532Y38690D01*
X74439Y38801D01*
Y38811D01*
X74421Y38829D01*
X74402Y38875D01*
X74384Y38921D01*
X74365Y38986D01*
X74347Y39070D01*
X74338Y39153D01*
X74328Y39255D01*
Y39292D01*
X74338Y39329D01*
Y39384D01*
X74365Y39504D01*
X74421Y39625D01*
Y39634D01*
X74439Y39652D01*
X74458Y39680D01*
X74486Y39717D01*
X74569Y39800D01*
X74680Y39874D01*
X74689Y39884D01*
X74708Y39893D01*
X74745Y39911D01*
X74791Y39930D01*
X74846Y39957D01*
X74911Y39976D01*
X75068Y40013D01*
X75078D01*
X75105Y40022D01*
X75152Y40031D01*
X75207Y40041D01*
X75281D01*
X75364Y40050D01*
X75540Y40059D01*
X75614D01*
X75623D01*
X75660D01*
X75707D01*
X75771Y40050D01*
D02*
G37*
G36*
X80800Y20005D02*
X72044D01*
Y37506D01*
X77575D01*
Y38459D01*
X77187Y38496D01*
X77196Y38505D01*
X77224Y38533D01*
X77261Y38570D01*
X77316Y38616D01*
X77372Y38681D01*
X77427Y38755D01*
X77483Y38838D01*
X77529Y38931D01*
X77538Y38940D01*
X77547Y38977D01*
X77566Y39033D01*
X77594Y39107D01*
X77612Y39190D01*
X77631Y39292D01*
X77640Y39402D01*
X77649Y39523D01*
Y37506D01*
D01*
Y41095D01*
X72044D01*
Y58735D01*
X80800D01*
Y20005D01*
D02*
G37*
G36*
X72044Y41095D02*
X75466D01*
X75383Y41086D01*
X75272D01*
X75152Y41067D01*
X75013Y41049D01*
X74874Y41030D01*
X74726Y40993D01*
X74708D01*
X74661Y40975D01*
X74597Y40947D01*
X74504Y40920D01*
X74402Y40873D01*
X74301Y40818D01*
X74190Y40762D01*
X74079Y40688D01*
X74069Y40679D01*
X74032Y40651D01*
X73986Y40614D01*
X73921Y40559D01*
X73857Y40485D01*
X73783Y40402D01*
X73718Y40300D01*
X73653Y40198D01*
X73644Y40189D01*
X73635Y40152D01*
X73607Y40087D01*
X73579Y40004D01*
X73551Y39911D01*
X73533Y39800D01*
X73514Y39671D01*
X73505Y39532D01*
Y39476D01*
X73514Y39421D01*
X73524Y39338D01*
X73533Y39255D01*
X73551Y39153D01*
X73579Y39051D01*
X73616Y38958D01*
X73625Y38949D01*
X73635Y38921D01*
X73662Y38875D01*
X73699Y38820D01*
X73792Y38681D01*
X73921Y38542D01*
X72044D01*
Y20005D01*
X63598D01*
Y58735D01*
X72044D01*
Y41095D01*
D02*
G37*
G36*
X39383Y42287D02*
X40260D01*
Y41698D01*
X39383D01*
Y40883D01*
X38823D01*
Y41698D01*
X37907D01*
Y42287D01*
X38823D01*
Y43097D01*
X39383D01*
Y42287D01*
D02*
G37*
G36*
X40815Y39734D02*
X38739D01*
X40815Y38840D01*
Y38213D01*
X37585D01*
Y38840D01*
X39666D01*
X37585Y39739D01*
Y40361D01*
X40815D01*
Y39734D01*
D02*
G37*
G36*
Y35643D02*
X40310D01*
Y36254D01*
X38085D01*
Y35643D01*
X37585D01*
Y37508D01*
X38085D01*
Y36881D01*
X40310D01*
Y37508D01*
X40815D01*
Y35643D01*
D02*
G37*
G36*
X19155Y41268D02*
X18656D01*
Y43116D01*
X19155D01*
Y41268D01*
D02*
G37*
G36*
X20715Y39714D02*
X18639D01*
X20715Y38821D01*
Y38194D01*
X17485D01*
Y38821D01*
X19566D01*
X17485Y39720D01*
Y40341D01*
X20715D01*
Y39714D01*
D02*
G37*
G36*
Y35624D02*
X20210D01*
Y36234D01*
X17985D01*
Y35624D01*
X17485D01*
Y37489D01*
X17985D01*
Y36862D01*
X20210D01*
Y37489D01*
X20715D01*
Y35624D01*
D02*
G37*
%LPC*%
G36*
X57102Y51504D02*
X56952D01*
Y51429D01*
X56425D01*
Y51354D01*
X56200D01*
Y51279D01*
X55975D01*
Y51204D01*
X55899D01*
Y51128D01*
X55749D01*
Y51053D01*
X55599D01*
Y50978D01*
X55523D01*
Y50903D01*
X55448D01*
Y50828D01*
X55373D01*
Y50753D01*
X55298D01*
Y50677D01*
X55223D01*
Y50602D01*
X55147D01*
Y50527D01*
X55072D01*
Y50452D01*
X54997D01*
Y50226D01*
X54922D01*
Y50151D01*
X54847D01*
Y50076D01*
X54772D01*
Y49775D01*
X54697D01*
Y49324D01*
X54621D01*
Y48798D01*
X54697D01*
Y48422D01*
X54772D01*
Y48197D01*
X54847D01*
Y48046D01*
X54922D01*
Y47896D01*
X54997D01*
Y47821D01*
X55072D01*
Y47670D01*
X55147D01*
Y47595D01*
X55223D01*
Y47520D01*
X55298D01*
Y47445D01*
X55373D01*
Y47370D01*
X55448D01*
Y47294D01*
X55523D01*
Y47219D01*
X55599D01*
Y47144D01*
X55749D01*
Y47069D01*
X55824D01*
Y46994D01*
X55975D01*
Y46918D01*
X56125D01*
Y46843D01*
X56350D01*
Y46768D01*
X56726D01*
Y46693D01*
X57253D01*
Y46768D01*
X57328D01*
Y46693D01*
X57403D01*
Y46768D01*
X57779D01*
Y46843D01*
X57854D01*
Y46918D01*
X58079D01*
Y46994D01*
X58230D01*
Y47069D01*
X58380D01*
Y47144D01*
X58455D01*
Y47219D01*
X58530D01*
Y47294D01*
X58606D01*
Y47370D01*
X58681D01*
Y47445D01*
X58756D01*
Y47520D01*
X58831D01*
Y47595D01*
X58906D01*
Y47670D01*
X58982D01*
Y47745D01*
X59057D01*
Y47896D01*
X59132D01*
Y48046D01*
X59207D01*
Y48272D01*
X59282D01*
Y48347D01*
X59358D01*
Y48648D01*
X59433D01*
Y49550D01*
X59358D01*
Y49850D01*
X59282D01*
Y49926D01*
X59207D01*
Y50151D01*
X59132D01*
Y50301D01*
X59057D01*
Y50377D01*
X58982D01*
Y50452D01*
X58906D01*
Y50602D01*
X58831D01*
Y50677D01*
X58756D01*
Y50753D01*
X58681D01*
Y50828D01*
X58606D01*
Y50903D01*
X58530D01*
Y50978D01*
X58380D01*
Y51053D01*
X58305D01*
Y51128D01*
X58230D01*
Y51204D01*
X58004D01*
Y51279D01*
X57779D01*
Y51354D01*
X57704D01*
Y51429D01*
X57102D01*
Y51504D01*
D02*
G37*
%LPD*%
G36*
X57315Y49340D02*
X58192D01*
Y48752D01*
X57315D01*
Y47936D01*
X56755D01*
Y48752D01*
X55839D01*
Y49340D01*
X56755D01*
Y50151D01*
X57315D01*
Y49340D01*
D02*
G37*
%LPC*%
G36*
X57478Y30830D02*
X56576D01*
Y30755D01*
X56275D01*
Y30680D01*
X55975D01*
Y30605D01*
X55899D01*
Y30530D01*
X55824D01*
Y30455D01*
X55674D01*
Y30379D01*
X55599D01*
Y30304D01*
X55523D01*
Y30229D01*
X55373D01*
Y30154D01*
X55298D01*
Y30079D01*
X55223D01*
Y29928D01*
X55072D01*
Y29778D01*
X54997D01*
Y29628D01*
X54922D01*
Y29477D01*
X54847D01*
Y29402D01*
X54772D01*
Y29177D01*
X54697D01*
Y28725D01*
X54621D01*
Y28199D01*
X54697D01*
Y27823D01*
X54772D01*
Y27523D01*
X54847D01*
Y27447D01*
X54922D01*
Y27297D01*
X54997D01*
Y27147D01*
X55072D01*
Y26996D01*
X55223D01*
Y26846D01*
X55298D01*
Y26771D01*
X55373D01*
Y26696D01*
X55523D01*
Y26545D01*
X55749D01*
Y26470D01*
X55824D01*
Y26395D01*
X55899D01*
Y26320D01*
X56125D01*
Y26245D01*
X56350D01*
Y26169D01*
X56726D01*
Y26094D01*
X56801D01*
Y26169D01*
X56877D01*
Y26094D01*
X57253D01*
Y26169D01*
X57704D01*
Y26245D01*
X58004D01*
Y26320D01*
X58155D01*
Y26395D01*
X58230D01*
Y26470D01*
X58380D01*
Y26545D01*
X58455D01*
Y26621D01*
X58530D01*
Y26696D01*
X58606D01*
Y26771D01*
X58681D01*
Y26846D01*
X58756D01*
Y26921D01*
X58831D01*
Y26996D01*
X58906D01*
Y27072D01*
X58982D01*
Y27147D01*
X59057D01*
Y27297D01*
X59132D01*
Y27447D01*
X59207D01*
Y27673D01*
X59282D01*
Y27748D01*
X59358D01*
Y28049D01*
X59433D01*
Y28951D01*
X59358D01*
Y29177D01*
X59282D01*
Y29327D01*
X59207D01*
Y29477D01*
X59132D01*
Y29703D01*
X59057D01*
Y29778D01*
X58982D01*
Y29853D01*
X58906D01*
Y29928D01*
X58831D01*
Y30079D01*
X58756D01*
Y30154D01*
X58681D01*
Y30229D01*
X58530D01*
Y30304D01*
X58455D01*
Y30379D01*
X58380D01*
Y30455D01*
X58305D01*
Y30530D01*
X58079D01*
Y30605D01*
X58004D01*
Y30680D01*
X57779D01*
Y30755D01*
X57478D01*
Y30830D01*
D02*
G37*
%LPD*%
G36*
X57281Y27505D02*
X56782D01*
Y29353D01*
X57281D01*
Y27505D01*
D02*
G37*
%LPC*%
G36*
X104328Y64164D02*
X104291D01*
X104263D01*
X104244D01*
X104235D01*
X103162Y62730D01*
X104171D01*
X104374Y62739D01*
X104550Y62758D01*
X104689Y62786D01*
X104809Y62823D01*
X104901Y62850D01*
X104966Y62878D01*
X105012Y62897D01*
X105022Y62906D01*
X105114Y62980D01*
X105179Y63063D01*
X105234Y63156D01*
X105262Y63239D01*
X105280Y63322D01*
X105299Y63387D01*
Y63442D01*
X105290Y63563D01*
X105262Y63674D01*
X105216Y63766D01*
X105169Y63840D01*
X105114Y63896D01*
X105077Y63933D01*
X105040Y63960D01*
X105031Y63970D01*
X104920Y64034D01*
X104799Y64081D01*
X104670Y64109D01*
X104541Y64136D01*
X104420Y64155D01*
X104328Y64164D01*
D02*
G37*
G36*
X103532D02*
X102561D01*
X102357Y64155D01*
X102182Y64136D01*
X102034Y64109D01*
X101913Y64081D01*
X101821Y64044D01*
X101756Y64016D01*
X101710Y63998D01*
X101701Y63988D01*
X101608Y63914D01*
X101543Y63831D01*
X101488Y63739D01*
X101460Y63655D01*
X101442Y63572D01*
X101433Y63507D01*
X101423Y63470D01*
Y63452D01*
X101433Y63332D01*
X101460Y63221D01*
X101506Y63128D01*
X101553Y63054D01*
X101590Y62998D01*
X101636Y62962D01*
X101664Y62934D01*
X101673Y62924D01*
X101784Y62869D01*
X101904Y62823D01*
X102043Y62786D01*
X102173Y62758D01*
X102284Y62749D01*
X102385Y62739D01*
X102413Y62730D01*
X102441D01*
X102459D01*
X102469D01*
X103532Y64164D01*
D02*
G37*
G36*
X109400Y55164D02*
X109354D01*
X109326D01*
X109317D01*
X109234D01*
X109058Y55155D01*
X108975Y55145D01*
X108901D01*
X108845Y55136D01*
X108799Y55127D01*
X108771Y55117D01*
X108762D01*
X108614Y55071D01*
X108549Y55053D01*
X108494Y55025D01*
X108448Y55006D01*
X108411Y54988D01*
X108392Y54979D01*
X108383Y54970D01*
X108272Y54886D01*
X108189Y54794D01*
X108152Y54757D01*
X108133Y54729D01*
X108124Y54711D01*
X108115Y54701D01*
X108059Y54572D01*
X108031Y54452D01*
Y54396D01*
X108022Y54350D01*
Y54313D01*
X108041Y54155D01*
X108050Y54081D01*
X108068Y54026D01*
X108087Y53980D01*
X108096Y53943D01*
X108115Y53924D01*
Y53915D01*
X108198Y53804D01*
X108290Y53721D01*
X108327Y53693D01*
X108355Y53665D01*
X108374Y53656D01*
X108383Y53647D01*
X108512Y53582D01*
X108633Y53536D01*
X108688Y53517D01*
X108725Y53508D01*
X108753Y53499D01*
X108762D01*
X108929Y53471D01*
X109012Y53462D01*
X109086D01*
X109141Y53452D01*
X109188D01*
X109225D01*
X109234D01*
X109317D01*
X109493Y53462D01*
X109567Y53471D01*
X109632Y53480D01*
X109687D01*
X109733Y53490D01*
X109761Y53499D01*
X109770D01*
X109928Y53545D01*
X109992Y53563D01*
X110048Y53591D01*
X110094Y53610D01*
X110131Y53628D01*
X110150Y53647D01*
X110159D01*
X110270Y53739D01*
X110353Y53822D01*
X110381Y53860D01*
X110399Y53887D01*
X110418Y53906D01*
Y53915D01*
X110455Y53980D01*
X110473Y54045D01*
X110510Y54174D01*
Y54229D01*
X110520Y54276D01*
Y54396D01*
X110501Y54470D01*
X110492Y54535D01*
X110473Y54590D01*
X110455Y54637D01*
X110436Y54673D01*
X110427Y54692D01*
X110418Y54701D01*
X110335Y54812D01*
X110251Y54896D01*
X110214Y54932D01*
X110187Y54951D01*
X110168Y54970D01*
X110159D01*
X110029Y55034D01*
X109900Y55080D01*
X109854Y55099D01*
X109807Y55108D01*
X109780Y55117D01*
X109770D01*
X109613Y55145D01*
X109530Y55155D01*
X109465D01*
X109400Y55164D01*
D02*
G37*
G36*
Y50622D02*
X109354D01*
X109326D01*
X109317D01*
X109234D01*
X109058Y50613D01*
X108975Y50603D01*
X108901D01*
X108845Y50594D01*
X108799Y50585D01*
X108771Y50576D01*
X108762D01*
X108614Y50529D01*
X108549Y50511D01*
X108494Y50483D01*
X108448Y50465D01*
X108411Y50446D01*
X108392Y50437D01*
X108383Y50428D01*
X108272Y50345D01*
X108189Y50252D01*
X108152Y50215D01*
X108133Y50187D01*
X108124Y50169D01*
X108115Y50160D01*
X108059Y50030D01*
X108031Y49910D01*
Y49854D01*
X108022Y49808D01*
Y49771D01*
X108041Y49614D01*
X108050Y49540D01*
X108068Y49484D01*
X108087Y49438D01*
X108096Y49401D01*
X108115Y49382D01*
Y49373D01*
X108198Y49262D01*
X108290Y49179D01*
X108327Y49151D01*
X108355Y49123D01*
X108374Y49114D01*
X108383Y49105D01*
X108512Y49040D01*
X108633Y48994D01*
X108688Y48976D01*
X108725Y48966D01*
X108753Y48957D01*
X108762D01*
X108929Y48929D01*
X109012Y48920D01*
X109086D01*
X109141Y48911D01*
X109188D01*
X109225D01*
X109234D01*
X109317D01*
X109493Y48920D01*
X109567Y48929D01*
X109632Y48939D01*
X109687D01*
X109733Y48948D01*
X109761Y48957D01*
X109770D01*
X109928Y49003D01*
X109992Y49022D01*
X110048Y49049D01*
X110094Y49068D01*
X110131Y49086D01*
X110150Y49105D01*
X110159D01*
X110270Y49198D01*
X110353Y49281D01*
X110381Y49318D01*
X110399Y49345D01*
X110418Y49364D01*
Y49373D01*
X110455Y49438D01*
X110473Y49503D01*
X110510Y49632D01*
Y49688D01*
X110520Y49734D01*
Y49854D01*
X110501Y49928D01*
X110492Y49993D01*
X110473Y50049D01*
X110455Y50095D01*
X110436Y50132D01*
X110427Y50150D01*
X110418Y50160D01*
X110335Y50270D01*
X110251Y50354D01*
X110214Y50391D01*
X110187Y50409D01*
X110168Y50428D01*
X110159D01*
X110029Y50493D01*
X109900Y50539D01*
X109854Y50557D01*
X109807Y50567D01*
X109780Y50576D01*
X109770D01*
X109613Y50603D01*
X109530Y50613D01*
X109465D01*
X109400Y50622D01*
D02*
G37*
G36*
X111167Y46154D02*
X111121D01*
X111102D01*
X110982Y46145D01*
X110880Y46117D01*
X110788Y46080D01*
X110714Y46034D01*
X110658Y45988D01*
X110621Y45951D01*
X110594Y45923D01*
X110584Y45914D01*
X110529Y45821D01*
X110483Y45710D01*
X110446Y45599D01*
X110427Y45498D01*
X110409Y45396D01*
X110399Y45322D01*
Y44480D01*
X111815D01*
Y45248D01*
X111805Y45405D01*
X111787Y45544D01*
X111759Y45655D01*
X111731Y45757D01*
X111704Y45831D01*
X111676Y45877D01*
X111657Y45914D01*
X111648Y45923D01*
X111574Y45997D01*
X111491Y46053D01*
X111398Y46099D01*
X111315Y46126D01*
X111232Y46145D01*
X111167Y46154D01*
D02*
G37*
G36*
X108929Y46275D02*
X108882D01*
X108864D01*
X108744Y46265D01*
X108642Y46237D01*
X108549Y46200D01*
X108475Y46163D01*
X108411Y46126D01*
X108364Y46090D01*
X108337Y46062D01*
X108327Y46053D01*
X108263Y45960D01*
X108207Y45858D01*
X108170Y45747D01*
X108142Y45645D01*
X108133Y45553D01*
X108124Y45479D01*
X108115Y45423D01*
Y44480D01*
X109650D01*
Y45451D01*
X109641Y45599D01*
X109613Y45729D01*
X109585Y45840D01*
X109548Y45923D01*
X109502Y45997D01*
X109474Y46043D01*
X109447Y46071D01*
X109437Y46080D01*
X109354Y46145D01*
X109262Y46200D01*
X109169Y46228D01*
X109077Y46256D01*
X108993Y46265D01*
X108929Y46275D01*
D02*
G37*
G36*
X109798Y37034D02*
X109761D01*
X109743D01*
X109733D01*
X109659D01*
Y35350D01*
X109798Y35387D01*
X109909Y35424D01*
X109955Y35434D01*
X109983Y35452D01*
X110002Y35461D01*
X110011D01*
X110122Y35526D01*
X110205Y35581D01*
X110261Y35628D01*
X110270Y35646D01*
X110279D01*
X110353Y35730D01*
X110409Y35813D01*
X110446Y35877D01*
X110455Y35887D01*
Y35896D01*
X110492Y36007D01*
X110510Y36118D01*
X110520Y36155D01*
Y36220D01*
X110510Y36358D01*
X110492Y36460D01*
X110473Y36507D01*
X110464Y36534D01*
X110455Y36553D01*
Y36562D01*
X110409Y36664D01*
X110353Y36747D01*
X110307Y36793D01*
X110298Y36812D01*
X110288D01*
X110205Y36886D01*
X110122Y36941D01*
X110094Y36960D01*
X110066Y36969D01*
X110048Y36978D01*
X110039D01*
X109937Y37015D01*
X109835Y37025D01*
X109798Y37034D01*
D02*
G37*
G36*
X126104Y59474D02*
X125420D01*
X125364Y59437D01*
X125318Y59391D01*
X125281Y59363D01*
X125263Y59345D01*
X125207Y59289D01*
X125170Y59224D01*
X125133Y59178D01*
X125124Y59169D01*
Y59160D01*
X125087Y59076D01*
X125059Y59003D01*
X125041Y58947D01*
X125031Y58929D01*
Y58919D01*
X125013Y58817D01*
X125004Y58725D01*
X124995Y58688D01*
Y58632D01*
X125004Y58531D01*
X125013Y58438D01*
X125041Y58364D01*
X125068Y58299D01*
X125087Y58253D01*
X125115Y58216D01*
X125124Y58198D01*
X125133Y58188D01*
X125189Y58142D01*
X125244Y58105D01*
X125300Y58087D01*
X125355Y58068D01*
X125401Y58059D01*
X125438Y58050D01*
X125466D01*
X125476D01*
X125577Y58059D01*
X125651Y58078D01*
X125707Y58087D01*
X125716Y58096D01*
X125725D01*
X125809Y58142D01*
X125873Y58198D01*
X125910Y58235D01*
X125929Y58253D01*
X125984Y58346D01*
X126021Y58438D01*
X126040Y58475D01*
X126049Y58503D01*
X126058Y58521D01*
Y58531D01*
X126086Y58670D01*
X126095Y58808D01*
X126104Y58864D01*
Y59474D01*
D02*
G37*
G36*
X121328Y56070D02*
X121291D01*
X121263D01*
X121245D01*
X121235D01*
X120162Y54637D01*
X121170D01*
X121374Y54646D01*
X121550Y54664D01*
X121688Y54692D01*
X121809Y54729D01*
X121901Y54757D01*
X121966Y54785D01*
X122012Y54803D01*
X122021Y54812D01*
X122114Y54886D01*
X122179Y54970D01*
X122234Y55062D01*
X122262Y55145D01*
X122281Y55229D01*
X122299Y55293D01*
Y55349D01*
X122290Y55469D01*
X122262Y55580D01*
X122216Y55673D01*
X122169Y55747D01*
X122114Y55802D01*
X122077Y55839D01*
X122040Y55867D01*
X122031Y55876D01*
X121920Y55941D01*
X121800Y55987D01*
X121670Y56015D01*
X121540Y56042D01*
X121420Y56061D01*
X121328Y56070D01*
D02*
G37*
G36*
X120532D02*
X119561D01*
X119358Y56061D01*
X119182Y56042D01*
X119034Y56015D01*
X118913Y55987D01*
X118821Y55950D01*
X118756Y55922D01*
X118710Y55904D01*
X118701Y55895D01*
X118608Y55821D01*
X118544Y55737D01*
X118488Y55645D01*
X118460Y55562D01*
X118442Y55478D01*
X118432Y55414D01*
X118423Y55376D01*
Y55358D01*
X118432Y55238D01*
X118460Y55127D01*
X118507Y55034D01*
X118553Y54960D01*
X118590Y54905D01*
X118636Y54868D01*
X118664Y54840D01*
X118673Y54831D01*
X118784Y54775D01*
X118904Y54729D01*
X119043Y54692D01*
X119173Y54664D01*
X119283Y54655D01*
X119385Y54646D01*
X119413Y54637D01*
X119441D01*
X119459D01*
X119468D01*
X120532Y56070D01*
D02*
G37*
G36*
X126798Y50668D02*
X126761D01*
X126743D01*
X126734D01*
X126660D01*
Y48985D01*
X126798Y49022D01*
X126909Y49059D01*
X126955Y49068D01*
X126983Y49086D01*
X127002Y49096D01*
X127011D01*
X127122Y49161D01*
X127205Y49216D01*
X127261Y49262D01*
X127270Y49281D01*
X127279D01*
X127353Y49364D01*
X127409Y49447D01*
X127446Y49512D01*
X127455Y49521D01*
Y49531D01*
X127492Y49641D01*
X127510Y49753D01*
X127520Y49790D01*
Y49854D01*
X127510Y49993D01*
X127492Y50095D01*
X127473Y50141D01*
X127464Y50169D01*
X127455Y50187D01*
Y50196D01*
X127409Y50298D01*
X127353Y50381D01*
X127307Y50428D01*
X127298Y50446D01*
X127288D01*
X127205Y50520D01*
X127122Y50576D01*
X127094Y50594D01*
X127067Y50603D01*
X127048Y50613D01*
X127039D01*
X126937Y50650D01*
X126835Y50659D01*
X126798Y50668D01*
D02*
G37*
G36*
X127325Y46126D02*
X127261D01*
X127215D01*
X127196D01*
X126743D01*
X126604D01*
X126474Y46108D01*
X126364Y46099D01*
X126262Y46080D01*
X126179Y46062D01*
X126114Y46053D01*
X126077Y46034D01*
X126058D01*
X125947Y45997D01*
X125846Y45960D01*
X125762Y45923D01*
X125688Y45877D01*
X125624Y45840D01*
X125577Y45812D01*
X125549Y45794D01*
X125540Y45784D01*
X125401Y45655D01*
X125355Y45590D01*
X125309Y45535D01*
X125272Y45479D01*
X125244Y45433D01*
X125235Y45405D01*
X125226Y45396D01*
X125189Y45303D01*
X125161Y45220D01*
X125143Y45127D01*
X125133Y45053D01*
X125124Y44980D01*
X125115Y44924D01*
Y44480D01*
X128824D01*
Y44822D01*
X128815Y44943D01*
X128805Y45044D01*
X128787Y45146D01*
X128769Y45229D01*
X128741Y45294D01*
X128722Y45340D01*
X128713Y45377D01*
X128704Y45386D01*
X128602Y45553D01*
X128547Y45618D01*
X128491Y45682D01*
X128445Y45729D01*
X128408Y45766D01*
X128380Y45784D01*
X128371Y45794D01*
X128204Y45904D01*
X128112Y45941D01*
X128029Y45979D01*
X127964Y46006D01*
X127908Y46025D01*
X127862Y46043D01*
X127853D01*
X127621Y46090D01*
X127520Y46108D01*
X127418Y46117D01*
X127325Y46126D01*
D02*
G37*
G36*
X126104Y32224D02*
X125420D01*
X125364Y32187D01*
X125318Y32140D01*
X125281Y32113D01*
X125263Y32094D01*
X125207Y32039D01*
X125170Y31974D01*
X125133Y31928D01*
X125124Y31918D01*
Y31909D01*
X125087Y31826D01*
X125059Y31752D01*
X125041Y31697D01*
X125031Y31678D01*
Y31669D01*
X125013Y31567D01*
X125004Y31475D01*
X124995Y31438D01*
Y31382D01*
X125004Y31280D01*
X125013Y31188D01*
X125041Y31114D01*
X125068Y31049D01*
X125087Y31003D01*
X125115Y30966D01*
X125124Y30947D01*
X125133Y30938D01*
X125189Y30892D01*
X125244Y30855D01*
X125300Y30836D01*
X125355Y30818D01*
X125401Y30808D01*
X125438Y30799D01*
X125466D01*
X125476D01*
X125577Y30808D01*
X125651Y30827D01*
X125707Y30836D01*
X125716Y30845D01*
X125725D01*
X125809Y30892D01*
X125873Y30947D01*
X125910Y30984D01*
X125929Y31003D01*
X125984Y31095D01*
X126021Y31188D01*
X126040Y31225D01*
X126049Y31253D01*
X126058Y31271D01*
Y31280D01*
X126086Y31419D01*
X126095Y31558D01*
X126104Y31613D01*
Y32224D01*
D02*
G37*
G36*
X126798Y23418D02*
X126761D01*
X126743D01*
X126734D01*
X126660D01*
Y21734D01*
X126798Y21771D01*
X126909Y21808D01*
X126955Y21817D01*
X126983Y21836D01*
X127002Y21845D01*
X127011D01*
X127122Y21910D01*
X127205Y21966D01*
X127261Y22012D01*
X127270Y22030D01*
X127279D01*
X127353Y22114D01*
X127409Y22197D01*
X127446Y22262D01*
X127455Y22271D01*
Y22280D01*
X127492Y22391D01*
X127510Y22502D01*
X127520Y22539D01*
Y22604D01*
X127510Y22742D01*
X127492Y22844D01*
X127473Y22891D01*
X127464Y22918D01*
X127455Y22937D01*
Y22946D01*
X127409Y23048D01*
X127353Y23131D01*
X127307Y23177D01*
X127298Y23196D01*
X127288D01*
X127205Y23270D01*
X127122Y23325D01*
X127094Y23344D01*
X127067Y23353D01*
X127048Y23362D01*
X127039D01*
X126937Y23399D01*
X126835Y23408D01*
X126798Y23418D01*
D02*
G37*
G36*
X73746Y50133D02*
X73736Y50114D01*
X73709Y50068D01*
X73672Y49984D01*
X73635Y49883D01*
Y49874D01*
X73625Y49855D01*
X73616Y49827D01*
X73607Y49790D01*
X73588Y49689D01*
X73570Y49568D01*
Y49540D01*
X73561Y49513D01*
X73551Y49466D01*
X73542Y49365D01*
X73524Y49235D01*
Y49207D01*
X73514Y49171D01*
Y49124D01*
X73505Y49013D01*
Y46525D01*
Y48838D01*
X73514Y48773D01*
Y48689D01*
X73524Y48597D01*
X73542Y48495D01*
X73588Y48292D01*
Y48283D01*
X73607Y48245D01*
X73625Y48199D01*
X73653Y48134D01*
X73736Y47987D01*
X73847Y47829D01*
X73857Y47820D01*
X73884Y47802D01*
X73921Y47765D01*
X73977Y47728D01*
X74042Y47681D01*
X74125Y47635D01*
X74217Y47589D01*
X74319Y47543D01*
X74328D01*
X74375Y47524D01*
X74430Y47515D01*
X74513Y47496D01*
X74606Y47478D01*
X74726Y47459D01*
X74856Y47450D01*
X74994Y47441D01*
X76817D01*
Y46525D01*
X73505D01*
X78556D01*
Y48736D01*
Y48467D01*
X77575D01*
Y49957D01*
X76817D01*
Y48467D01*
X75096D01*
X75087D01*
X75059D01*
X75022D01*
X74976Y48477D01*
X74856Y48486D01*
X74735Y48514D01*
X74726D01*
X74708Y48523D01*
X74652Y48551D01*
X74569Y48597D01*
X74495Y48662D01*
X74486Y48680D01*
X74449Y48726D01*
X74412Y48791D01*
X74375Y48884D01*
Y48893D01*
X74365Y48911D01*
Y48930D01*
X74356Y48967D01*
X74347Y49060D01*
X74338Y49180D01*
Y49328D01*
X74347Y49411D01*
Y49430D01*
X74356Y49494D01*
X74365Y49568D01*
X74375Y49652D01*
Y49670D01*
X74384Y49725D01*
X74402Y49790D01*
X74412Y49864D01*
Y49883D01*
X74421Y49920D01*
X74439Y49975D01*
X74449Y50031D01*
X73746Y50133D01*
D02*
G37*
G36*
X77575Y45581D02*
X73579D01*
Y44647D01*
X74134Y44592D01*
X74125Y44583D01*
X74088Y44555D01*
X74032Y44508D01*
X73968Y44453D01*
X73894Y44379D01*
X73810Y44296D01*
X73736Y44203D01*
X73672Y44102D01*
X73662Y44092D01*
X73644Y44055D01*
X73616Y43990D01*
X73588Y43916D01*
X73561Y43824D01*
X73533Y43713D01*
X73514Y43602D01*
X73505Y43472D01*
Y42066D01*
Y43417D01*
X73514Y43361D01*
Y43288D01*
X73524Y43195D01*
X73542Y43102D01*
X73598Y42899D01*
X73607Y42890D01*
X73616Y42853D01*
X73635Y42807D01*
X73672Y42751D01*
X73709Y42677D01*
X73764Y42603D01*
X73820Y42529D01*
X73894Y42455D01*
X73903Y42446D01*
X73931Y42427D01*
X73977Y42390D01*
X74042Y42353D01*
X74116Y42307D01*
X74208Y42261D01*
X74310Y42215D01*
X74430Y42168D01*
X74449D01*
X74486Y42150D01*
X74560Y42140D01*
X74652Y42122D01*
X74763Y42103D01*
X74893Y42085D01*
X75041Y42076D01*
X75207Y42066D01*
X77575D01*
Y45581D01*
D02*
G37*
G36*
X77649Y36526D02*
X73579D01*
Y35499D01*
X76021D01*
X76030D01*
X76058D01*
X76104D01*
X76160Y35490D01*
X76289Y35480D01*
X76410Y35443D01*
X76419D01*
X76437Y35434D01*
X76465Y35425D01*
X76502Y35407D01*
X76576Y35351D01*
X76650Y35286D01*
X76669Y35268D01*
X76706Y35221D01*
X76743Y35148D01*
X76780Y35046D01*
Y35037D01*
X76789Y35018D01*
Y34990D01*
X76798Y34953D01*
X76807Y34852D01*
X76817Y34731D01*
Y34685D01*
X76807Y34639D01*
Y34583D01*
X76770Y34435D01*
X76743Y34361D01*
X76706Y34287D01*
Y34278D01*
X76687Y34260D01*
X76659Y34222D01*
X76632Y34176D01*
X76539Y34084D01*
X76419Y33982D01*
X73579D01*
Y32955D01*
X77575D01*
Y33889D01*
X77020Y33945D01*
X77029Y33954D01*
X77066Y33982D01*
X77122Y34028D01*
X77196Y34093D01*
X77270Y34167D01*
X77344Y34260D01*
X77418Y34361D01*
X77483Y34472D01*
X77492Y34491D01*
X77510Y34528D01*
X77538Y34593D01*
X77566Y34676D01*
X77594Y34768D01*
X77621Y34888D01*
X77640Y35009D01*
X77649Y35148D01*
Y34028D01*
Y36526D01*
D02*
G37*
G36*
X78963Y31716D02*
X78121D01*
Y30670D01*
X74412D01*
Y31716D01*
X73579D01*
Y28608D01*
X78963D01*
Y31716D01*
D02*
G37*
%LPD*%
G36*
X78556Y46525D02*
X77575D01*
Y47441D01*
X78556D01*
Y46525D01*
D02*
G37*
G36*
X77575Y43102D02*
X75198D01*
X75189D01*
X75161D01*
X75115D01*
X75059D01*
X74930Y43112D01*
X74791Y43130D01*
X74782D01*
X74763Y43139D01*
X74735Y43149D01*
X74698Y43158D01*
X74606Y43195D01*
X74523Y43241D01*
X74504Y43260D01*
X74467Y43297D01*
X74421Y43361D01*
X74375Y43445D01*
Y43454D01*
X74365Y43472D01*
X74356Y43500D01*
Y43537D01*
X74338Y43630D01*
X74328Y43759D01*
Y43815D01*
X74338Y43870D01*
X74347Y43935D01*
X74384Y44102D01*
X74412Y44185D01*
X74449Y44259D01*
X74458Y44268D01*
X74467Y44287D01*
X74495Y44324D01*
X74532Y44370D01*
X74578Y44416D01*
X74634Y44462D01*
X74698Y44508D01*
X74772Y44546D01*
X77575D01*
Y43102D01*
D02*
G37*
G36*
X77649Y35258D02*
X77640Y35333D01*
X77631Y35416D01*
X77612Y35508D01*
X77557Y35702D01*
Y35712D01*
X77538Y35749D01*
X77520Y35795D01*
X77492Y35851D01*
X77455Y35925D01*
X77409Y35998D01*
X77344Y36072D01*
X77279Y36137D01*
X77270Y36147D01*
X77242Y36165D01*
X77205Y36202D01*
X77140Y36239D01*
X77076Y36285D01*
X76983Y36341D01*
X76891Y36387D01*
X76780Y36424D01*
X76770Y36433D01*
X76724Y36443D01*
X76659Y36461D01*
X76576Y36479D01*
X76465Y36498D01*
X76336Y36507D01*
X76197Y36526D01*
X77649D01*
Y35258D01*
D02*
G37*
G36*
X78121Y28608D02*
X74412D01*
Y29625D01*
X78121D01*
Y28608D01*
D02*
G37*
%LPC*%
G36*
X70893Y57162D02*
X65509Y55525D01*
Y54471D01*
X70893Y52843D01*
Y57162D01*
D02*
G37*
G36*
Y52232D02*
Y52056D01*
X70014D01*
Y49911D01*
X68830Y49781D01*
Y49790D01*
X68840Y49799D01*
X68858Y49827D01*
X68876Y49864D01*
X68895Y49911D01*
X68923Y49966D01*
X68969Y50105D01*
Y50114D01*
X68978Y50142D01*
X68997Y50188D01*
X69006Y50244D01*
X69024Y50318D01*
X69034Y50401D01*
X69043Y50493D01*
Y50660D01*
X69034Y50734D01*
X69024Y50826D01*
X69015Y50937D01*
X68988Y51048D01*
X68960Y51169D01*
X68914Y51289D01*
X68904Y51298D01*
X68895Y51344D01*
X68867Y51400D01*
X68821Y51464D01*
X68775Y51548D01*
X68719Y51631D01*
X68645Y51714D01*
X68562Y51797D01*
X68553Y51807D01*
X68525Y51834D01*
X68470Y51872D01*
X68405Y51918D01*
X68322Y51973D01*
X68220Y52029D01*
X68109Y52075D01*
X67989Y52121D01*
X67970Y52131D01*
X67933Y52140D01*
X67859Y52158D01*
X67766Y52177D01*
X67655Y52195D01*
X67526Y52214D01*
X67387Y52232D01*
X70893D01*
X65435D01*
X67165D01*
X67101Y52223D01*
X67008D01*
X66906Y52205D01*
X66786Y52186D01*
X66666Y52158D01*
X66536Y52121D01*
X66518D01*
X66481Y52103D01*
X66425Y52075D01*
X66342Y52047D01*
X66259Y52001D01*
X66157Y51946D01*
X66055Y51872D01*
X65963Y51797D01*
X65953Y51788D01*
X65926Y51761D01*
X65879Y51705D01*
X65824Y51640D01*
X65759Y51566D01*
X65694Y51464D01*
X65630Y51354D01*
X65574Y51233D01*
X65565Y51215D01*
X65556Y51178D01*
X65528Y51104D01*
X65509Y51011D01*
X65482Y50891D01*
X65454Y50761D01*
X65445Y50604D01*
X65435Y50438D01*
Y50539D01*
Y50438D01*
Y48616D01*
Y50382D01*
X65445Y50308D01*
Y50225D01*
X65463Y50123D01*
X65482Y50012D01*
X65500Y49892D01*
X65537Y49772D01*
X65547Y49753D01*
X65556Y49716D01*
X65583Y49652D01*
X65611Y49578D01*
X65658Y49485D01*
X65704Y49393D01*
X65833Y49189D01*
X65842Y49180D01*
X65870Y49152D01*
X65917Y49106D01*
X65972Y49041D01*
X66046Y48976D01*
X66129Y48911D01*
X66222Y48847D01*
X66324Y48782D01*
X66333Y48773D01*
X66379Y48754D01*
X66435Y48736D01*
X66518Y48699D01*
X66619Y48671D01*
X66730Y48643D01*
X66851Y48625D01*
X66989Y48616D01*
Y49633D01*
X66971D01*
X66934Y49642D01*
X66869Y49661D01*
X66786Y49679D01*
X66703Y49707D01*
X66610Y49753D01*
X66527Y49809D01*
X66444Y49883D01*
X66435Y49892D01*
X66416Y49920D01*
X66388Y49975D01*
X66351Y50040D01*
X66314Y50114D01*
X66286Y50207D01*
X66268Y50318D01*
X66259Y50438D01*
Y50512D01*
X66268Y50558D01*
X66286Y50669D01*
X66333Y50789D01*
Y50798D01*
X66351Y50817D01*
X66388Y50872D01*
X66453Y50956D01*
X66545Y51030D01*
X66555D01*
X66573Y51048D01*
X66601Y51057D01*
X66638Y51085D01*
X66740Y51122D01*
X66869Y51159D01*
X66878D01*
X66906Y51169D01*
X66943Y51178D01*
X66989Y51187D01*
X67054D01*
X67119Y51196D01*
X67276Y51205D01*
X67286D01*
X67313D01*
X67360D01*
X67406Y51196D01*
X67535Y51187D01*
X67674Y51150D01*
X67683D01*
X67702Y51141D01*
X67739Y51131D01*
X67776Y51113D01*
X67878Y51057D01*
X67979Y50984D01*
X67989Y50974D01*
X67998Y50965D01*
X68053Y50910D01*
X68118Y50817D01*
X68183Y50706D01*
Y50697D01*
X68192Y50678D01*
X68211Y50641D01*
X68220Y50595D01*
X68238Y50539D01*
X68247Y50475D01*
X68257Y50318D01*
Y50225D01*
X68247Y50142D01*
X68229Y50049D01*
Y50040D01*
X68220Y50031D01*
X68211Y49984D01*
X68183Y49920D01*
X68155Y49855D01*
X68146Y49846D01*
X68127Y49809D01*
X68099Y49753D01*
X68063Y49707D01*
X68053Y49698D01*
X68035Y49670D01*
X67998Y49624D01*
X67952Y49578D01*
X68155Y48754D01*
X70893Y49069D01*
Y52232D01*
D02*
G37*
G36*
X66777Y46636D02*
D01*
Y45970D01*
X66768Y46016D01*
X66758Y46109D01*
X66721Y46211D01*
Y46220D01*
X66712Y46238D01*
X66684Y46294D01*
X66647Y46368D01*
X66583Y46442D01*
X66564Y46460D01*
X66518Y46497D01*
X66453Y46543D01*
X66360Y46580D01*
X66351D01*
X66342Y46590D01*
X66286Y46608D01*
X66203Y46627D01*
X66101Y46636D01*
X66055D01*
X66018Y46627D01*
X65926Y46617D01*
X65833Y46580D01*
X65824D01*
X65815Y46571D01*
X65759Y46543D01*
X65694Y46507D01*
X65620Y46442D01*
X65611Y46423D01*
X65574Y46377D01*
X65528Y46303D01*
X65491Y46211D01*
Y46201D01*
X65482Y46192D01*
X65473Y46164D01*
X65463Y46127D01*
X65445Y46035D01*
X65435Y45915D01*
Y45859D01*
X65445Y45813D01*
X65463Y45720D01*
X65491Y45619D01*
Y45609D01*
X65500Y45600D01*
X65528Y45544D01*
X65565Y45470D01*
X65620Y45397D01*
X65639Y45378D01*
X65685Y45341D01*
X65750Y45295D01*
X65833Y45248D01*
X65842D01*
X65852Y45239D01*
X65879Y45230D01*
X65917D01*
X66000Y45211D01*
X66101Y45202D01*
X65435D01*
X66148D01*
X66185Y45211D01*
X66268Y45221D01*
X66360Y45248D01*
X66370D01*
X66379Y45258D01*
X66435Y45285D01*
X66509Y45332D01*
X66583Y45397D01*
X66601Y45415D01*
X66638Y45461D01*
X66684Y45526D01*
X66721Y45619D01*
Y45628D01*
X66730Y45646D01*
X66740Y45665D01*
X66749Y45702D01*
X66768Y45794D01*
X66777Y45915D01*
Y45202D01*
D01*
Y46636D01*
D02*
G37*
G36*
X70939Y43167D02*
X67212D01*
X67137Y43158D01*
X67036Y43149D01*
X66925Y43139D01*
X66804Y43112D01*
X66675Y43084D01*
X66545Y43038D01*
X66527Y43029D01*
X66490Y43010D01*
X66425Y42982D01*
X66351Y42945D01*
X66259Y42890D01*
X66157Y42834D01*
X66055Y42760D01*
X65963Y42677D01*
X65953Y42668D01*
X65926Y42640D01*
X65879Y42584D01*
X65824Y42520D01*
X65759Y42437D01*
X65694Y42344D01*
X65630Y42233D01*
X65574Y42113D01*
X65565Y42094D01*
X65556Y42057D01*
X65528Y41983D01*
X65509Y41891D01*
X65482Y41780D01*
X65454Y41660D01*
X65445Y41511D01*
X65435Y41363D01*
Y41456D01*
Y41363D01*
Y39486D01*
Y41289D01*
X65445Y41206D01*
X65454Y41105D01*
X65473Y40984D01*
X65500Y40846D01*
X65537Y40716D01*
X65593Y40577D01*
X65602Y40559D01*
X65620Y40522D01*
X65658Y40457D01*
X65704Y40374D01*
X65768Y40281D01*
X65842Y40189D01*
X65935Y40087D01*
X66037Y39994D01*
X66046Y39985D01*
X66092Y39957D01*
X66148Y39911D01*
X66231Y39856D01*
X66324Y39800D01*
X66444Y39735D01*
X66573Y39671D01*
X66712Y39615D01*
X66730Y39606D01*
X66777Y39597D01*
X66860Y39578D01*
X66962Y39551D01*
X67091Y39523D01*
X67239Y39504D01*
X67396Y39495D01*
X67563Y39486D01*
X65435D01*
X70939D01*
Y40290D01*
Y39486D01*
X68072D01*
X68127Y39495D01*
X68192D01*
X68349Y39504D01*
X68534Y39532D01*
X68729Y39560D01*
X68941Y39606D01*
X69145Y39661D01*
X69154D01*
X69173Y39671D01*
X69200Y39680D01*
X69237Y39698D01*
X69339Y39735D01*
X69468Y39791D01*
X69617Y39865D01*
X69774Y39957D01*
X69931Y40059D01*
X70088Y40179D01*
X70098D01*
X70107Y40198D01*
X70153Y40244D01*
X70227Y40318D01*
X70319Y40411D01*
X70412Y40540D01*
X70514Y40679D01*
X70616Y40846D01*
X70708Y41030D01*
Y41040D01*
X70717Y41058D01*
X70727Y41086D01*
X70745Y41123D01*
X70763Y41169D01*
X70782Y41234D01*
X70828Y41373D01*
X70865Y41548D01*
X70902Y41752D01*
X70930Y41974D01*
X70939Y42215D01*
Y40290D01*
Y42215D01*
Y42353D01*
X70079D01*
Y42233D01*
X70070Y42150D01*
Y42057D01*
X70051Y41946D01*
X70033Y41826D01*
X70005Y41697D01*
X69968Y41576D01*
Y41567D01*
X69950Y41521D01*
X69922Y41465D01*
X69894Y41391D01*
X69848Y41308D01*
X69801Y41216D01*
X69672Y41040D01*
X69663Y41030D01*
X69635Y41003D01*
X69598Y40966D01*
X69542Y40910D01*
X69468Y40855D01*
X69394Y40799D01*
X69302Y40744D01*
X69200Y40688D01*
X69191Y40679D01*
X69154Y40670D01*
X69099Y40651D01*
X69024Y40624D01*
X68932Y40596D01*
X68830Y40568D01*
X68710Y40549D01*
X68590Y40531D01*
X68608Y40549D01*
X68645Y40587D01*
X68710Y40651D01*
X68775Y40725D01*
Y40734D01*
X68793Y40744D01*
X68830Y40799D01*
X68876Y40873D01*
X68932Y40975D01*
Y40984D01*
X68941Y41003D01*
X68960Y41030D01*
X68978Y41067D01*
X69015Y41160D01*
X69052Y41280D01*
Y41289D01*
X69061Y41308D01*
X69071Y41345D01*
X69080Y41391D01*
X69089Y41502D01*
X69099Y41632D01*
Y41697D01*
X69089Y41770D01*
X69080Y41863D01*
X69061Y41965D01*
X69034Y42085D01*
X68997Y42196D01*
X68950Y42307D01*
X68941Y42316D01*
X68923Y42353D01*
X68895Y42409D01*
X68849Y42474D01*
X68793Y42548D01*
X68719Y42631D01*
X68645Y42705D01*
X68553Y42779D01*
X68543Y42788D01*
X68506Y42807D01*
X68460Y42843D01*
X68386Y42890D01*
X68303Y42936D01*
X68201Y42982D01*
X68090Y43029D01*
X67970Y43066D01*
X67952Y43075D01*
X67914Y43084D01*
X67850Y43102D01*
X67766Y43121D01*
X67655Y43139D01*
X67545Y43149D01*
X67415Y43167D01*
X70939D01*
D02*
G37*
G36*
X70893Y37599D02*
X65509D01*
Y35203D01*
D01*
Y36563D01*
X69635D01*
X69145Y35203D01*
X70893D01*
X70042D01*
X70893Y37543D01*
Y37599D01*
D02*
G37*
G36*
X68294Y34139D02*
X67461D01*
Y31059D01*
X68294D01*
Y34139D01*
D02*
G37*
G36*
X66333Y29524D02*
X65509D01*
Y25842D01*
X66203D01*
X68081Y27590D01*
X68090Y27599D01*
X68118Y27627D01*
X68164Y27664D01*
X68211Y27711D01*
X68340Y27821D01*
X68479Y27933D01*
X68488Y27942D01*
X68506Y27960D01*
X68543Y27979D01*
X68590Y28016D01*
X68701Y28080D01*
X68812Y28155D01*
X68821D01*
X68840Y28173D01*
X68867Y28182D01*
X68904Y28210D01*
X68988Y28247D01*
X69089Y28284D01*
X69099D01*
X69108Y28293D01*
X69173Y28302D01*
X69256Y28312D01*
X69348Y28321D01*
X69358D01*
X69376D01*
X69413D01*
X69450Y28312D01*
X69552Y28302D01*
X69663Y28266D01*
X69672D01*
X69691Y28256D01*
X69746Y28229D01*
X69829Y28192D01*
X69903Y28127D01*
X69912D01*
X69922Y28108D01*
X69959Y28062D01*
X70005Y27988D01*
X70051Y27896D01*
Y27886D01*
X70060Y27877D01*
X70070Y27849D01*
X70079Y27812D01*
X70098Y27720D01*
X70107Y27609D01*
Y27535D01*
X70098Y27461D01*
X70079Y27368D01*
X70051Y27266D01*
X70005Y27165D01*
X69950Y27063D01*
X69866Y26970D01*
X69857Y26961D01*
X69820Y26943D01*
X69774Y26906D01*
X69700Y26869D01*
X69607Y26832D01*
X69496Y26795D01*
X69358Y26776D01*
X69209Y26767D01*
Y25740D01*
X70967D01*
X69274D01*
X69339Y25749D01*
X69432Y25759D01*
X69533Y25768D01*
X69644Y25796D01*
X69765Y25824D01*
X69885Y25870D01*
X69903Y25879D01*
X69940Y25897D01*
X69996Y25925D01*
X70079Y25971D01*
X70162Y26027D01*
X70264Y26092D01*
X70357Y26166D01*
X70449Y26258D01*
X70458Y26267D01*
X70486Y26305D01*
X70532Y26360D01*
X70588Y26425D01*
X70643Y26517D01*
X70708Y26619D01*
X70773Y26730D01*
X70828Y26860D01*
X70837Y26878D01*
X70847Y26924D01*
X70875Y26998D01*
X70902Y27091D01*
X70921Y27202D01*
X70948Y27340D01*
X70958Y27488D01*
X70967Y27646D01*
Y27711D01*
X70958Y27794D01*
X70948Y27886D01*
X70939Y27997D01*
X70921Y28127D01*
X70884Y28247D01*
X70847Y28367D01*
X70837Y28386D01*
X70828Y28423D01*
X70801Y28478D01*
X70763Y28552D01*
X70717Y28645D01*
X70662Y28728D01*
X70597Y28820D01*
X70523Y28904D01*
X70514Y28913D01*
X70486Y28941D01*
X70440Y28978D01*
X70384Y29024D01*
X70310Y29079D01*
X70227Y29135D01*
X70135Y29181D01*
X70024Y29228D01*
X70014Y29237D01*
X69977Y29246D01*
X69912Y29265D01*
X69839Y29283D01*
X69746Y29302D01*
X69635Y29320D01*
X69515Y29338D01*
X69385D01*
X69376D01*
X69339D01*
X69293D01*
X69228Y29329D01*
X69145Y29320D01*
X69061Y29302D01*
X68876Y29255D01*
X68867D01*
X68840Y29237D01*
X68784Y29218D01*
X68729Y29190D01*
X68655Y29163D01*
X68571Y29116D01*
X68396Y29015D01*
X68386Y29006D01*
X68358Y28987D01*
X68312Y28950D01*
X68247Y28913D01*
X68173Y28857D01*
X68099Y28793D01*
X67914Y28645D01*
X67905Y28635D01*
X67878Y28608D01*
X67822Y28561D01*
X67757Y28506D01*
X67683Y28432D01*
X67600Y28358D01*
X67406Y28173D01*
X66333Y27156D01*
Y29524D01*
D02*
G37*
%LPD*%
G36*
X70893Y21578D02*
X70042D01*
X70893Y23918D01*
Y21578D01*
D02*
G37*
%LPC*%
G36*
Y23974D02*
X65509D01*
Y22938D01*
X69635D01*
X69145Y21578D01*
X65509D01*
D01*
X70893D01*
Y23974D01*
D02*
G37*
%LPD*%
G36*
Y53990D02*
X67008Y54998D01*
X70893Y56015D01*
Y53990D01*
D02*
G37*
G36*
X67396Y42131D02*
X67526Y42122D01*
X67665Y42085D01*
X67674D01*
X67693Y42076D01*
X67730Y42066D01*
X67776Y42048D01*
X67878Y41993D01*
X67979Y41928D01*
X67989D01*
X68007Y41909D01*
X68063Y41854D01*
X68127Y41780D01*
X68192Y41669D01*
Y41660D01*
X68201Y41641D01*
X68220Y41613D01*
X68238Y41576D01*
X68266Y41465D01*
X68275Y41336D01*
Y41289D01*
X68266Y41234D01*
X68257Y41169D01*
X68238Y41095D01*
X68211Y41012D01*
X68173Y40929D01*
X68127Y40846D01*
X68118Y40836D01*
X68099Y40808D01*
X68072Y40771D01*
X68025Y40725D01*
X67970Y40670D01*
X67905Y40624D01*
X67822Y40568D01*
X67739Y40522D01*
X67443D01*
X67434D01*
X67396D01*
X67341D01*
X67267Y40531D01*
X67184D01*
X67101Y40549D01*
X66925Y40577D01*
X66916D01*
X66888Y40587D01*
X66851Y40605D01*
X66795Y40624D01*
X66675Y40679D01*
X66555Y40753D01*
X66545Y40762D01*
X66527Y40771D01*
X66471Y40827D01*
X66398Y40910D01*
X66333Y41012D01*
Y41021D01*
X66324Y41040D01*
X66314Y41067D01*
X66296Y41114D01*
X66268Y41216D01*
X66259Y41345D01*
Y41410D01*
X66268Y41456D01*
X66286Y41567D01*
X66333Y41678D01*
Y41687D01*
X66351Y41706D01*
X66360Y41734D01*
X66388Y41761D01*
X66453Y41844D01*
X66536Y41928D01*
X66545Y41937D01*
X66564Y41946D01*
X66592Y41965D01*
X66629Y41983D01*
X66730Y42039D01*
X66860Y42085D01*
X66869D01*
X66897Y42094D01*
X66934Y42103D01*
X66980Y42113D01*
X67036Y42122D01*
X67110Y42131D01*
X67258Y42140D01*
X67267D01*
X67295D01*
X67341D01*
X67396Y42131D01*
D02*
G37*
M02*
