M48
;Layer_Color=9474304
;FILE_FORMAT=2:5
INCH,LZ
;TYPE=PLATED
T1F00S00C0.01575
T2F00S00C0.02362
T5F00S00C0.05906
T6F00S00C0.06299
;TYPE=NON_PLATED
T7F00S00C0.06693
%
T01
X0015748Y0003543
X0023467
X0031185
X0038903
X0089992
X0097711
X0105429
X0113148
X0120866
X01263Y00203
X0148193Y0003543
X0155911
X016363
X0186376
X0194095
X0201813
X0209531
X0209642Y0017551
X0201923
X0194205
X0186486
X0189884Y00557
X021725Y0003543
X0224969
X0038903Y0075197
X0031185
T02
X0219543Y0070742
X0229385Y00609
X02097
T05
X0046654Y003937
T06
X0218Y0013158
Y0032842
T07
X001122Y003937
M30
