G04*
G04 #@! TF.GenerationSoftware,Altium Limited,Altium Designer,21.6.1 (37)*
G04*
G04 Layer_Color=16711935*
%FSLAX25Y25*%
%MOIN*%
G70*
G04*
G04 #@! TF.SameCoordinates,EE309F7F-E528-4661-BA6D-D9C948015DE1*
G04*
G04*
G04 #@! TF.FilePolarity,Negative*
G04*
G01*
G75*
%ADD38C,0.08280*%
%ADD39R,0.10642X0.07493*%
%ADD40C,0.00800*%
%ADD41R,0.05524X0.10249*%
%ADD42C,0.10249*%
%ADD43R,0.10249X0.10249*%
%ADD44R,0.05524X0.05524*%
%ADD45C,0.05524*%
G36*
X137136Y56542D02*
X137751D01*
Y56474D01*
X138092D01*
Y56405D01*
X138365D01*
Y56337D01*
X138638D01*
Y56269D01*
X138843D01*
Y56201D01*
X139048D01*
Y56132D01*
X139184D01*
Y56064D01*
X139389D01*
Y55996D01*
X139525D01*
Y55927D01*
X139662D01*
Y55859D01*
X139798D01*
Y55791D01*
X139867D01*
Y55723D01*
X140003D01*
Y55655D01*
X140140D01*
Y55586D01*
X140208D01*
Y55518D01*
X140345D01*
Y55450D01*
X140413D01*
Y55382D01*
X140549D01*
Y55313D01*
X140618D01*
Y55245D01*
X140686D01*
Y55177D01*
X140754D01*
Y55108D01*
X140891D01*
Y55040D01*
X140959D01*
Y54972D01*
X141027D01*
Y54904D01*
X141095D01*
Y54835D01*
X141164D01*
Y54767D01*
X141232D01*
Y54699D01*
X141300D01*
Y54631D01*
X141368D01*
Y54562D01*
X141437D01*
Y54426D01*
X141505D01*
Y54358D01*
X141573D01*
Y54289D01*
X141437D01*
Y54221D01*
X141300D01*
Y54153D01*
X141164D01*
Y54085D01*
X141027D01*
Y54016D01*
X140891D01*
Y53948D01*
X140822D01*
Y53880D01*
X140686D01*
Y53812D01*
X140618D01*
Y53743D01*
X140481D01*
Y53675D01*
X140345D01*
Y53607D01*
X140276D01*
Y53539D01*
X140140D01*
Y53470D01*
X140003D01*
Y53402D01*
X139935D01*
Y53334D01*
X139798D01*
Y53266D01*
X139662D01*
Y53197D01*
X139594D01*
Y53129D01*
X139457D01*
Y53061D01*
X139321D01*
Y52992D01*
X139252D01*
Y52924D01*
X139116D01*
Y52856D01*
X139048D01*
Y52788D01*
X138911D01*
Y52719D01*
X138775D01*
Y52651D01*
X138706D01*
Y52583D01*
X138570D01*
Y52515D01*
X138502D01*
Y52447D01*
X138365D01*
Y52378D01*
X138229D01*
Y52310D01*
X138160D01*
Y52242D01*
X138024D01*
Y52174D01*
X137956D01*
Y52105D01*
X137819D01*
Y52037D01*
X137751D01*
Y51969D01*
X137614D01*
Y51900D01*
X137546D01*
Y51832D01*
X137409D01*
Y51900D01*
X137341D01*
Y52105D01*
X137273D01*
Y52242D01*
X137205D01*
Y52447D01*
X137136D01*
Y52583D01*
X137068D01*
Y52719D01*
X137000D01*
Y52924D01*
X136932D01*
Y53061D01*
X136864D01*
Y53266D01*
X136795D01*
Y53402D01*
X136727D01*
Y53607D01*
X136659D01*
Y53743D01*
X136591D01*
Y53880D01*
X136522D01*
Y54085D01*
X136454D01*
Y54221D01*
X136386D01*
Y54358D01*
X136317D01*
Y54562D01*
X136249D01*
Y54699D01*
X136181D01*
Y54904D01*
X136113D01*
Y55040D01*
X136044D01*
Y55245D01*
X135976D01*
Y55382D01*
X135908D01*
Y55586D01*
X135840D01*
Y55791D01*
X135771D01*
Y55996D01*
X135703D01*
Y56474D01*
X135908D01*
Y56542D01*
X136454D01*
Y56610D01*
X137136D01*
Y56542D01*
D02*
G37*
G36*
X144576Y53539D02*
X144713D01*
Y53470D01*
X144850D01*
Y53402D01*
X144986D01*
Y53334D01*
X145054D01*
Y53266D01*
X145123D01*
Y53197D01*
X145191D01*
Y53129D01*
X145259D01*
Y53061D01*
X145327D01*
Y52992D01*
X145396D01*
Y52924D01*
X145464D01*
Y52788D01*
X145532D01*
Y52719D01*
X145600D01*
Y52651D01*
X145668D01*
Y52515D01*
X145737D01*
Y52378D01*
X145805D01*
Y52310D01*
X145873D01*
Y52174D01*
X145942D01*
Y52037D01*
X146010D01*
Y51900D01*
X146078D01*
Y51764D01*
X146146D01*
Y51696D01*
X146215D01*
Y51491D01*
X146283D01*
Y51354D01*
X146351D01*
Y51218D01*
X146419D01*
Y51081D01*
X146488D01*
Y50945D01*
X146556D01*
Y50740D01*
X146624D01*
Y50604D01*
X146692D01*
Y50399D01*
X146761D01*
Y50262D01*
X146829D01*
Y50058D01*
X146897D01*
Y49921D01*
X146965D01*
Y49716D01*
X147034D01*
Y49512D01*
X147102D01*
Y49443D01*
X146897D01*
Y49375D01*
X146624D01*
Y49307D01*
X146351D01*
Y49238D01*
X146146D01*
Y49170D01*
X145942D01*
Y49102D01*
X145737D01*
Y49034D01*
X145532D01*
Y48965D01*
X145327D01*
Y48897D01*
X145123D01*
Y48829D01*
X144850D01*
Y48761D01*
X144645D01*
Y48692D01*
X144440D01*
Y48624D01*
X144235D01*
Y48556D01*
X144030D01*
Y48488D01*
X143757D01*
Y48419D01*
X143621D01*
Y48351D01*
X143348D01*
Y48283D01*
X143143D01*
Y48215D01*
X142938D01*
Y48146D01*
X142665D01*
Y48078D01*
X142529D01*
Y48010D01*
X142256D01*
Y47942D01*
X142051D01*
Y47873D01*
X141846D01*
Y47805D01*
X141573D01*
Y47737D01*
X141437D01*
Y47668D01*
X141164D01*
Y47600D01*
X141027D01*
Y47532D01*
X140754D01*
Y47464D01*
X140549D01*
Y47396D01*
X140345D01*
Y47327D01*
X140071D01*
Y47259D01*
X139935D01*
Y47191D01*
X139662D01*
Y47122D01*
X139457D01*
Y47054D01*
X139252D01*
Y46986D01*
X139048D01*
Y46918D01*
X138843D01*
Y46850D01*
X138638D01*
Y46781D01*
X138502D01*
Y46713D01*
X138365D01*
Y46645D01*
X138229D01*
Y46576D01*
X138092D01*
Y46508D01*
X137956D01*
Y46440D01*
X137819D01*
Y46372D01*
X137683D01*
Y46303D01*
X137614D01*
Y46235D01*
X137546D01*
Y46167D01*
X137409D01*
Y46099D01*
X137341D01*
Y46030D01*
X137273D01*
Y45962D01*
X137205D01*
Y45894D01*
X137136D01*
Y46030D01*
X137068D01*
Y46167D01*
X137000D01*
Y46372D01*
X136932D01*
Y46508D01*
X136864D01*
Y46645D01*
X136795D01*
Y46850D01*
X136727D01*
Y46986D01*
X136659D01*
Y47191D01*
X136591D01*
Y47327D01*
X136522D01*
Y47532D01*
X136454D01*
Y47737D01*
X136386D01*
Y48010D01*
X136317D01*
Y48897D01*
X136386D01*
Y49034D01*
X136454D01*
Y49170D01*
X136522D01*
Y49238D01*
X136591D01*
Y49307D01*
X136659D01*
Y49443D01*
X136727D01*
Y49512D01*
X136795D01*
Y49580D01*
X136864D01*
Y49648D01*
X136932D01*
Y49716D01*
X137068D01*
Y49784D01*
X137136D01*
Y49853D01*
X137205D01*
Y49921D01*
X137273D01*
Y49989D01*
X137409D01*
Y50058D01*
X137478D01*
Y50126D01*
X137546D01*
Y50194D01*
X137683D01*
Y50262D01*
X137751D01*
Y50331D01*
X137887D01*
Y50399D01*
X137956D01*
Y50467D01*
X138092D01*
Y50535D01*
X138160D01*
Y50604D01*
X138297D01*
Y50672D01*
X138365D01*
Y50740D01*
X138502D01*
Y50808D01*
X138570D01*
Y50877D01*
X138706D01*
Y50945D01*
X138775D01*
Y51013D01*
X138911D01*
Y51081D01*
X138979D01*
Y51150D01*
X139116D01*
Y51218D01*
X139252D01*
Y51286D01*
X139321D01*
Y51354D01*
X139457D01*
Y51423D01*
X139525D01*
Y51491D01*
X139662D01*
Y51559D01*
X139798D01*
Y51627D01*
X139867D01*
Y51696D01*
X140003D01*
Y51764D01*
X140140D01*
Y51832D01*
X140208D01*
Y51900D01*
X140345D01*
Y51969D01*
X140413D01*
Y52037D01*
X140549D01*
Y52105D01*
X140686D01*
Y52174D01*
X140754D01*
Y52242D01*
X140891D01*
Y52310D01*
X141027D01*
Y52378D01*
X141095D01*
Y52447D01*
X141232D01*
Y52515D01*
X141368D01*
Y52583D01*
X141437D01*
Y52651D01*
X141573D01*
Y52719D01*
X141641D01*
Y52788D01*
X141778D01*
Y52856D01*
X141914D01*
Y52924D01*
X142051D01*
Y52992D01*
X142188D01*
Y53061D01*
X142324D01*
Y53129D01*
X142529D01*
Y53197D01*
X142665D01*
Y53266D01*
X142802D01*
Y53334D01*
X143007D01*
Y53402D01*
X143211D01*
Y53470D01*
X143348D01*
Y53539D01*
X143621D01*
Y53607D01*
X144576D01*
Y53539D01*
D02*
G37*
G36*
X147716Y47942D02*
X147989D01*
Y47873D01*
X148126D01*
Y47805D01*
X148262D01*
Y47737D01*
X148330D01*
Y47668D01*
X148467D01*
Y47600D01*
X148535D01*
Y47532D01*
X148604D01*
Y47464D01*
X148740D01*
Y47396D01*
X148808D01*
Y47327D01*
X148877D01*
Y47259D01*
X148945D01*
Y47191D01*
X149013D01*
Y47122D01*
X149081D01*
Y46986D01*
X149150D01*
Y46918D01*
X149218D01*
Y46850D01*
X149286D01*
Y46781D01*
X149354D01*
Y46713D01*
X149423D01*
Y46576D01*
X149491D01*
Y46508D01*
X149559D01*
Y46440D01*
X149627D01*
Y46303D01*
X149696D01*
Y46235D01*
X149764D01*
Y46099D01*
X149832D01*
Y46030D01*
X149900D01*
Y45894D01*
X149969D01*
Y45826D01*
X150037D01*
Y45689D01*
X150105D01*
Y45553D01*
X150173D01*
Y45484D01*
X150242D01*
Y45348D01*
X150310D01*
Y45211D01*
X150378D01*
Y45075D01*
X150446D01*
Y44938D01*
X150515D01*
Y44802D01*
X150583D01*
Y44665D01*
X150651D01*
Y44529D01*
X150719D01*
Y44324D01*
X150788D01*
Y44188D01*
X150856D01*
Y44051D01*
X150924D01*
Y43846D01*
X150993D01*
Y43641D01*
X151061D01*
Y43437D01*
X151129D01*
Y43232D01*
X151197D01*
Y43027D01*
X151266D01*
Y42686D01*
X151334D01*
Y42481D01*
X151402D01*
Y42072D01*
X151470D01*
Y41798D01*
X151539D01*
Y40979D01*
X151607D01*
Y40024D01*
X151539D01*
Y39205D01*
X151470D01*
Y38864D01*
X151402D01*
Y38454D01*
X151334D01*
Y38249D01*
X151266D01*
Y37908D01*
X151197D01*
Y37703D01*
X151129D01*
Y37430D01*
X151061D01*
Y37225D01*
X150993D01*
Y37021D01*
X150924D01*
Y36816D01*
X150856D01*
Y36679D01*
X150788D01*
Y36474D01*
X150719D01*
Y36270D01*
X150651D01*
Y36133D01*
X150583D01*
Y35997D01*
X150515D01*
Y35860D01*
X150446D01*
Y35724D01*
X150378D01*
Y35587D01*
X150310D01*
Y35451D01*
X150242D01*
Y35314D01*
X150173D01*
Y35178D01*
X150105D01*
Y35041D01*
X150037D01*
Y34973D01*
X149969D01*
Y34836D01*
X149900D01*
Y34700D01*
X149832D01*
Y34632D01*
X149764D01*
Y34495D01*
X149696D01*
Y34427D01*
X149627D01*
Y34290D01*
X149559D01*
Y34222D01*
X149491D01*
Y34154D01*
X149423D01*
Y34017D01*
X149354D01*
Y33949D01*
X149286D01*
Y33881D01*
X149218D01*
Y33812D01*
X149150D01*
Y33744D01*
X149081D01*
Y33676D01*
X149013D01*
Y33608D01*
X148945D01*
Y33540D01*
X148877D01*
Y33471D01*
X148808D01*
Y33403D01*
X148740D01*
Y33335D01*
X148604D01*
Y33266D01*
X148535D01*
Y33198D01*
X148399D01*
Y33130D01*
X148262D01*
Y33062D01*
X148057D01*
Y32994D01*
X147238D01*
Y33062D01*
X147034D01*
Y33130D01*
X146761D01*
Y33198D01*
X146556D01*
Y33266D01*
X146419D01*
Y33335D01*
X146215D01*
Y33403D01*
X146078D01*
Y33471D01*
X145873D01*
Y33540D01*
X145737D01*
Y33608D01*
X145532D01*
Y33676D01*
X145327D01*
Y33744D01*
X145191D01*
Y33812D01*
X144986D01*
Y33881D01*
X144850D01*
Y33949D01*
X144713D01*
Y34017D01*
X144508D01*
Y34086D01*
X144372D01*
Y34154D01*
X144167D01*
Y34222D01*
X144030D01*
Y34290D01*
X143826D01*
Y34359D01*
X143689D01*
Y34427D01*
X143484D01*
Y34495D01*
X143348D01*
Y34563D01*
X143143D01*
Y34632D01*
X143007D01*
Y34700D01*
X142870D01*
Y34768D01*
X142665D01*
Y34836D01*
X142461D01*
Y34905D01*
X142324D01*
Y34973D01*
X142119D01*
Y35041D01*
X141983D01*
Y35109D01*
X141778D01*
Y35178D01*
X141641D01*
Y35246D01*
X141437D01*
Y35314D01*
X141300D01*
Y35382D01*
X141095D01*
Y35451D01*
X140959D01*
Y35519D01*
X140822D01*
Y35587D01*
X140618D01*
Y35656D01*
X140413D01*
Y35724D01*
X140276D01*
Y35792D01*
X140071D01*
Y35860D01*
X139935D01*
Y35928D01*
X139798D01*
Y35997D01*
X139662D01*
Y36065D01*
X139457D01*
Y36133D01*
X139321D01*
Y36202D01*
X139184D01*
Y36270D01*
X139048D01*
Y36338D01*
X138911D01*
Y36406D01*
X138843D01*
Y36474D01*
X138706D01*
Y36543D01*
X138570D01*
Y36611D01*
X138502D01*
Y36679D01*
X138365D01*
Y36748D01*
X138297D01*
Y36816D01*
X138229D01*
Y36884D01*
X138160D01*
Y36952D01*
X138092D01*
Y37021D01*
X138024D01*
Y37089D01*
X137956D01*
Y37157D01*
X137887D01*
Y37225D01*
X137819D01*
Y37294D01*
X137751D01*
Y37362D01*
X137683D01*
Y37430D01*
X137614D01*
Y37567D01*
X137546D01*
Y37703D01*
X137478D01*
Y37771D01*
X137409D01*
Y37908D01*
X137341D01*
Y38044D01*
X137273D01*
Y38181D01*
X137205D01*
Y38386D01*
X137136D01*
Y38590D01*
X137068D01*
Y38727D01*
X137000D01*
Y39000D01*
X136932D01*
Y39273D01*
X136864D01*
Y39683D01*
X136795D01*
Y40570D01*
X136727D01*
Y40775D01*
X136795D01*
Y41730D01*
X136864D01*
Y42208D01*
X136932D01*
Y42413D01*
X137000D01*
Y42754D01*
X137068D01*
Y42959D01*
X137136D01*
Y43164D01*
X137205D01*
Y43368D01*
X137273D01*
Y43573D01*
X137341D01*
Y43710D01*
X137409D01*
Y43846D01*
X137478D01*
Y43983D01*
X137546D01*
Y44119D01*
X137614D01*
Y44256D01*
X137683D01*
Y44392D01*
X137751D01*
Y44460D01*
X137819D01*
Y44529D01*
X137887D01*
Y44665D01*
X137956D01*
Y44734D01*
X138024D01*
Y44802D01*
X138092D01*
Y44870D01*
X138160D01*
Y44938D01*
X138297D01*
Y45006D01*
X138365D01*
Y45075D01*
X138433D01*
Y45143D01*
X138570D01*
Y45211D01*
X138706D01*
Y45280D01*
X138843D01*
Y45348D01*
X138979D01*
Y45416D01*
X139116D01*
Y45484D01*
X139321D01*
Y45553D01*
X139457D01*
Y45621D01*
X139662D01*
Y45689D01*
X139935D01*
Y45757D01*
X140140D01*
Y45826D01*
X140345D01*
Y45894D01*
X140549D01*
Y45962D01*
X140754D01*
Y46030D01*
X140959D01*
Y46099D01*
X141232D01*
Y46167D01*
X141437D01*
Y46235D01*
X141641D01*
Y46303D01*
X141914D01*
Y46372D01*
X142119D01*
Y46440D01*
X142324D01*
Y46508D01*
X142529D01*
Y46576D01*
X142734D01*
Y46645D01*
X142938D01*
Y46713D01*
X143211D01*
Y46781D01*
X143416D01*
Y46850D01*
X143621D01*
Y46918D01*
X143826D01*
Y46986D01*
X144030D01*
Y47054D01*
X144235D01*
Y47122D01*
X144508D01*
Y47191D01*
X144713D01*
Y47259D01*
X144918D01*
Y47327D01*
X145123D01*
Y47396D01*
X145327D01*
Y47464D01*
X145532D01*
Y47532D01*
X145805D01*
Y47600D01*
X146010D01*
Y47668D01*
X146215D01*
Y47737D01*
X146419D01*
Y47805D01*
X146556D01*
Y47873D01*
X146829D01*
Y47942D01*
X147102D01*
Y48010D01*
X147716D01*
Y47942D01*
D02*
G37*
G36*
X137205Y35792D02*
X137273D01*
Y35724D01*
X137409D01*
Y35656D01*
X137478D01*
Y35587D01*
X137546D01*
Y35519D01*
X137614D01*
Y35451D01*
X137751D01*
Y35382D01*
X137819D01*
Y35314D01*
X137956D01*
Y35246D01*
X138024D01*
Y35178D01*
X138160D01*
Y35109D01*
X138297D01*
Y35041D01*
X138433D01*
Y34973D01*
X138570D01*
Y34905D01*
X138706D01*
Y34836D01*
X138843D01*
Y34768D01*
X138979D01*
Y34700D01*
X139116D01*
Y34632D01*
X139321D01*
Y34563D01*
X139457D01*
Y34495D01*
X139594D01*
Y34427D01*
X139798D01*
Y34359D01*
X139935D01*
Y34290D01*
X140140D01*
Y34222D01*
X140276D01*
Y34154D01*
X140481D01*
Y34086D01*
X140618D01*
Y34017D01*
X140822D01*
Y33949D01*
X140959D01*
Y33881D01*
X141164D01*
Y33812D01*
X141300D01*
Y33744D01*
X141505D01*
Y33676D01*
X141641D01*
Y33608D01*
X141846D01*
Y33540D01*
X141983D01*
Y33471D01*
X142188D01*
Y33403D01*
X142324D01*
Y33335D01*
X142529D01*
Y33266D01*
X142665D01*
Y33198D01*
X142870D01*
Y33130D01*
X143007D01*
Y33062D01*
X143143D01*
Y32994D01*
X143348D01*
Y32925D01*
X143553D01*
Y32857D01*
X143689D01*
Y32789D01*
X143826D01*
Y32720D01*
X144030D01*
Y32652D01*
X144167D01*
Y32584D01*
X144372D01*
Y32516D01*
X144508D01*
Y32447D01*
X144713D01*
Y32379D01*
X144850D01*
Y32311D01*
X145054D01*
Y32243D01*
X145191D01*
Y32174D01*
X145396D01*
Y32106D01*
X145532D01*
Y32038D01*
X145737D01*
Y31970D01*
X145873D01*
Y31901D01*
X146078D01*
Y31833D01*
X146283D01*
Y31765D01*
X146488D01*
Y31697D01*
X146692D01*
Y31628D01*
X146829D01*
Y31424D01*
X146761D01*
Y31287D01*
X146692D01*
Y31082D01*
X146624D01*
Y30946D01*
X146556D01*
Y30809D01*
X146488D01*
Y30604D01*
X146419D01*
Y30468D01*
X146351D01*
Y30263D01*
X146283D01*
Y30195D01*
X146215D01*
Y29990D01*
X146146D01*
Y29854D01*
X146078D01*
Y29717D01*
X146010D01*
Y29581D01*
X145942D01*
Y29444D01*
X145873D01*
Y29239D01*
X145805D01*
Y29171D01*
X145737D01*
Y29035D01*
X145668D01*
Y28898D01*
X145600D01*
Y28762D01*
X145532D01*
Y28625D01*
X145464D01*
Y28557D01*
X145396D01*
Y28420D01*
X145327D01*
Y28284D01*
X145259D01*
Y28216D01*
X145191D01*
Y28079D01*
X145123D01*
Y28011D01*
X145054D01*
Y27874D01*
X144986D01*
Y27806D01*
X144918D01*
Y27738D01*
X144850D01*
Y27670D01*
X144781D01*
Y27601D01*
X144713D01*
Y27533D01*
X144645D01*
Y27465D01*
X144508D01*
Y27396D01*
X144372D01*
Y27328D01*
X143826D01*
Y27396D01*
X143689D01*
Y27465D01*
X143484D01*
Y27533D01*
X143348D01*
Y27601D01*
X143211D01*
Y27670D01*
X143075D01*
Y27738D01*
X142938D01*
Y27806D01*
X142802D01*
Y27874D01*
X142734D01*
Y27942D01*
X142597D01*
Y28011D01*
X142461D01*
Y28079D01*
X142324D01*
Y28147D01*
X142188D01*
Y28216D01*
X142119D01*
Y28284D01*
X141983D01*
Y28352D01*
X141846D01*
Y28420D01*
X141710D01*
Y28488D01*
X141573D01*
Y28557D01*
X141437D01*
Y28625D01*
X141300D01*
Y28693D01*
X141232D01*
Y28762D01*
X141095D01*
Y28830D01*
X140959D01*
Y28898D01*
X140822D01*
Y28966D01*
X140686D01*
Y29035D01*
X140618D01*
Y29103D01*
X140481D01*
Y29171D01*
X140345D01*
Y29239D01*
X140208D01*
Y29308D01*
X140071D01*
Y29376D01*
X140003D01*
Y29444D01*
X139867D01*
Y29512D01*
X139730D01*
Y29581D01*
X139594D01*
Y29649D01*
X139457D01*
Y29717D01*
X139321D01*
Y29785D01*
X139184D01*
Y29854D01*
X139116D01*
Y29922D01*
X138979D01*
Y29990D01*
X138843D01*
Y30058D01*
X138706D01*
Y30127D01*
X138570D01*
Y30195D01*
X138502D01*
Y30263D01*
X138365D01*
Y30332D01*
X138229D01*
Y30400D01*
X138092D01*
Y30468D01*
X137956D01*
Y30536D01*
X137887D01*
Y30604D01*
X137819D01*
Y30673D01*
X137683D01*
Y30741D01*
X137614D01*
Y30809D01*
X137546D01*
Y30878D01*
X137478D01*
Y30946D01*
X137341D01*
Y31014D01*
X137273D01*
Y31082D01*
X137205D01*
Y31150D01*
X137136D01*
Y31219D01*
X137068D01*
Y31287D01*
X137000D01*
Y31355D01*
X136932D01*
Y31424D01*
X136864D01*
Y31492D01*
X136795D01*
Y31560D01*
X136727D01*
Y31628D01*
X136659D01*
Y31697D01*
X136591D01*
Y31833D01*
X136522D01*
Y31901D01*
X136454D01*
Y32038D01*
X136386D01*
Y32174D01*
X136317D01*
Y32379D01*
X136249D01*
Y33335D01*
X136317D01*
Y33676D01*
X136386D01*
Y33949D01*
X136454D01*
Y34154D01*
X136522D01*
Y34427D01*
X136591D01*
Y34563D01*
X136659D01*
Y34768D01*
X136727D01*
Y34973D01*
X136795D01*
Y35109D01*
X136864D01*
Y35314D01*
X136932D01*
Y35451D01*
X137000D01*
Y35656D01*
X137068D01*
Y35792D01*
X137136D01*
Y35860D01*
X137205D01*
Y35792D01*
D02*
G37*
G36*
Y29239D02*
X137341D01*
Y29171D01*
X137478D01*
Y29103D01*
X137614D01*
Y29035D01*
X137683D01*
Y28966D01*
X137819D01*
Y28898D01*
X137956D01*
Y28830D01*
X138092D01*
Y28762D01*
X138229D01*
Y28693D01*
X138297D01*
Y28625D01*
X138433D01*
Y28557D01*
X138570D01*
Y28488D01*
X138706D01*
Y28420D01*
X138843D01*
Y28352D01*
X138979D01*
Y28284D01*
X139048D01*
Y28216D01*
X139184D01*
Y28147D01*
X139321D01*
Y28079D01*
X139457D01*
Y28011D01*
X139594D01*
Y27942D01*
X139730D01*
Y27874D01*
X139798D01*
Y27806D01*
X139935D01*
Y27738D01*
X140071D01*
Y27670D01*
X140208D01*
Y27601D01*
X140345D01*
Y27533D01*
X140413D01*
Y27465D01*
X140549D01*
Y27396D01*
X140686D01*
Y27328D01*
X140822D01*
Y27260D01*
X140959D01*
Y27192D01*
X141095D01*
Y27123D01*
X141164D01*
Y27055D01*
X141300D01*
Y26987D01*
X141437D01*
Y26919D01*
X141368D01*
Y26850D01*
X141300D01*
Y26714D01*
X141164D01*
Y26577D01*
X141095D01*
Y26509D01*
X141027D01*
Y26441D01*
X140959D01*
Y26373D01*
X140822D01*
Y26304D01*
X140754D01*
Y26236D01*
X140686D01*
Y26168D01*
X140618D01*
Y26100D01*
X140549D01*
Y26031D01*
X140413D01*
Y25963D01*
X140345D01*
Y25895D01*
X140276D01*
Y25826D01*
X140140D01*
Y25758D01*
X140071D01*
Y25690D01*
X139935D01*
Y25622D01*
X139798D01*
Y25554D01*
X139662D01*
Y25485D01*
X139525D01*
Y25417D01*
X139389D01*
Y25349D01*
X139252D01*
Y25280D01*
X139116D01*
Y25212D01*
X138911D01*
Y25144D01*
X138706D01*
Y25076D01*
X138502D01*
Y25008D01*
X138160D01*
Y24939D01*
X137887D01*
Y24871D01*
X137273D01*
Y24803D01*
X136317D01*
Y24871D01*
X135840D01*
Y24939D01*
X135635D01*
Y25008D01*
X135498D01*
Y25212D01*
X135567D01*
Y25485D01*
X135635D01*
Y25690D01*
X135703D01*
Y25895D01*
X135771D01*
Y26100D01*
X135840D01*
Y26236D01*
X135908D01*
Y26441D01*
X135976D01*
Y26577D01*
X136044D01*
Y26782D01*
X136113D01*
Y26919D01*
X136181D01*
Y27055D01*
X136249D01*
Y27260D01*
X136317D01*
Y27396D01*
X136386D01*
Y27533D01*
X136454D01*
Y27738D01*
X136522D01*
Y27874D01*
X136591D01*
Y28011D01*
X136659D01*
Y28216D01*
X136727D01*
Y28352D01*
X136795D01*
Y28557D01*
X136864D01*
Y28693D01*
X136932D01*
Y28830D01*
X137000D01*
Y29035D01*
X137068D01*
Y29171D01*
X137136D01*
Y29308D01*
X137205D01*
Y29239D01*
D02*
G37*
D38*
X46654Y39370D02*
D03*
D39*
X41142Y59311D02*
D03*
X22244D02*
D03*
X41142Y19429D02*
D03*
X22244D02*
D03*
D40*
X11220Y39370D02*
D03*
D41*
X24606D02*
D03*
D42*
X218000Y13158D02*
D03*
D43*
Y32842D02*
D03*
D44*
X209700Y60900D02*
D03*
D45*
X219543Y70742D02*
D03*
X229385Y60900D02*
D03*
M02*
