G04*
G04 #@! TF.GenerationSoftware,Altium Limited,Altium Designer,21.6.1 (37)*
G04*
G04 Layer_Physical_Order=1*
G04 Layer_Color=255*
%FSLAX25Y25*%
%MOIN*%
G70*
G04*
G04 #@! TF.SameCoordinates,EE309F7F-E528-4661-BA6D-D9C948015DE1*
G04*
G04*
G04 #@! TF.FilePolarity,Positive*
G04*
G01*
G75*
%ADD14C,0.01000*%
%ADD16R,0.15158X0.21654*%
%ADD17R,0.08583X0.06299*%
%ADD18R,0.05906X0.02362*%
%ADD19R,0.04173X0.10236*%
%ADD20R,0.22173X0.22835*%
%ADD21R,0.04331X0.06693*%
%ADD22R,0.10906X0.10039*%
%ADD23R,0.07874X0.14961*%
%ADD24R,0.04331X0.03937*%
%ADD25R,0.03937X0.04331*%
%ADD26R,0.06693X0.04331*%
%ADD46C,0.07480*%
%ADD47R,0.09843X0.06693*%
%ADD48R,0.04724X0.09449*%
%ADD49C,0.09449*%
%ADD50R,0.09449X0.09449*%
%ADD51R,0.04724X0.04724*%
%ADD52C,0.04724*%
%ADD53C,0.02756*%
G36*
X187687Y76230D02*
X188201D01*
Y76188D01*
X188373D01*
Y76145D01*
X188630D01*
Y76102D01*
X188758D01*
Y76059D01*
X188973D01*
Y76016D01*
X189101D01*
Y75973D01*
X189230D01*
Y75930D01*
X189359D01*
Y75888D01*
X189487D01*
Y75845D01*
X189616D01*
Y75802D01*
X189701D01*
Y75759D01*
X189787D01*
Y75716D01*
X189916D01*
Y75673D01*
X190002D01*
Y75630D01*
X190087D01*
Y75587D01*
X190173D01*
Y75545D01*
X190259D01*
Y75502D01*
X190345D01*
Y75459D01*
X190430D01*
Y75416D01*
X190516D01*
Y75373D01*
X190559D01*
Y75330D01*
X190645D01*
Y75287D01*
X190730D01*
Y75244D01*
X190773D01*
Y75202D01*
X190859D01*
Y75159D01*
X190902D01*
Y75116D01*
X190988D01*
Y75073D01*
X191030D01*
Y75030D01*
X191116D01*
Y74987D01*
X191159D01*
Y74944D01*
X191202D01*
Y74901D01*
X191288D01*
Y74859D01*
X191331D01*
Y74816D01*
X191373D01*
Y74773D01*
X191416D01*
Y74730D01*
X191459D01*
Y74687D01*
X191545D01*
Y74644D01*
X191588D01*
Y74601D01*
X191631D01*
Y74559D01*
X191674D01*
Y74516D01*
X191716D01*
Y74473D01*
X191759D01*
Y74430D01*
Y74387D01*
X191802D01*
Y74344D01*
X191845D01*
Y74301D01*
X191888D01*
Y74259D01*
Y74216D01*
X191931D01*
Y74173D01*
X191974D01*
Y74130D01*
Y74087D01*
X192016D01*
Y74044D01*
Y74001D01*
X192059D01*
Y73958D01*
Y73915D01*
Y73873D01*
Y73830D01*
X192102D01*
Y73787D01*
Y73744D01*
Y73701D01*
Y73658D01*
Y73615D01*
Y73573D01*
Y73530D01*
Y73487D01*
Y73444D01*
X192059D01*
Y73401D01*
Y73358D01*
Y73315D01*
Y73273D01*
X192016D01*
Y73230D01*
Y73187D01*
Y73144D01*
Y73101D01*
X191974D01*
Y73058D01*
Y73015D01*
X191931D01*
Y72972D01*
Y72930D01*
Y72887D01*
X191888D01*
Y72844D01*
Y72801D01*
Y72758D01*
X191845D01*
Y72715D01*
Y72672D01*
Y72629D01*
X191802D01*
Y72587D01*
Y72544D01*
Y72501D01*
Y72458D01*
X191759D01*
Y72415D01*
Y72372D01*
Y72329D01*
X191716D01*
Y72286D01*
Y72244D01*
Y72201D01*
X191674D01*
Y72158D01*
Y72115D01*
Y72072D01*
X191631D01*
Y72029D01*
Y71986D01*
Y71943D01*
X191588D01*
Y71901D01*
Y71858D01*
Y71815D01*
X191545D01*
Y71772D01*
Y71729D01*
Y71686D01*
Y71644D01*
X191502D01*
Y71601D01*
Y71558D01*
Y71515D01*
X191459D01*
Y71472D01*
Y71429D01*
Y71386D01*
X191416D01*
Y71343D01*
Y71301D01*
Y71258D01*
X191373D01*
Y71215D01*
Y71172D01*
Y71129D01*
X191331D01*
Y71086D01*
Y71043D01*
Y71000D01*
X191288D01*
Y70958D01*
Y70915D01*
Y70872D01*
Y70829D01*
X191245D01*
Y70786D01*
Y70743D01*
Y70700D01*
X191202D01*
Y70657D01*
Y70615D01*
Y70572D01*
X191159D01*
Y70529D01*
Y70486D01*
Y70443D01*
X191116D01*
Y70400D01*
Y70357D01*
Y70315D01*
X191073D01*
Y70272D01*
Y70229D01*
Y70186D01*
X191030D01*
Y70143D01*
Y70100D01*
Y70057D01*
Y70014D01*
X190988D01*
Y69972D01*
Y69929D01*
Y69886D01*
X190945D01*
Y69843D01*
Y69800D01*
Y69757D01*
X190902D01*
Y69714D01*
Y69671D01*
Y69629D01*
Y69586D01*
X190859D01*
Y69543D01*
Y69500D01*
Y69457D01*
X190816D01*
Y69414D01*
Y69371D01*
Y69328D01*
X190773D01*
Y69286D01*
Y69243D01*
Y69200D01*
X190730D01*
Y69157D01*
Y69114D01*
Y69071D01*
X190688D01*
Y69028D01*
Y68986D01*
Y68943D01*
X190645D01*
Y68900D01*
Y68857D01*
Y68814D01*
Y68771D01*
X190602D01*
Y68728D01*
Y68686D01*
Y68643D01*
X190559D01*
Y68600D01*
Y68557D01*
X190516D01*
Y68514D01*
Y68471D01*
Y68428D01*
X190473D01*
Y68385D01*
Y68343D01*
X190430D01*
Y68300D01*
Y68257D01*
X190387D01*
Y68214D01*
Y68171D01*
X190345D01*
Y68128D01*
Y68085D01*
X190302D01*
Y68042D01*
Y68000D01*
X190259D01*
Y67957D01*
X190216D01*
Y67914D01*
X190173D01*
Y67871D01*
Y67828D01*
X190130D01*
Y67785D01*
X190087D01*
Y67742D01*
X190044D01*
Y67699D01*
X190002D01*
Y67657D01*
X189916D01*
Y67614D01*
X189873D01*
Y67571D01*
X189830D01*
Y67528D01*
X189744D01*
Y67485D01*
X189659D01*
Y67442D01*
X189573D01*
Y67399D01*
X189487D01*
Y67357D01*
X189401D01*
Y67314D01*
X189316D01*
Y67271D01*
X189187D01*
Y67228D01*
X189058D01*
Y67185D01*
X188930D01*
Y67142D01*
X188801D01*
Y67099D01*
X188587D01*
Y67057D01*
X188458D01*
Y67014D01*
X188158D01*
Y66971D01*
X187558D01*
Y66928D01*
X187429D01*
Y66971D01*
X186872D01*
Y67014D01*
X186615D01*
Y67057D01*
X186443D01*
Y67099D01*
X186272D01*
Y67142D01*
X186186D01*
Y67185D01*
X186058D01*
Y67228D01*
X185929D01*
Y67271D01*
X185843D01*
Y67314D01*
X185758D01*
Y67357D01*
X185672D01*
Y67399D01*
X185629D01*
Y67442D01*
X185543D01*
Y67485D01*
X185458D01*
Y67528D01*
X185415D01*
Y67571D01*
X185372D01*
Y67614D01*
X185329D01*
Y67657D01*
X185286D01*
Y67699D01*
X185243D01*
Y67742D01*
X185200D01*
Y67785D01*
X185157D01*
Y67828D01*
X185115D01*
Y67871D01*
X185072D01*
Y67914D01*
X185029D01*
Y67957D01*
X184986D01*
Y68000D01*
Y68042D01*
X184943D01*
Y68085D01*
X184900D01*
Y68128D01*
Y68171D01*
X184857D01*
Y68214D01*
Y68257D01*
X184814D01*
Y68300D01*
X184772D01*
Y68343D01*
Y68385D01*
X184729D01*
Y68428D01*
Y68471D01*
X184686D01*
Y68514D01*
Y68557D01*
X184643D01*
Y68600D01*
Y68643D01*
X184600D01*
Y68686D01*
Y68728D01*
Y68771D01*
X184557D01*
Y68814D01*
Y68857D01*
X184514D01*
Y68900D01*
Y68943D01*
X184471D01*
Y68986D01*
Y69028D01*
X184429D01*
Y69071D01*
Y69114D01*
Y69157D01*
X184386D01*
Y69200D01*
Y69243D01*
X184343D01*
Y69286D01*
Y69328D01*
Y69371D01*
X184300D01*
Y69414D01*
Y69457D01*
Y69500D01*
X184257D01*
Y69543D01*
Y69586D01*
X184214D01*
Y69629D01*
Y69671D01*
X184171D01*
Y69714D01*
Y69757D01*
Y69800D01*
X184128D01*
Y69843D01*
Y69886D01*
X184086D01*
Y69929D01*
Y69972D01*
Y70014D01*
X184043D01*
Y70057D01*
Y70100D01*
X184000D01*
Y70143D01*
Y70186D01*
Y70229D01*
X183957D01*
Y70272D01*
Y70315D01*
X183914D01*
Y70357D01*
Y70400D01*
Y70443D01*
X183871D01*
Y70486D01*
Y70529D01*
X183828D01*
Y70572D01*
Y70615D01*
Y70657D01*
X183786D01*
Y70700D01*
Y70743D01*
Y70786D01*
X183743D01*
Y70829D01*
Y70872D01*
X183700D01*
Y70915D01*
Y70958D01*
X183657D01*
Y71000D01*
Y71043D01*
Y71086D01*
X183614D01*
Y71129D01*
Y71172D01*
X183571D01*
Y71215D01*
Y71258D01*
Y71301D01*
X183528D01*
Y71343D01*
Y71386D01*
X183485D01*
Y71429D01*
Y71472D01*
Y71515D01*
X183443D01*
Y71558D01*
Y71601D01*
X183400D01*
Y71644D01*
Y71686D01*
Y71729D01*
X183357D01*
Y71772D01*
Y71815D01*
X183314D01*
Y71858D01*
Y71901D01*
Y71943D01*
X183271D01*
Y71986D01*
Y72029D01*
X183228D01*
Y72072D01*
Y72115D01*
X183185D01*
Y72158D01*
Y72201D01*
Y72244D01*
X183142D01*
Y72286D01*
Y72329D01*
X183100D01*
Y72372D01*
Y72415D01*
Y72458D01*
X183057D01*
Y72501D01*
Y72544D01*
Y72587D01*
X183014D01*
Y72629D01*
Y72672D01*
X182971D01*
Y72715D01*
Y72758D01*
Y72801D01*
X182928D01*
Y72844D01*
Y72887D01*
X182885D01*
Y72930D01*
Y72972D01*
Y73015D01*
X182843D01*
Y73058D01*
Y73101D01*
X182800D01*
Y73144D01*
Y73187D01*
Y73230D01*
X182757D01*
Y73273D01*
Y73315D01*
Y73358D01*
Y73401D01*
X182714D01*
Y73444D01*
Y73487D01*
Y73530D01*
X182671D01*
Y73573D01*
Y73615D01*
Y73658D01*
Y73701D01*
Y73744D01*
Y73787D01*
Y73830D01*
Y73873D01*
Y73915D01*
Y73958D01*
Y74001D01*
Y74044D01*
X182714D01*
Y74087D01*
Y74130D01*
Y74173D01*
X182757D01*
Y74216D01*
Y74259D01*
X182800D01*
Y74301D01*
Y74344D01*
X182843D01*
Y74387D01*
X182885D01*
Y74430D01*
Y74473D01*
X182928D01*
Y74516D01*
X182971D01*
Y74559D01*
X183014D01*
Y74601D01*
X183057D01*
Y74644D01*
X183100D01*
Y74687D01*
X183142D01*
Y74730D01*
X183185D01*
Y74773D01*
X183228D01*
Y74816D01*
X183271D01*
Y74859D01*
X183314D01*
Y74901D01*
X183400D01*
Y74944D01*
X183443D01*
Y74987D01*
X183485D01*
Y75030D01*
X183571D01*
Y75073D01*
X183614D01*
Y75116D01*
X183700D01*
Y75159D01*
X183743D01*
Y75202D01*
X183828D01*
Y75244D01*
X183914D01*
Y75287D01*
X183957D01*
Y75330D01*
X184043D01*
Y75373D01*
X184128D01*
Y75416D01*
X184214D01*
Y75459D01*
X184300D01*
Y75502D01*
X184386D01*
Y75545D01*
X184471D01*
Y75587D01*
X184557D01*
Y75630D01*
X184643D01*
Y75673D01*
X184729D01*
Y75716D01*
X184857D01*
Y75759D01*
X184986D01*
Y75802D01*
X185072D01*
Y75845D01*
X185200D01*
Y75888D01*
X185329D01*
Y75930D01*
X185458D01*
Y75973D01*
X185629D01*
Y76016D01*
X185758D01*
Y76059D01*
X185972D01*
Y76102D01*
X186100D01*
Y76145D01*
X186358D01*
Y76188D01*
X186572D01*
Y76230D01*
X187086D01*
Y76273D01*
X187687D01*
Y76230D01*
D02*
G37*
G36*
X193045Y73401D02*
X193174D01*
Y73358D01*
X193303D01*
Y73315D01*
X193388D01*
Y73273D01*
X193517D01*
Y73230D01*
X193603D01*
Y73187D01*
X193731D01*
Y73144D01*
X193817D01*
Y73101D01*
X193946D01*
Y73058D01*
X194031D01*
Y73015D01*
X194117D01*
Y72972D01*
X194203D01*
Y72930D01*
X194289D01*
Y72887D01*
X194417D01*
Y72844D01*
X194460D01*
Y72801D01*
X194546D01*
Y72758D01*
X194631D01*
Y72715D01*
X194717D01*
Y72672D01*
X194803D01*
Y72629D01*
X194846D01*
Y72587D01*
X194931D01*
Y72544D01*
X195017D01*
Y72501D01*
X195060D01*
Y72458D01*
X195103D01*
Y72415D01*
X195189D01*
Y72372D01*
X195232D01*
Y72329D01*
X195274D01*
Y72286D01*
X195317D01*
Y72244D01*
X195360D01*
Y72201D01*
X195403D01*
Y72158D01*
X195446D01*
Y72115D01*
X195489D01*
Y72072D01*
Y72029D01*
X195532D01*
Y71986D01*
Y71943D01*
X195575D01*
Y71901D01*
Y71858D01*
X195617D01*
Y71815D01*
Y71772D01*
Y71729D01*
Y71686D01*
Y71644D01*
Y71601D01*
Y71558D01*
Y71515D01*
Y71472D01*
Y71429D01*
Y71386D01*
Y71343D01*
Y71301D01*
Y71258D01*
X195575D01*
Y71215D01*
Y71172D01*
Y71129D01*
Y71086D01*
X195532D01*
Y71043D01*
Y71000D01*
X195489D01*
Y70958D01*
Y70915D01*
Y70872D01*
X195446D01*
Y70829D01*
Y70786D01*
Y70743D01*
X195403D01*
Y70700D01*
Y70657D01*
X195360D01*
Y70615D01*
Y70572D01*
X195317D01*
Y70529D01*
Y70486D01*
Y70443D01*
X195274D01*
Y70400D01*
Y70357D01*
X195232D01*
Y70315D01*
Y70272D01*
X195189D01*
Y70229D01*
Y70186D01*
X195146D01*
Y70143D01*
Y70100D01*
X195103D01*
Y70057D01*
Y70014D01*
X195060D01*
Y69972D01*
X195017D01*
Y69929D01*
Y69886D01*
X194974D01*
Y69843D01*
X194931D01*
Y69800D01*
Y69757D01*
X194889D01*
Y69714D01*
Y69671D01*
X194846D01*
Y69629D01*
X194803D01*
Y69586D01*
Y69543D01*
X194760D01*
Y69500D01*
Y69457D01*
X194717D01*
Y69414D01*
X194674D01*
Y69371D01*
Y69328D01*
X194631D01*
Y69286D01*
Y69243D01*
X194589D01*
Y69200D01*
X194546D01*
Y69157D01*
Y69114D01*
X194503D01*
Y69071D01*
X194460D01*
Y69028D01*
Y68986D01*
X194417D01*
Y68943D01*
Y68900D01*
X194374D01*
Y68857D01*
X194331D01*
Y68814D01*
Y68771D01*
X194289D01*
Y68728D01*
Y68686D01*
X194246D01*
Y68643D01*
X194203D01*
Y68600D01*
Y68557D01*
X194160D01*
Y68514D01*
X194117D01*
Y68471D01*
Y68428D01*
X194074D01*
Y68385D01*
Y68343D01*
X194031D01*
Y68300D01*
X193988D01*
Y68257D01*
Y68214D01*
X193946D01*
Y68171D01*
X193903D01*
Y68128D01*
Y68085D01*
X193860D01*
Y68042D01*
X193817D01*
Y68000D01*
Y67957D01*
X193774D01*
Y67914D01*
X193731D01*
Y67871D01*
Y67828D01*
X193688D01*
Y67785D01*
X193646D01*
Y67742D01*
Y67699D01*
X193603D01*
Y67657D01*
X193560D01*
Y67614D01*
Y67571D01*
X193517D01*
Y67528D01*
X193474D01*
Y67485D01*
Y67442D01*
X193431D01*
Y67399D01*
X193388D01*
Y67357D01*
X193345D01*
Y67314D01*
Y67271D01*
X193303D01*
Y67228D01*
X193260D01*
Y67185D01*
X193217D01*
Y67142D01*
X193174D01*
Y67099D01*
Y67057D01*
X193131D01*
Y67014D01*
X193088D01*
Y66971D01*
X193045D01*
Y66928D01*
X193002D01*
Y66885D01*
X192917D01*
Y66842D01*
X192874D01*
Y66799D01*
X192831D01*
Y66756D01*
X192745D01*
Y66714D01*
X192659D01*
Y66671D01*
X192102D01*
Y66714D01*
X191931D01*
Y66756D01*
X191802D01*
Y66799D01*
X191674D01*
Y66842D01*
X191588D01*
Y66885D01*
X191459D01*
Y66928D01*
X191373D01*
Y66971D01*
X191245D01*
Y67014D01*
X191159D01*
Y67057D01*
X191073D01*
Y67099D01*
X190945D01*
Y67142D01*
X190859D01*
Y67185D01*
X190773D01*
Y67228D01*
X190816D01*
Y67271D01*
X190859D01*
Y67314D01*
X190902D01*
Y67357D01*
X190945D01*
Y67399D01*
Y67442D01*
X190988D01*
Y67485D01*
X191030D01*
Y67528D01*
X191073D01*
Y67571D01*
Y67614D01*
X191116D01*
Y67657D01*
Y67699D01*
X191159D01*
Y67742D01*
Y67785D01*
X191202D01*
Y67828D01*
Y67871D01*
X191245D01*
Y67914D01*
Y67957D01*
X191288D01*
Y68000D01*
Y68042D01*
X191331D01*
Y68085D01*
Y68128D01*
X191373D01*
Y68171D01*
Y68214D01*
Y68257D01*
X191416D01*
Y68300D01*
Y68343D01*
Y68385D01*
X191459D01*
Y68428D01*
Y68471D01*
Y68514D01*
X191502D01*
Y68557D01*
Y68600D01*
Y68643D01*
X191545D01*
Y68686D01*
Y68728D01*
Y68771D01*
X191588D01*
Y68814D01*
Y68857D01*
Y68900D01*
Y68943D01*
X191631D01*
Y68986D01*
Y69028D01*
X191674D01*
Y69071D01*
Y69114D01*
Y69157D01*
Y69200D01*
X191716D01*
Y69243D01*
Y69286D01*
Y69328D01*
X191759D01*
Y69371D01*
Y69414D01*
Y69457D01*
X191802D01*
Y69500D01*
Y69543D01*
Y69586D01*
Y69629D01*
X191845D01*
Y69671D01*
Y69714D01*
X191888D01*
Y69757D01*
Y69800D01*
Y69843D01*
Y69886D01*
X191931D01*
Y69929D01*
Y69972D01*
X191974D01*
Y70014D01*
Y70057D01*
Y70100D01*
Y70143D01*
X192016D01*
Y70186D01*
Y70229D01*
Y70272D01*
X192059D01*
Y70315D01*
Y70357D01*
Y70400D01*
X192102D01*
Y70443D01*
Y70486D01*
Y70529D01*
Y70572D01*
X192145D01*
Y70615D01*
Y70657D01*
X192188D01*
Y70700D01*
Y70743D01*
Y70786D01*
Y70829D01*
X192231D01*
Y70872D01*
Y70915D01*
Y70958D01*
X192274D01*
Y71000D01*
Y71043D01*
Y71086D01*
X192316D01*
Y71129D01*
Y71172D01*
Y71215D01*
Y71258D01*
X192359D01*
Y71301D01*
Y71343D01*
X192402D01*
Y71386D01*
Y71429D01*
Y71472D01*
Y71515D01*
X192445D01*
Y71558D01*
Y71601D01*
Y71644D01*
X192488D01*
Y71686D01*
Y71729D01*
Y71772D01*
X192531D01*
Y71815D01*
Y71858D01*
Y71901D01*
X192574D01*
Y71943D01*
Y71986D01*
Y72029D01*
X192617D01*
Y72072D01*
Y72115D01*
Y72158D01*
Y72201D01*
X192659D01*
Y72244D01*
Y72286D01*
Y72329D01*
X192702D01*
Y72372D01*
Y72415D01*
Y72458D01*
X192745D01*
Y72501D01*
Y72544D01*
Y72587D01*
X192788D01*
Y72629D01*
Y72672D01*
Y72715D01*
X192831D01*
Y72758D01*
Y72801D01*
Y72844D01*
X192874D01*
Y72887D01*
Y72930D01*
Y72972D01*
X192917D01*
Y73015D01*
Y73058D01*
Y73101D01*
Y73144D01*
X192959D01*
Y73187D01*
Y73230D01*
Y73273D01*
Y73315D01*
X193002D01*
Y73358D01*
Y73401D01*
Y73444D01*
X193045D01*
Y73401D01*
D02*
G37*
G36*
X181814Y73230D02*
Y73187D01*
X181857D01*
Y73144D01*
Y73101D01*
Y73058D01*
X181899D01*
Y73015D01*
Y72972D01*
Y72930D01*
X181942D01*
Y72887D01*
Y72844D01*
Y72801D01*
X181985D01*
Y72758D01*
Y72715D01*
Y72672D01*
X182028D01*
Y72629D01*
Y72587D01*
X182071D01*
Y72544D01*
Y72501D01*
Y72458D01*
X182114D01*
Y72415D01*
Y72372D01*
X182157D01*
Y72329D01*
Y72286D01*
Y72244D01*
X182199D01*
Y72201D01*
Y72158D01*
X182242D01*
Y72115D01*
Y72072D01*
Y72029D01*
X182285D01*
Y71986D01*
Y71943D01*
X182328D01*
Y71901D01*
Y71858D01*
Y71815D01*
X182371D01*
Y71772D01*
Y71729D01*
X182414D01*
Y71686D01*
Y71644D01*
Y71601D01*
X182457D01*
Y71558D01*
Y71515D01*
X182500D01*
Y71472D01*
Y71429D01*
Y71386D01*
X182542D01*
Y71343D01*
Y71301D01*
X182585D01*
Y71258D01*
Y71215D01*
X182628D01*
Y71172D01*
Y71129D01*
Y71086D01*
X182671D01*
Y71043D01*
Y71000D01*
Y70958D01*
X182714D01*
Y70915D01*
Y70872D01*
X182757D01*
Y70829D01*
Y70786D01*
X182800D01*
Y70743D01*
Y70700D01*
Y70657D01*
X182843D01*
Y70615D01*
Y70572D01*
X182885D01*
Y70529D01*
Y70486D01*
Y70443D01*
X182928D01*
Y70400D01*
Y70357D01*
X182971D01*
Y70315D01*
Y70272D01*
Y70229D01*
X183014D01*
Y70186D01*
Y70143D01*
X183057D01*
Y70100D01*
Y70057D01*
Y70014D01*
X183100D01*
Y69972D01*
Y69929D01*
X183142D01*
Y69886D01*
Y69843D01*
Y69800D01*
X183185D01*
Y69757D01*
Y69714D01*
X183228D01*
Y69671D01*
Y69629D01*
Y69586D01*
X183271D01*
Y69543D01*
Y69500D01*
X183314D01*
Y69457D01*
Y69414D01*
Y69371D01*
X183357D01*
Y69328D01*
Y69286D01*
X183400D01*
Y69243D01*
Y69200D01*
Y69157D01*
X183443D01*
Y69114D01*
Y69071D01*
X183485D01*
Y69028D01*
Y68986D01*
Y68943D01*
X183528D01*
Y68900D01*
Y68857D01*
X183571D01*
Y68814D01*
Y68771D01*
Y68728D01*
X183614D01*
Y68686D01*
Y68643D01*
X183657D01*
Y68600D01*
Y68557D01*
X183700D01*
Y68514D01*
Y68471D01*
Y68428D01*
X183743D01*
Y68385D01*
Y68343D01*
X183786D01*
Y68300D01*
Y68257D01*
X183828D01*
Y68214D01*
Y68171D01*
X183871D01*
Y68128D01*
Y68085D01*
X183914D01*
Y68042D01*
Y68000D01*
X183957D01*
Y67957D01*
Y67914D01*
X184000D01*
Y67871D01*
Y67828D01*
X184043D01*
Y67785D01*
Y67742D01*
X184086D01*
Y67699D01*
X184128D01*
Y67657D01*
Y67614D01*
X184171D01*
Y67571D01*
X184214D01*
Y67528D01*
Y67485D01*
X184257D01*
Y67442D01*
X184300D01*
Y67399D01*
X184343D01*
Y67357D01*
X184386D01*
Y67314D01*
Y67271D01*
X184429D01*
Y67228D01*
X184471D01*
Y67185D01*
X184429D01*
Y67142D01*
X184343D01*
Y67099D01*
X184214D01*
Y67057D01*
X184128D01*
Y67014D01*
X184000D01*
Y66971D01*
X183914D01*
Y66928D01*
X183786D01*
Y66885D01*
X183657D01*
Y66842D01*
X183571D01*
Y66799D01*
X183400D01*
Y66756D01*
X183271D01*
Y66714D01*
X183100D01*
Y66671D01*
X182885D01*
Y66628D01*
X182285D01*
Y66671D01*
X182157D01*
Y66714D01*
X182071D01*
Y66756D01*
X181985D01*
Y66799D01*
X181942D01*
Y66842D01*
X181857D01*
Y66885D01*
X181814D01*
Y66928D01*
X181771D01*
Y66971D01*
X181728D01*
Y67014D01*
X181685D01*
Y67057D01*
X181642D01*
Y67099D01*
X181599D01*
Y67142D01*
X181556D01*
Y67185D01*
X181514D01*
Y67228D01*
X181471D01*
Y67271D01*
X181428D01*
Y67314D01*
X181385D01*
Y67357D01*
Y67399D01*
X181342D01*
Y67442D01*
X181299D01*
Y67485D01*
X181256D01*
Y67528D01*
X181213D01*
Y67571D01*
Y67614D01*
X181171D01*
Y67657D01*
X181128D01*
Y67699D01*
X181085D01*
Y67742D01*
Y67785D01*
X181042D01*
Y67828D01*
Y67871D01*
X180999D01*
Y67914D01*
Y67957D01*
X180956D01*
Y68000D01*
Y68042D01*
X180913D01*
Y68085D01*
X180870D01*
Y68128D01*
Y68171D01*
X180828D01*
Y68214D01*
Y68257D01*
X180785D01*
Y68300D01*
Y68343D01*
X180742D01*
Y68385D01*
Y68428D01*
X180699D01*
Y68471D01*
X180656D01*
Y68514D01*
Y68557D01*
X180613D01*
Y68600D01*
Y68643D01*
X180570D01*
Y68686D01*
Y68728D01*
X180527D01*
Y68771D01*
Y68814D01*
X180485D01*
Y68857D01*
Y68900D01*
X180442D01*
Y68943D01*
Y68986D01*
X180399D01*
Y69028D01*
X180356D01*
Y69071D01*
Y69114D01*
X180313D01*
Y69157D01*
Y69200D01*
X180270D01*
Y69243D01*
Y69286D01*
X180227D01*
Y69328D01*
Y69371D01*
X180185D01*
Y69414D01*
X180142D01*
Y69457D01*
Y69500D01*
X180099D01*
Y69543D01*
Y69586D01*
X180056D01*
Y69629D01*
Y69671D01*
X180013D01*
Y69714D01*
Y69757D01*
X179970D01*
Y69800D01*
X179927D01*
Y69843D01*
Y69886D01*
X179885D01*
Y69929D01*
Y69972D01*
X179842D01*
Y70014D01*
Y70057D01*
X179799D01*
Y70100D01*
Y70143D01*
X179756D01*
Y70186D01*
Y70229D01*
X179713D01*
Y70272D01*
Y70315D01*
X179670D01*
Y70357D01*
X179627D01*
Y70400D01*
Y70443D01*
X179584D01*
Y70486D01*
Y70529D01*
X179542D01*
Y70572D01*
Y70615D01*
X179499D01*
Y70657D01*
Y70700D01*
X179456D01*
Y70743D01*
X179413D01*
Y70786D01*
Y70829D01*
X179370D01*
Y70872D01*
Y70915D01*
X179327D01*
Y70958D01*
Y71000D01*
X179284D01*
Y71043D01*
Y71086D01*
X179242D01*
Y71129D01*
Y71172D01*
X179199D01*
Y71215D01*
Y71258D01*
Y71301D01*
X179156D01*
Y71343D01*
Y71386D01*
X179113D01*
Y71429D01*
Y71472D01*
Y71515D01*
Y71558D01*
Y71601D01*
Y71644D01*
Y71686D01*
Y71729D01*
X179156D01*
Y71772D01*
Y71815D01*
X179199D01*
Y71858D01*
Y71901D01*
X179242D01*
Y71943D01*
X179284D01*
Y71986D01*
X179327D01*
Y72029D01*
X179370D01*
Y72072D01*
X179413D01*
Y72115D01*
X179456D01*
Y72158D01*
X179542D01*
Y72201D01*
X179584D01*
Y72244D01*
X179670D01*
Y72286D01*
X179713D01*
Y72329D01*
X179799D01*
Y72372D01*
X179885D01*
Y72415D01*
X179927D01*
Y72458D01*
X180013D01*
Y72501D01*
X180099D01*
Y72544D01*
X180185D01*
Y72587D01*
X180270D01*
Y72629D01*
X180313D01*
Y72672D01*
X180442D01*
Y72715D01*
X180527D01*
Y72758D01*
X180613D01*
Y72801D01*
X180699D01*
Y72844D01*
X180785D01*
Y72887D01*
X180913D01*
Y72930D01*
X180956D01*
Y72972D01*
X181085D01*
Y73015D01*
X181171D01*
Y73058D01*
X181299D01*
Y73101D01*
X181385D01*
Y73144D01*
X181471D01*
Y73187D01*
X181599D01*
Y73230D01*
X181685D01*
Y73273D01*
X181814D01*
Y73230D01*
D02*
G37*
G36*
X196089Y69929D02*
X196132D01*
Y69886D01*
X196218D01*
Y69843D01*
X196260D01*
Y69800D01*
X196303D01*
Y69757D01*
X196346D01*
Y69714D01*
X196389D01*
Y69671D01*
X196432D01*
Y69629D01*
X196475D01*
Y69586D01*
X196518D01*
Y69543D01*
X196561D01*
Y69500D01*
Y69457D01*
X196603D01*
Y69414D01*
X196646D01*
Y69371D01*
X196689D01*
Y69328D01*
X196732D01*
Y69286D01*
Y69243D01*
X196775D01*
Y69200D01*
X196818D01*
Y69157D01*
Y69114D01*
X196861D01*
Y69071D01*
X196904D01*
Y69028D01*
Y68986D01*
X196946D01*
Y68943D01*
Y68900D01*
X196989D01*
Y68857D01*
X197032D01*
Y68814D01*
Y68771D01*
X197075D01*
Y68728D01*
Y68686D01*
X197118D01*
Y68643D01*
Y68600D01*
X197161D01*
Y68557D01*
Y68514D01*
Y68471D01*
X197204D01*
Y68428D01*
Y68385D01*
X197247D01*
Y68343D01*
Y68300D01*
Y68257D01*
X197289D01*
Y68214D01*
Y68171D01*
Y68128D01*
X197332D01*
Y68085D01*
Y68042D01*
Y68000D01*
Y67957D01*
X197375D01*
Y67914D01*
Y67871D01*
Y67828D01*
Y67785D01*
X197418D01*
Y67742D01*
Y67699D01*
Y67657D01*
Y67614D01*
Y67571D01*
X197461D01*
Y67528D01*
Y67485D01*
Y67442D01*
Y67399D01*
Y67357D01*
Y67314D01*
Y67271D01*
Y67228D01*
Y67185D01*
X197504D01*
Y67142D01*
Y67099D01*
Y67057D01*
Y67014D01*
Y66971D01*
Y66928D01*
Y66885D01*
Y66842D01*
Y66799D01*
Y66756D01*
X197461D01*
Y66714D01*
Y66671D01*
Y66628D01*
Y66585D01*
Y66542D01*
Y66499D01*
Y66456D01*
Y66413D01*
X197418D01*
Y66371D01*
Y66328D01*
Y66285D01*
X197118D01*
Y66328D01*
X196989D01*
Y66371D01*
X196861D01*
Y66413D01*
X196732D01*
Y66456D01*
X196646D01*
Y66499D01*
X196518D01*
Y66542D01*
X196432D01*
Y66585D01*
X196303D01*
Y66628D01*
X196218D01*
Y66671D01*
X196089D01*
Y66714D01*
X196003D01*
Y66756D01*
X195917D01*
Y66799D01*
X195789D01*
Y66842D01*
X195703D01*
Y66885D01*
X195617D01*
Y66928D01*
X195489D01*
Y66971D01*
X195403D01*
Y67014D01*
X195274D01*
Y67057D01*
X195189D01*
Y67099D01*
X195060D01*
Y67142D01*
X194974D01*
Y67185D01*
X194889D01*
Y67228D01*
X194760D01*
Y67271D01*
X194674D01*
Y67314D01*
X194546D01*
Y67357D01*
X194503D01*
Y67399D01*
Y67442D01*
X194546D01*
Y67485D01*
X194589D01*
Y67528D01*
Y67571D01*
X194631D01*
Y67614D01*
X194674D01*
Y67657D01*
Y67699D01*
X194717D01*
Y67742D01*
X194760D01*
Y67785D01*
Y67828D01*
X194803D01*
Y67871D01*
X194846D01*
Y67914D01*
Y67957D01*
X194889D01*
Y68000D01*
Y68042D01*
X194931D01*
Y68085D01*
X194974D01*
Y68128D01*
Y68171D01*
X195017D01*
Y68214D01*
X195060D01*
Y68257D01*
Y68300D01*
X195103D01*
Y68343D01*
Y68385D01*
X195146D01*
Y68428D01*
X195189D01*
Y68471D01*
Y68514D01*
X195232D01*
Y68557D01*
X195274D01*
Y68600D01*
Y68643D01*
X195317D01*
Y68686D01*
Y68728D01*
X195360D01*
Y68771D01*
X195403D01*
Y68814D01*
Y68857D01*
X195446D01*
Y68900D01*
Y68943D01*
X195489D01*
Y68986D01*
X195532D01*
Y69028D01*
Y69071D01*
X195575D01*
Y69114D01*
Y69157D01*
X195617D01*
Y69200D01*
X195660D01*
Y69243D01*
Y69286D01*
X195703D01*
Y69328D01*
Y69371D01*
X195746D01*
Y69414D01*
X195789D01*
Y69457D01*
Y69500D01*
X195832D01*
Y69543D01*
X195875D01*
Y69586D01*
Y69629D01*
X195917D01*
Y69671D01*
Y69714D01*
X195960D01*
Y69757D01*
Y69800D01*
X196003D01*
Y69843D01*
Y69886D01*
X196046D01*
Y69929D01*
Y69972D01*
X196089D01*
Y69929D01*
D02*
G37*
G36*
X178899Y69843D02*
Y69800D01*
X178941D01*
Y69757D01*
Y69714D01*
X178984D01*
Y69671D01*
X179027D01*
Y69629D01*
Y69586D01*
X179070D01*
Y69543D01*
Y69500D01*
X179113D01*
Y69457D01*
Y69414D01*
X179156D01*
Y69371D01*
Y69328D01*
X179199D01*
Y69286D01*
Y69243D01*
X179242D01*
Y69200D01*
X179284D01*
Y69157D01*
Y69114D01*
X179327D01*
Y69071D01*
Y69028D01*
X179370D01*
Y68986D01*
Y68943D01*
X179413D01*
Y68900D01*
Y68857D01*
X179456D01*
Y68814D01*
X179499D01*
Y68771D01*
Y68728D01*
X179542D01*
Y68686D01*
Y68643D01*
X179584D01*
Y68600D01*
Y68557D01*
X179627D01*
Y68514D01*
Y68471D01*
X179670D01*
Y68428D01*
Y68385D01*
X179713D01*
Y68343D01*
X179756D01*
Y68300D01*
Y68257D01*
X179799D01*
Y68214D01*
Y68171D01*
X179842D01*
Y68128D01*
Y68085D01*
X179885D01*
Y68042D01*
Y68000D01*
X179927D01*
Y67957D01*
Y67914D01*
X179970D01*
Y67871D01*
X180013D01*
Y67828D01*
Y67785D01*
X180056D01*
Y67742D01*
Y67699D01*
X180099D01*
Y67657D01*
Y67614D01*
X180142D01*
Y67571D01*
Y67528D01*
X180185D01*
Y67485D01*
X180227D01*
Y67442D01*
Y67399D01*
X180270D01*
Y67357D01*
Y67314D01*
X180313D01*
Y67271D01*
Y67228D01*
X180356D01*
Y67185D01*
X180270D01*
Y67142D01*
X180185D01*
Y67099D01*
X180056D01*
Y67057D01*
X179970D01*
Y67014D01*
X179885D01*
Y66971D01*
X179756D01*
Y66928D01*
X179670D01*
Y66885D01*
X179542D01*
Y66842D01*
X179456D01*
Y66799D01*
X179370D01*
Y66756D01*
X179242D01*
Y66714D01*
X179156D01*
Y66671D01*
X179070D01*
Y66628D01*
X178941D01*
Y66585D01*
X178856D01*
Y66542D01*
X178770D01*
Y66499D01*
X178641D01*
Y66456D01*
X178556D01*
Y66413D01*
X178427D01*
Y66371D01*
X178341D01*
Y66328D01*
X178213D01*
Y66285D01*
X178084D01*
Y66242D01*
X177955D01*
Y66199D01*
X177784D01*
Y66156D01*
X177655D01*
Y66199D01*
Y66242D01*
X177612D01*
Y66285D01*
Y66328D01*
Y66371D01*
X177570D01*
Y66413D01*
Y66456D01*
Y66499D01*
Y66542D01*
Y66585D01*
Y66628D01*
Y66671D01*
X177527D01*
Y66714D01*
Y66756D01*
Y66799D01*
Y66842D01*
Y66885D01*
Y66928D01*
Y66971D01*
Y67014D01*
Y67057D01*
Y67099D01*
Y67142D01*
Y67185D01*
Y67228D01*
Y67271D01*
X177570D01*
Y67314D01*
Y67357D01*
Y67399D01*
Y67442D01*
Y67485D01*
Y67528D01*
Y67571D01*
Y67614D01*
Y67657D01*
X177612D01*
Y67699D01*
Y67742D01*
Y67785D01*
Y67828D01*
X177655D01*
Y67871D01*
Y67914D01*
Y67957D01*
Y68000D01*
Y68042D01*
X177698D01*
Y68085D01*
Y68128D01*
Y68171D01*
X177741D01*
Y68214D01*
Y68257D01*
Y68300D01*
X177784D01*
Y68343D01*
Y68385D01*
Y68428D01*
X177827D01*
Y68471D01*
Y68514D01*
X177870D01*
Y68557D01*
Y68600D01*
X177912D01*
Y68643D01*
Y68686D01*
X177955D01*
Y68728D01*
Y68771D01*
X177998D01*
Y68814D01*
Y68857D01*
X178041D01*
Y68900D01*
Y68943D01*
X178084D01*
Y68986D01*
Y69028D01*
X178127D01*
Y69071D01*
X178170D01*
Y69114D01*
Y69157D01*
X178213D01*
Y69200D01*
X178255D01*
Y69243D01*
X178298D01*
Y69286D01*
Y69328D01*
X178341D01*
Y69371D01*
X178384D01*
Y69414D01*
X178427D01*
Y69457D01*
X178470D01*
Y69500D01*
X178513D01*
Y69543D01*
Y69586D01*
X178556D01*
Y69629D01*
X178598D01*
Y69671D01*
X178641D01*
Y69714D01*
X178727D01*
Y69757D01*
Y69800D01*
X178813D01*
Y69843D01*
X178856D01*
Y69886D01*
X178899D01*
Y69843D01*
D02*
G37*
G36*
X161417Y68898D02*
X159449Y66929D01*
Y66929D01*
X145669D01*
X143701Y64961D01*
Y53150D01*
X141732Y51181D01*
X114173D01*
X112205Y49213D01*
X112205D01*
Y41339D01*
X110236Y39370D01*
X92520D01*
Y76772D01*
X94488Y78740D01*
X161417D01*
Y68898D01*
D02*
G37*
G36*
X178149Y59951D02*
X178149Y52050D01*
X182400Y47800D01*
X235665D01*
X237520Y45945D01*
X237520Y27559D01*
X178150Y27559D01*
X169291Y36417D01*
X151575D01*
X148622Y39370D01*
Y61024D01*
X150591Y62992D01*
X175108D01*
X178149Y59951D01*
D02*
G37*
G36*
X122500Y28400D02*
X121300Y27200D01*
X115400D01*
Y29600D01*
X116700D01*
X118300Y31200D01*
Y44300D01*
X122500D01*
Y28400D01*
D02*
G37*
G36*
X140500Y32500D02*
X141900Y31100D01*
X152100D01*
X153400Y29800D01*
Y25100D01*
X146400D01*
X144300Y27200D01*
X136700D01*
X136300Y27600D01*
Y44300D01*
X140500D01*
X140500Y32500D01*
D02*
G37*
G36*
X84646Y62992D02*
Y39370D01*
X88583Y35433D01*
X102989D01*
X111936Y25591D01*
X122835D01*
Y21556D01*
X122807Y21067D01*
X113902D01*
Y20669D01*
X113891D01*
X111926Y18705D01*
X105311D01*
X103347Y20669D01*
X87598D01*
X87449Y20520D01*
X86724D01*
Y19795D01*
X83661Y16732D01*
Y8268D01*
X51181D01*
Y29528D01*
X49213Y31496D01*
X43307D01*
X39370Y35433D01*
Y43307D01*
X43307Y47244D01*
X49213D01*
X51181Y49213D01*
Y62992D01*
X55118Y66929D01*
X80709D01*
X84646Y62992D01*
D02*
G37*
G36*
X49651Y72396D02*
Y49845D01*
X48579Y48774D01*
X43307D01*
X42722Y48657D01*
X42226Y48325D01*
X38289Y44388D01*
X37957Y43892D01*
X37841Y43307D01*
Y35433D01*
X37957Y34848D01*
X38289Y34352D01*
X42226Y30415D01*
X42722Y30083D01*
X43307Y29967D01*
X48579D01*
X49651Y28895D01*
Y8268D01*
X49652D01*
X49768Y7683D01*
X50100Y7186D01*
X50596Y6855D01*
X51181Y6738D01*
X83661D01*
X84247Y6855D01*
X84691Y7152D01*
D01*
X84743Y7186D01*
X85074Y7683D01*
X85191Y8268D01*
Y16099D01*
X87806Y18714D01*
X88090Y19140D01*
X102713D01*
X104229Y17624D01*
X104726Y17292D01*
X105311Y17176D01*
X111724D01*
X113152Y15748D01*
X113902D01*
Y15705D01*
X122807D01*
Y15748D01*
X124488D01*
X126336Y17422D01*
X126679D01*
X127411Y17618D01*
X128067Y17997D01*
X128603Y18533D01*
X128982Y19189D01*
X129178Y19921D01*
Y19996D01*
X135355Y25591D01*
X143465D01*
X145153Y24083D01*
Y23650D01*
X145638D01*
X147874Y21653D01*
X236438Y21666D01*
X236524Y21681D01*
X237533Y21666D01*
X237534D01*
X237537Y12388D01*
X237525Y12372D01*
X237523Y9755D01*
X237522Y9755D01*
X237535Y8807D01*
X237191Y6943D01*
X236490Y5182D01*
X235458Y3591D01*
X234136Y2232D01*
X232575Y1158D01*
X230833Y408D01*
X228979Y13D01*
X228032Y-0D01*
X224812Y0D01*
X224812Y0D01*
X202284Y0D01*
X10000D01*
X10000Y0D01*
X9015Y0D01*
X7083Y384D01*
X5263Y1138D01*
X3625Y2232D01*
X2232Y3625D01*
X1138Y5263D01*
X384Y7083D01*
X-0Y9015D01*
X0Y10000D01*
Y68740D01*
Y69725D01*
X384Y71657D01*
X1138Y73477D01*
X2232Y75115D01*
X3625Y76508D01*
X5263Y77602D01*
X7083Y78356D01*
X9015Y78740D01*
X43307D01*
X49651Y72396D01*
D02*
G37*
%LPC*%
G36*
X11858Y44216D02*
X10582D01*
X9350Y43886D01*
X8245Y43248D01*
X7342Y42346D01*
X6704Y41241D01*
X6374Y40008D01*
Y38732D01*
X6704Y37499D01*
X7342Y36394D01*
X8245Y35492D01*
X9350Y34854D01*
X10582Y34524D01*
X11858D01*
X13091Y34854D01*
X14196Y35492D01*
X15099Y36394D01*
X15737Y37499D01*
X16067Y38732D01*
Y40008D01*
X15737Y41241D01*
X15099Y42346D01*
X14196Y43248D01*
X13091Y43886D01*
X11858Y44216D01*
D02*
G37*
G36*
X144067Y16067D02*
X135161D01*
Y10705D01*
X137575D01*
Y8569D01*
X136802Y7796D01*
X135996D01*
Y9225D01*
X128665D01*
Y2289D01*
X135996D01*
Y3718D01*
X137647D01*
X138427Y3873D01*
X139089Y4315D01*
X141056Y6283D01*
X141056Y6283D01*
X141498Y6944D01*
X141653Y7724D01*
X141653Y7724D01*
Y10705D01*
X144067D01*
Y16067D01*
D02*
G37*
%LPD*%
D14*
X126058Y20300D02*
X126300D01*
X118354Y18386D02*
X124144D01*
X126058Y20300D01*
X120079Y5906D02*
X125489D01*
X125638Y5757D01*
X118354Y7630D02*
Y13386D01*
Y7630D02*
X120079Y5906D01*
X132331Y5757D02*
X137647D01*
X139614Y7724D02*
Y13386D01*
X137647Y5757D02*
X139614Y7724D01*
X189884Y55700D02*
X194454D01*
X185315D02*
X189884D01*
X201147D02*
Y68347D01*
X203542Y70742D02*
X219543D01*
X201147Y68347D02*
X203542Y70742D01*
D16*
X62587Y51181D02*
D03*
X101760D02*
D03*
D17*
X154000Y72228D02*
D03*
Y57758D02*
D03*
D18*
X118354Y28386D02*
D03*
Y23386D02*
D03*
Y18386D02*
D03*
Y13386D02*
D03*
X139614Y28386D02*
D03*
Y23386D02*
D03*
Y18386D02*
D03*
Y13386D02*
D03*
D19*
X138433Y39173D02*
D03*
X120402D02*
D03*
D20*
X129417Y64764D02*
D03*
D21*
X185315Y55700D02*
D03*
X174685D02*
D03*
D22*
X68323Y14000D02*
D03*
X93677D02*
D03*
D23*
X177000Y40945D02*
D03*
Y9055D02*
D03*
D24*
X125638Y5757D02*
D03*
X132331D02*
D03*
X194454Y55700D02*
D03*
X201147D02*
D03*
D25*
X108465Y15040D02*
D03*
Y21733D02*
D03*
D26*
X150000Y27315D02*
D03*
Y16685D02*
D03*
D46*
X46654Y39370D02*
D03*
D47*
X41142Y59311D02*
D03*
X22244D02*
D03*
X41142Y19429D02*
D03*
X22244D02*
D03*
D48*
X24606Y39370D02*
D03*
D49*
X218000Y13158D02*
D03*
D50*
Y32842D02*
D03*
D51*
X209700Y60900D02*
D03*
D52*
X219543Y70742D02*
D03*
X229385Y60900D02*
D03*
D53*
X186376Y3543D02*
D03*
X186486Y17551D02*
D03*
X38903Y75197D02*
D03*
X31185D02*
D03*
X15748Y3543D02*
D03*
X23467D02*
D03*
X31185D02*
D03*
X38903D02*
D03*
X163630D02*
D03*
X155911D02*
D03*
X148193D02*
D03*
X209642Y17551D02*
D03*
X201923D02*
D03*
X194205D02*
D03*
X194095Y3543D02*
D03*
X201813D02*
D03*
X209531D02*
D03*
X217250D02*
D03*
X224969D02*
D03*
X120866D02*
D03*
X113148D02*
D03*
X105429D02*
D03*
X97711D02*
D03*
X89992D02*
D03*
X126300Y20300D02*
D03*
X189884Y55700D02*
D03*
M02*
